/* XPM */
static char *_b37b1cb21d44f42c2589e5dc518db60u40IR7fZDmugYttN[] = {
/* columns rows colors chars-per-pixel */
"50 50 249 2 ",
"   c #515D1F",
".  c #5D691B",
"X  c #566711",
"o  c #646D1A",
"O  c #67731A",
"+  c #76791B",
"@  c #626E06",
"#  c #555F26",
"$  c #5C6C24",
"%  c #57692A",
"&  c #5C732B",
"*  c #4D6737",
"=  c #546B34",
"-  c #5B6E33",
";  c #546B3C",
":  c #5B6C3C",
">  c #536538",
",  c #5B7334",
"<  c #55723C",
"1  c #5B733C",
"2  c #5E793D",
"3  c #557437",
"4  c #4D682F",
"5  c #636C23",
"6  c #636E2C",
"7  c #687529",
"8  c #747827",
"9  c #676C37",
"0  c #6C7C33",
"q  c #63753C",
"w  c #637B3D",
"e  c #697638",
"r  c #777936",
"t  c #4E6846",
"y  c #556D42",
"u  c #5B6D42",
"i  c #586B47",
"p  c #557242",
"a  c #5C7343",
"s  c #5D7943",
"d  c #5C734B",
"f  c #5D7949",
"g  c #56724C",
"h  c #5B7454",
"j  c #636E44",
"k  c #627543",
"l  c #6A7644",
"z  c #637A44",
"x  c #6A7C43",
"c  c #63754A",
"v  c #6A754B",
"b  c #647B4A",
"n  c #6A7C4C",
"m  c #727B42",
"M  c #747B4A",
"N  c #6D7C52",
"B  c #647953",
"V  c #727D53",
"C  c #727E5A",
"Z  c #954D00",
"A  c #9A5500",
"S  c #A65A00",
"D  c #837A1A",
"F  c #AD6300",
"G  c #A56500",
"H  c #B66A00",
"J  c #B97B02",
"K  c #AF7900",
"L  c #887934",
"P  c #CD7A02",
"I  c #7C8318",
"U  c #798904",
"Y  c #768426",
"T  c #758236",
"R  c #6B8144",
"E  c #65814B",
"W  c #6B824B",
"Q  c #688546",
"!  c #74854A",
"~  c #6C8352",
"^  c #688556",
"/  c #748155",
"(  c #78875A",
")  c #7A9159",
"_  c #86881A",
"`  c #8A9314",
"'  c #99991A",
"]  c #8E8912",
"[  c #B98B00",
"{  c #AF9916",
"}  c #B0AB1D",
"|  c #878926",
" . c #968925",
".. c #8B912A",
"X. c #9B9628",
"o. c #979533",
"O. c #929133",
"+. c #A69D29",
"@. c #AC9C2A",
"#. c #9DA330",
"$. c #A5A825",
"%. c #B6A928",
"&. c #A8A73A",
"*. c #B8AF36",
"=. c #CC8C00",
"-. c #C58605",
";. c #D38A00",
":. c #DB8C03",
">. c #CB9600",
",. c #D49400",
"<. c #DB9500",
"1. c #DD9D00",
"2. c #DB990B",
"3. c #D58D16",
"4. c #EA8E03",
"5. c #E59401",
"6. c #EC9502",
"7. c #E39C00",
"8. c #EC9B02",
"9. c #ED960A",
"0. c #EE9C0A",
"q. c #E5980C",
"w. c #F09404",
"e. c #F19C04",
"r. c #F29509",
"t. c #F19B0A",
"y. c #EE9716",
"u. c #F39717",
"i. c #E48F18",
"p. c #DCA300",
"a. c #DDAA02",
"s. c #DFB500",
"d. c #C9A718",
"f. c #E4A301",
"g. c #ECA302",
"h. c #E5AB01",
"j. c #ECAC03",
"k. c #EEA30B",
"l. c #ECAB0A",
"z. c #F3A402",
"x. c #F3AC02",
"c. c #F4A50B",
"v. c #F8A50B",
"b. c #F3AA0C",
"n. c #F9AB06",
"m. c #E3B300",
"M. c #ECB301",
"N. c #E4BC00",
"B. c #ECBB01",
"V. c #EDB60B",
"C. c #F3B402",
"Z. c #F8B505",
"A. c #F3BB02",
"S. c #F9BC04",
"D. c #F3B50B",
"F. c #F3BA0B",
"G. c #F9B60C",
"H. c #EBA912",
"J. c #F7AC11",
"K. c #EDB614",
"L. c #F8B715",
"P. c #F79623",
"I. c #C4B727",
"U. c #D1BA34",
"Y. c #D4B42C",
"T. c #FCB927",
"R. c #ECAB2C",
"E. c #EDC400",
"W. c #EECA00",
"Q. c #EAC406",
"!. c #F4C302",
"~. c #FBC604",
"^. c #F5CB00",
"/. c #FACB02",
"(. c #FDCA0A",
"). c #F6C50B",
"_. c #F4D404",
"`. c #FBD202",
"'. c #FCDB02",
"]. c #FDD40B",
"[. c #FEDB0A",
"{. c #F4D807",
"}. c #F9C718",
"|. c #FDD613",
" X c #FFDB14",
".X c #FED21A",
"XX c #FAD916",
"oX c #EECA12",
"OX c #FCE402",
"+X c #FBEC04",
"@X c #FFE309",
"#X c #FFEC0B",
"$X c #F6EA04",
"%X c #FDF405",
"&X c #FCFA04",
"*X c #FEF40C",
"=X c #FCFA0C",
"-X c #FEE213",
";X c #FEEA12",
":X c #F7E314",
">X c #FFF613",
",X c #FFF913",
"<X c #FFF41B",
"1X c #FCFB1D",
"2X c #F6F818",
"3X c #D9C62B",
"4X c #C8C838",
"5X c #D8C438",
"6X c #DCD233",
"7X c #CED32A",
"8X c #E8CB2D",
"9X c #FBCC24",
"0X c #FCCC2C",
"qX c #F6CA27",
"wX c #EDD62E",
"eX c #FEDD2C",
"rX c #F9D526",
"tX c #E7CA38",
"yX c #F4CE37",
"uX c #ECD336",
"iX c #F9D739",
"pX c #DEE639",
"aX c #FEE528",
"sX c #FEFA23",
"dX c #FEF42B",
"fX c #FDF829",
"gX c #F9E736",
"hX c #FEF635",
"jX c #FDF43B",
"kX c #FFFB3C",
"lX c #FBF737",
"zX c #ECE736",
"xX c #AE9D43",
"cX c #D1BB46",
"vX c #D5C547",
"bX c #CFCE46",
"nX c #E9DC46",
"mX c #EBCE48",
"MX c #E9E949",
"NX c #F9E848",
"BX c #FDFC42",
"VX c #FDF446",
"CX c #FEE559",
"ZX c #FFFB5B",
"AX c #FBF455",
"SX c #E8E951",
"DX c #FFCE62",
"FX c #FFF666",
"GX c #FFF672",
/* pixels */
"< = : j j 9 k : q w n = z z W 2 3 w z z 2 - & - - % # = a ^ ^ h p p E < t g s 3 1 c ^ j B u n b s 2 ",
"a 1 a n / : : 1 1 R k k 2 = 1 R $ & 5 O Y Y ....O.O...| Y O $ % & - E f g y p E s z N c V b n z z z ",
"< s z b E = - R z E z W z q e r 8  .$.I.3XwXgXgXiXgXgXlXzX7X} ' + X 4 T 2 3 2 s 2 x v q w q & - x k ",
"k n E 2 3 4 1 E p ^ s q x 7 + L cXvXiXrX X]././.]._._.{.;X<XfXkXSX4X_ X . & w w k x z 2 2 w w 2 k k ",
"R z b s 3 2 s f p ^ ^ q o ] I.uX8XqX}.C.M.x.j.M.M.M.B.B.E.E./. XaXBXBXI.U . q W k k a u < z a q ! n ",
"W 2 b z s b ^ E B c # + @.mXqX).M.j.j.g.x.x.x.C.C.M.M.M.B.B.A.A.W.{.:XdXAX$.I T m l ~ c y u a z ( ( ",
"/ n n k x x W ^ x 7 I 3XwX.XV.f.j.g.j.g.g.x.c.x.j.C.C.C.C.C.C.A.B.Q.oX{.fXlX7XU 0 k n c i ; > s ) ( ",
"n c v j V ! R ! 7 X.6XeX(.j.x.z.z.8.c.x.b.b.g.l.j.j.M.C.C.C.D.D.F.N.V.E.{.$XfXpX` 7 e c b a 3 p v k ",
"z ! v v v O.C 8 ' zXaXE.C.z.x.z.z.z.g.x.x.z.v.c.j.j.M.C.C.x.D.M.B.A.A.A.!.^.:XlXMX` & T z 1 f B b k ",
"x W c ( v e r | wX:X^.M.x.x.n.z.n.g.g.g.z.v.v.c.p. XB.h.C.C.M.B.C.A.S.A.C.A.W.:XlXSXI $ 0 2 f p z k ",
", - c N W T _ nXjX_.B.C.C.x.b.z.e.z.z.g.c.8.x.1./.>X@Xs.V.x.C.C.C.A.C.C.Z.C.A.^.:XkX4X@ 7 4 1 s b b ",
"w R a ~ x 8 4XgX|.B.B.D.C.x.x.x.z.z.z.g.0.J.,.B.>X%X>X[.m.j.C.x.C.C.S.A.S.Z.A.B.W.:XkX} . , = > a a ",
"b ; 1 q 7 &.zX1XQ.M.A.M.M.Z.x.C.n.z.z.g.l.1.a.<X&X&X%X>X_.h.j.Z.D.C.C.C.A.A.Z.A.Q._.fXMX_ & q = : : ",
"c s : 6 | SXsX{.W.B.A.C.C.C.j.C.Z.x.v.b.a.>.:X1X&X&X&X%X1X^.m.x.x.C.C.M.C.C.Z.A.B.W.OXlXbX@ 0 z 1 1 ",
"s a k r &.VX<XQ.E.B.A.S.S.C.C.D.x.j.J.b.>.XX=X&X&X%X&X&X%X>XW.h.x.C.x.C.C.B.A.A.!.B.Q.aXMX` . ~ c b ",
"3 R M 8 6XdX_.Q.E.!.S.A.C.C.C.M.M.A.j.>.W.<X%X&X&X%X=X%X&X*X;XB.m.j.M.V.C.B.B.B.A.B.E.{.lX7XY ^ v n ",
"! ! x O.gX-X!.A.!.E.!.A.B.B.F.B.N.s.Q._.;X>X=X+X%X%X%X%X%X*X#X;X`.B.B.M.m.B.B.B.C.C.S.W.;XlXI w W n ",
"0 ! r *.gX`.A.S.!.A.!.A.~.B.s.!.^.[.;X;X#XOX+X#X$X+X+X+X+X+X+X@X*X@X].~.!.m.N.M.M.S.Z.B.'.hX#.  x a ",
"n m + vXeXA.A.S.A.S.A.).B.(. X|.-X[.[.@X@X@XOXOX$XOXOXOXOX@XOX'.@X[.-X X X]./.!.D.D.C.M.W.hXbXO w c ",
"C r D tXrXM.M.C.A.L.}.}.XX[.].'.[.[.].'.'.'.'.'.'.OX'.'.'.'.'.'.].'.[.'.[. X[.XX}.f.c.f.N.gXbXI 0 z ",
"N e X.yX}.m.C.x.L.G ,.0X(.`.`.`./.].`.`.`./.`.`.`.`.`.`.`.`.`.`._.]._.^.`./.]..X;.<.k.7.a.aXNX..r ~ ",
"C r %.yXK.h.M.x.G.f.Z H.(.~./.`././.^././././.^././.^.^./././.^.^.^.^._.`.!.|.p.=.k.c.k.a.oXNX' 0 / ",
"( L d.qXK.h.x.x.x.L.;.A }.(.!.^.^./././././././././././././.^./.].^./.`.!.(.).-.g.g.8.k.k.}.NX$.7 n ",
"c 8 { 9XD.f.l.z.z.x.T.H H 9X^././.^.^././././.~./././.~./.^././././.~./.~.}.;.1.g.f.z.z.1.oXgX%.8 V ",
"v r d.qXH.g.k.c.x.z.n.T.S -..X!./.^./././.~.~.(.(.~.~.~.~./.(././.~./.~.}.g.;.H.g.8.e.e.h.V.NX%.7 V ",
"C 7 d.0XD.f.c.k.z.n.z.b.P.Z k..X/././././.~.~.~.(.(.(.(././././././.~.(.Z.:.y.9.8.g.e.8.f.K.NX' v O.",
"O.9 @.yXK.7.x.8.z.e.c.v.T.:.S 9X(.^./././.~./.~.~./././././././.^.~.~.(.:.5.9.9.0.8.8.g.p.}.NX] 6 v ",
"C v  .yX}.f.z.z.v.e.v.v.z.L.S P .X/./.`./.`./././././././.^.`./.].^.].A.<.8.4.r.6.8.8.8.p.qXMX_ e C ",
"v r D mX}.j.z.e.t.e.t.e.8.0.i.S .X'.`.'.'._.'.'.'.'.'.'.'.'.'.'.'.[.'.!.7.6.w.r.9.q.8.8.f.rXbX+ r V ",
"C l + cXqXj.e.e.8.6.e.6.6.8.P.F |.@XOXOXOXOX@X$XOXOX$XOXOXOXOXOXOX@X@X].1.6.r.w.6.0.8.<.m.iXcX. m C ",
"C v o &.qXj.8.6.6.6.w.6.8.t.y.S ].*X#X+X%X$X%X%X%X%X%X%X%X%X%X%X%X$X,X].1.6.r.r.6.8.8.7.F.iX+.5 j v ",
"h v %  .yXZ.8.6.8.6.w.6.6.9.y.S XX1X>X>X,X*X=X&X=X=X=X=X*X,X>X>X,X,X<X|.p.e.w.9.6.8.8.7.F.uXD 6 l v ",
"j d j 8 U.9Xe.6.6.9.5.8.6.6.u.S XXfXfXsXsX<XsX1X1X1X1X2X1XsXdXhXfXfXfXXXf.8.8.6.t.5.6.l.qXI.O - : i ",
"* i u o { yXJ.7.6.9.6.8.5.5.u.F 8XBXlXlXhXhXhXjXkXhXhXkXVXjXjXjXBXlXlXrXf.0.7.8.8.8.e.H.uX' . - y y ",
"* 4 > 5 + cX9Xx.6.w.w.r.r.9.P.S tXFXAXAXZXAXAXNXyXR.Y.yXCXZXZXZXVXAXZXiXp.k.0.8.5.8.x.0XcXO 9 > u a ",
"< 1 ! m 5 o.yXF.e.4.w.w.9.y.P.S Y.GXGXGXCXtXd.[ [ 3.-.J K [ d.tXCXFXGXNXq.0.z.g.g.f.F.yX .6 : u a a ",
"2 z / ) w O I.wXb.w.r.r.4.w.u.H R.DXR.3.;.;.<.H.H.H.K.K.H.a.=.J J -.d.T.H.e.8.g.f.V.NX%.7 c ; ; ; , ",
"E z a ~ E 7 I 5X0Xn.4.r.4.w.r.P H 3.P 3.9.t.8.g.f.f.h.h.l.J.J.L.H.3.-.>.8.z.g.f.V.gX5XI R f d d b n ",
"~ ^ b d E w 5 _ 8X}.z.6.4.9.u.4.4.y.y.0.9.8.8.7.k.g.f.g.j.j.l.l.H.D.K.l.g.7.g.V.eXuXI 7 2 f N ( k x ",
"z c B a z z z o ' tX}.z.8.9.4.r.w.6.8.5.6.7.9.7.8.g.z.g.g.l.j.l.D.j.h.f.M.a.Q.eXMXX.7 1 s W k v : a ",
"u > u j u k E 2 o X.yX}.C.1.7.0.6.6.w.w.8.6.6.6.8.0.k.g.g.g.l.l.D.V.l.a.N.oXaXMXX.5 : ; < W x n u a ",
"c j i i u k a b k X ] Y.9XS.h.,.8.6.e.6.6.6.6.e.6.6.8.8.f.f.h.l.h.m.s.oXaXVX6X` 7 c c c : a > q ; ; ",
"c : j i u c ; f s R o | U.yX}.F.7.5.5.5.6.6.6.6.8.6.0.k.k.f.f.h.m.N.+XfXNX4X| Y x ~ V j z < ; * ; ; ",
"v c B c u k b B y p z & D @.5XuXqXT.l.f.7.8.6.8.6.5.5.7.7.f.M.!.XXdXfX6XX.+ 0 z z v / V : y * * y y ",
"d i v j ; < c c t t s z M L L xXcXtXyXqXF.C.x.j.z.j.j.C.S..XrXaXNXbX#.O 7 ! q b W k V v > i y d d y ",
"h B u : k 2 a u g B y b V M j 9 + X.%.3X8X8X0X0X0X0XqXqX8X6XY.} _ o % n ( a f ^ R , v c C B t y y * ",
"g y > = z a * p d k > x 3 T l k 0 7 7 8 Y | X.#.&.#.o.....Y . X & , : > c B j b 1 , ; p i a > s p < ",
"^ p a 1 x z p f z k z z Q Q 2 n 2 < < q q - % & T 7 % = * * p g < b b : ; u u > 1 ; < < > ; f 3 p y ",
"p c s z 2 : 2 z a = 1 x W W z z W n 2 b q q 2 2 z Q E f f s p y p f ; ; > a c u u b c c : ; c s * > ",
"1 s < 3 2 , a , , = > : k z k z n x q z 1 < 1 < * s s f f s p a a a < ; > ; a s u N v c u ; c c y a "
};
