/* XPM */
static char *d263ea208e6e43fbd23edeea323e83e8DvZFpv42Zki4IQo4[] = {
/* columns rows colors chars-per-pixel */
"50 50 227 2 ",
"   c #191C01",
".  c #2C1C07",
"X  c #261A0D",
"o  c #2C1C0C",
"O  c #23170B",
"+  c #311B0C",
"@  c #251B14",
"#  c #2B1E12",
"$  c #2C2304",
"%  c #242509",
"&  c #2C250C",
"*  c #2C2B0C",
"=  c #252105",
"-  c #312104",
";  c #34260D",
":  c #342C0D",
">  c #39290D",
",  c #3B260C",
"<  c #2C2314",
"1  c #2C2A13",
"2  c #2D231B",
"3  c #342513",
"4  c #3B2513",
"5  c #342A13",
"6  c #3C2A12",
"7  c #33251A",
"8  c #352D19",
"9  c #3D2C1A",
"0  c #3A2719",
"q  c #3A3411",
"w  c #3C331B",
"e  c #373615",
"r  c #2F2621",
"t  c #382C25",
"y  c #3B3324",
"u  c #37342A",
"i  c #3E3329",
"p  c #422B14",
"a  c #442D1A",
"s  c #492C15",
"d  c #463214",
"f  c #4C3415",
"g  c #44321B",
"h  c #4B341C",
"j  c #4C3A1C",
"k  c #47381B",
"l  c #53361B",
"z  c #543C1D",
"x  c #5C3D1D",
"c  c #543618",
"v  c #653D1C",
"b  c #443323",
"n  c #4A3422",
"m  c #4D3A22",
"M  c #413B2A",
"N  c #4A3B2C",
"B  c #42352B",
"V  c #543A22",
"C  c #5B3D22",
"Z  c #543D2A",
"A  c #553621",
"S  c #433933",
"D  c #503E32",
"F  c #6A3F23",
"G  c #703F21",
"H  c #494218",
"J  c #5E411D",
"K  c #574619",
"L  c #674217",
"P  c #65441E",
"I  c #6A441D",
"U  c #6A491C",
"Y  c #764B1E",
"T  c #4A4626",
"R  c #524225",
"E  c #5D4324",
"W  c #55432C",
"Q  c #5A432C",
"!  c #594B27",
"~  c #57512C",
"^  c #4B4237",
"/  c #5D4434",
"(  c #524439",
")  c #574736",
"_  c #5C5638",
"`  c #644423",
"'  c #6B4523",
"]  c #654926",
"[  c #6C4A24",
"{  c #63432A",
"}  c #69462A",
"|  c #654B2C",
" . c #6C4B2B",
".. c #734D23",
"X. c #794E24",
"o. c #734D29",
"O. c #7A4B2A",
"+. c #704426",
"@. c #65522F",
"#. c #69512B",
"$. c #755225",
"%. c #7A5225",
"&. c #74522A",
"*. c #7B532B",
"=. c #7E5A2B",
"-. c #644C34",
";. c #6C4D32",
":. c #664935",
">. c #744E32",
",. c #655232",
"<. c #6C5232",
"1. c #66593A",
"2. c #735234",
"3. c #735934",
"4. c #73553B",
"5. c #7C5939",
"6. c #51662E",
"7. c #4C643A",
"8. c #4C6435",
"9. c #536535",
"0. c #586537",
"q. c #556A35",
"w. c #586C36",
"e. c #53663B",
"r. c #556C3B",
"t. c #5A6D3C",
"y. c #5A673B",
"u. c #55713D",
"i. c #5C723D",
"p. c #5A743B",
"a. c #63683B",
"s. c #61733E",
"d. c #61793F",
"f. c #4E4540",
"g. c #5C5847",
"h. c #4F4E45",
"j. c #6E5A43",
"k. c #6A5B4B",
"l. c #685645",
"z. c #735C46",
"x. c #665A51",
"c. c #556C42",
"v. c #5C6E42",
"b. c #5E6A4A",
"n. c #5A6343",
"m. c #567141",
"M. c #5D7342",
"N. c #5E7943",
"B. c #5E734A",
"V. c #5D7949",
"C. c #5A6452",
"Z. c #636D44",
"A. c #646C4C",
"S. c #686849",
"D. c #736D46",
"F. c #74634B",
"G. c #627544",
"H. c #6A7446",
"J. c #647A45",
"K. c #6A7B45",
"L. c #64754A",
"P. c #6B744A",
"I. c #657A4A",
"U. c #6A7C4C",
"Y. c #72744D",
"T. c #717C4C",
"R. c #757649",
"E. c #656755",
"W. c #7C6C5D",
"Q. c #766659",
"!. c #657652",
"~. c #6C7654",
"^. c #637C50",
"/. c #6B7C52",
"(. c #6C7459",
"). c #6D7B5A",
"_. c #647C5B",
"`. c #727C54",
"'. c #737C5A",
"]. c #7B7E5D",
"[. c #777854",
"{. c #737867",
"}. c #7A7B73",
"|. c #815A2D",
" X c #855531",
".X c #837F5A",
"XX c #66814C",
"oX c #6D814E",
"OX c #6C824B",
"+X c #6B8047",
"@X c #73824D",
"#X c #6E8151",
"$X c #6D8252",
"%X c #6D815B",
"&X c #728353",
"*X c #748359",
"=X c #7D8259",
"-X c #758A5C",
";X c #798758",
":X c #6E8165",
">X c #7C8863",
",X c #7B9264",
"<X c #82865D",
"1X c #83895D",
"2X c #83827D",
"3X c #948C7F",
"4X c #8A966F",
"5X c #8D9886",
"6X c #999E83",
"7X c #979A8B",
"8X c #9F9B92",
"9X c #9BA489",
"0X c #9FAA9C",
"qX c #A7A79B",
"wX c #A9B696",
"eX c #A9ABA3",
"rX c #ADB2AC",
"tX c #B7B8B0",
"yX c #B2C198",
"uX c #B8C8A5",
"iX c #BCC8B8",
"pX c #C4D4AF",
"aX c #C4C9B6",
"sX c #CADABD",
"dX c #C9CCC6",
"fX c #DEE9D8",
"gX c #E3E4DE",
/* pixels */
"G.q.q.i.K.s.w.i.s.s.s.i.i.i.J.K.s.a.R.d.p.p.p.d.q.w.t.H.K.`./.G.Z.H.G.M.t.t.m.G.t.I.U.J.M.G.U.&XJ.G.",
"J.w.t.J.K.i.i.s.G.J.K.J.s.s.J.J.s.s.K.d.p.p.p.d.d.p.w.G.G.Z.t.v.t.G.G.G.i.t.M.J.m.I.I.I.G.P.P.L.H.L.",
"s.i.s.K.K.i.i.s.J.J.K.K.K.G.s.s.s.d.s.d.+Xd.p.XX+Xp.p.p.G.s.r.0.t.G.G.M.M.M.G.I.J.G.G.G.L.K.J.t.J.L.",
"s.J.J.J.s.w.i.K.J.I.U.K.J.J.J.s.K.d.p.s.XXp.N.N.XXXXXXN.J.J.J.K.G.M.M.N.i.t.M.I.L.G.N.G.J.L.G.i.J.H.",
"J.K.J.G.i.i.G.OXJ.J.J.J.s.G.J.J.+X+X+Xd.J.XXXXI.XXN.N.+XXXXX+X@XXXJ.N.J.G.M.G.U.J.J.G.M.v.M.G.I.#XU.",
"OXXXI.J.G.G.OX&XJ.J.G.t.i.i.G.K.+X+X+XK.d.XXU.V.I.-X,X;X@X+X@X+X$XI.L.I.I.G.I.U.L.H.G.G.t.t.G.U.;X-X",
"#XU.J.G.K.OX&X@XI.J.G.i.i.t.G.H.@XR.@X+XJ.N.m.,XwXuXpXyX4XK.d.K.$XXXV.L.K.G.I.&XU.I.L.J.M.t.M.I.;X&X",
"K.K.G.J.oX&X&XXXK.K.G.G.i.i.s.s.K.R.@X+XJ.m./.uXuX9X9XwX4XT.d.K.oXJ.m.J.I.G.I.#XU.U.I.K.J.v.i.M.U.U.",
"/.U.I.I.oX#X#XU.XXU.M.r.r.v.t.r.a.K.@X#XV.m.%XsXwX5X9X6X6X/.U.K.G.I.J.m.t.M.K././.K.J.G.L.G.L.G.J.J.",
"I.I.K.oX#XOXoXU.M.M.t.r.r.v.t.9.K.K.&X$XXXXX%XiXfXiXqXqXiX4X*X%XJ.U.L.N.t.t.K./.K.L.G.G.N.M.N.G.G.L.",
"L.I.I./././.U.I.G.G.G.G.G.G.M.t.s.T.%XV.^._._.5X0XdXgXrX8X)./.;X&XP.G.U.U.G.G.#XI.L.i.t.t.t.i.i.K.I.",
"G.M.M.L.U././.I.!.U.I.L.I.U././.U.K.V.^.V.XX:XC.h.rXdX{.C.A.'.*X*XU.U.;X&XG.I.OXI.J.m.t.t.t.v.i.G.G.",
"L.M.r.t.U./.^.L.L.G.I.U.U.I.I.U./.I.L.!.).(.(.E.5XtXiXeX{.g.].R.=XR.H.*X&XG.J.U.L.N.t.r.r.a.M.t.0.e.",
"I.v.r.v.U./.U.G.v.M.I.%X/.L.M.M.!.b.A.~.[.k.y u }.0XeX7Xg.5 T D.H.H.H.@X/.G.M.G.N.m.r.q.r.t.G.G.M.v.",
"G.G.L.I././.I.G.M.G.L.U.L.m.v.b.!.A.S.) + + # @ u 2XqXE.1 6 f d H y.P.P.H.G.I.N.M.N.r.r.t.G.J.H.K.U.",
"v.L.#X%X#XU.L.G.I.B.v.r.e.9.t.L.A.A.1 $ 4 a n B t 8XrXx.N Q ` P H H ! a.T.K.L.N.L.M.i.v.G.L.U.U.K.I.",
"T.&X%X#XU.U.`.*X%XV.c.c.7.7.c.A.g.5 - s s { { Z N 5XqXS.W | 2...#.K K H D.R.i.m.u.m.M.G.G.H.G.L.K.XX",
"K.K.K.U.P.K.U.&X$XXXc.7.B.n.A._ : - f E ` } } Q n -.k.W R } o.*.%.I I K ! D.Z.v.u.N.M.M.Z.t.v.M.I.L.",
"P.U.U.U.U.U.U.P./.B.m.v.c.b._ q , K P ' I [ ] ` j k W ! ] U ..Y X. XO.v U ,.D.a.m.m.N.m.i.u.m.G.J.L.",
"U.U.U.U.K.L.J.a./.I.L.M.Z.S.q $ f ] &.U ....[ x z k ,.-.` I |.Y X. XO.G o.] 1.P.s.p.m.N.i.G.J.OXI.I.",
"/.U.K.I.G.r.0.6.J.P.L.G.Z.~ - f x [ *.&.' ' o.E { A -.<.` ..*.Y X.*.O.G } o.R R.H.J.I.I.J.J.U.&X&X$X",
"/./.U.I.H.r.0._ a.y.G.P.a.: , z [ $.*.%.v L [ x } C ;.>.} o.|.Y $.*.O.+.G } z 1.`.#XXXXXXXJ.I.oXU.oX",
"U.#X#X#XL.G.Z.Z.y.G.P.A.S.= p ;.o...*.X.U Y [ J l z ;.} [ $.|.Y ..*.O.G  .F ! T [.@X#XXXXXV.I.U.I.K.",
"P.U.#XU.P.J.G.P.Z.v.~.Z.T & h 2.&.%.|...L U P P C x } } [ [ $.%...|...' `  .K ! [.T.U.XXI.V.V.XX/./.",
"T.U.U.U.U.I.G.v.G.A.!.A.8 8 Z z.*.|.*...P ] ` C { C >.5. .+.&.*.%.=...U ] ] E @.D.D.Y.U.J.L.G.U.&X`.",
"T.@X&X&XOXK.L.Z./.!.L.b.% 8 D 4.>.z.5.;.,.<.-.-.Q Z D :.;.j.3.3.2.3.#.#.@.@.Q T ,.[.H.Z.Z.v.b.P.&X`.",
"R.T.&X&XU.I.L.L.I.).!.!.% w N D Q.Q.k.k.Q.Q.x.g.g.S S f.x.x.k.W.W.x.x.W.g.^ M T w ].A.v.t.t.G.L.Z.H.",
"K.K.T.K.J.G.L.U.L.%X%X'.  = o . n p o 3 M i 2 @ S r @ u B # o N t # 7 S t @ 2 i ; {.Z.t.v.v.G.J.U.P.",
"T.K.J.G.v.M.L./.Z.I.).'.* 6 n C C l f h l h g d g 5 g R z f c x c c s l A h p k H .XA.G.G.G.v.Z.'.[.",
"R.H.Z.i.i.M.K.&XG.G.P.~.q k :.2.o.o.&...P ]  .E K V ,.3.]  .&.[ ..*...v }  .x z ,.<XG.v.m.M.v.Z.P.P.",
"`.P.M.i.M.I.U.U.Z.i.L.Y.q z } 2.$.&.&.[ v  . .x Q z @.3.] o.*.*.*.*.P P }  .{ | 1.=XZ.r.m.M.G.A.P.P.",
"U.G.i.m.L.U.K.L.q.G.H.R.q j { >.&.&.&.' I +.} x C z | &.[ [ O.*.o...L ' } ' l K ~ 1Xi.e.m.m.L.G.H.A.",
"r.u.m.m.J.L.XX$XN.v.Z.[.q d { >...O...I P ` ` x x l | 2.` P ........I v } F l z ~ 1X`.i.w.m.i.v.n.b.",
"r.u.m.N.M.G.U.$XV.M.Z.~.q g V F } [ [ ` x P x f z l | } v z ` P [ [ v v F C A ! ~ <XU.t.i.m.i.m.v.v.",
"8.e.t.w.0.r.M.I.L.N.G.A.* w n { F E } C z C R g m n Z Z V Z { E E E E C C A h k ~ <XP.v.t.i.t.r.Z.i.",
"N.L.!.K.I.J.U.OXm.v.L.A.* w n / z.z.j.j.z.F.k.l.) N Z ) 1.l.j.F.F.j.j.z.j./ N R m >XP.v.Z.Z.y.y.w.w.",
"L.U.%X&XoXJ.J.I.M.r.Z.A.% 3 + 4 D D b t ( ( i t f.r 2 S ( i B ) ^ y B D S 7 < M 1 ).!.b.M.B.M.n.i.p.",
"M.L.I.I.J.G.t.i.M.v.P.A.= & o + 3 0 # o 7 3 O @ r @ @ 2 7 @ O 7 < % # 7 2 # < < 1 '.).I.I.I.L.L.d.d.",
"^.V.XXXXI.I.J.G.t.v.`.[.& 3 b Z h A m h k g g b 4 4 b n n V V A j V n b a b 9 5 e >XR.K.K.K.J.+XJ.+X",
"^.V.m.m.N.J.J.N.t.v.~.].5 0 n b h f h d s a h 6 a 4 g n g g g h h h h a s a a q H =Xs.K.K.d.d.+Xi.i.",
"c.r.r.r.m.N.N.G.J.y.P.].= . 5 0 4 , p , 4 4 ; 3 3 3 0 9 0 0 a 6 4 p 4 4 4 3 ; & e ~.Z.v.G.U.M.I.m.p.",
"m.u.r.u.u.N.p.J.G.H.P.Y.* = * 8 5 5 5 5 5 5 5 7 < & 7 7 3 7 5 ; , ; , ; ; ; & & e `.U.L.Z.M.t.m.e.e.",
"V.V.b.t.t.i.N.J.J.G.t.`./.<X>X{.'.].`.`.`.~.'.~.(.(.{.(.~.(.'.~.D.Y.Y.[.'.].'.`.~.,X#Xc.u.L.r.8.r.c.",
"/.I.J.G.m.i.J.I.w.t.r.L./.;X'.T././.U.J.J.U./.).!.)._.!.A.!./.!.v.Z.G./.&X&X&X%X*X*X*XJ.m.m.7.7.b.c.",
"G.G.L.G.M.M.M.N.6.t.G.I.P.U.I.I.J.J.s.s.i.J.K.XXL.L.V.B.B.L.L.L.y.t.G.!.)./.).!.!.b.*X/.G.v.e.b.c.c.",
"b.t.i.M.N.N.m.i.r.q.i.K.K.U.J.G.+X+XJ.K.J.N.K.XX#X^.L.B.B.M.M.b.b.G.L.!.XX%X!.I.#Xv.P.K.G.b.c.L.r.r.",
"J.m.r.m.N.N.m.t.J.M.s.K.@XK.K.J.@X+XJ.J.J.p.G.L.$X^.B.c.v.b.n.e.M.M.i.M.M.L.M.M.i.q.s.i.w.i.r.N.t.r.",
"XXN.u.u.N.J.N.i.XXM.q.G.@X@Xs.K.s.w.p.d.d.p.m.L.^.L.c.c.B.B.B.v.s.p.u.i.m.u.u.w.i.i.p.6.6.s.q.r.M.m.",
"u.p.p.p.u.p.p.J.s.i.t.s.K.K.J.K.OXOXJ.J.N.w.N.i.J.L.XXXX^.B.m.m.m.G.M.r.e.u.M.M.i.I.I.i.G.t.M.J.9.e.",
"p.N.p.u.p.p.p.N.p.u.q.p.J.J.J.I.oX#XN.J.p.i.N.u.m.M.V.I.V.V.N.m.M.N.m.r.e.u.M.M.M.!.L.v.v.G.G.P.e.r."
};
