/* XPM */
static char *porte1648489252[] = {
/* columns rows colors chars-per-pixel */
"50 50 239 2 ",
"   c #3C2927",
".  c #3C3239",
"X  c #49291B",
"o  c #5C2B1D",
"O  c #5B2716",
"+  c #5D2E18",
"@  c #632C1B",
"#  c #682B17",
"$  c #6D311C",
"%  c #7A381D",
"&  c #60230E",
"*  c #452C25",
"=  c #592C22",
"-  c #58332A",
";  c #573935",
":  c #463535",
">  c #622D23",
",  c #633325",
"<  c #66392B",
"1  c #793B27",
"2  c #643C35",
"3  c #783E30",
"4  c #481F19",
"5  c #565433",
"6  c #66453B",
"7  c #7A4634",
"8  c #754428",
"9  c #556B36",
"0  c #53653A",
"q  c #546B3B",
"w  c #5B6D3C",
"e  c #576639",
"r  c #5B723C",
"t  c #57723A",
"y  c #4D6439",
"u  c #61733E",
"i  c #62793F",
"p  c #443A45",
"a  c #5B4E46",
"s  c #694947",
"d  c #724E4D",
"f  c #6C514D",
"g  c #78524A",
"h  c #6B5558",
"j  c #735353",
"k  c #795A5B",
"l  c #6F4F50",
"z  c #5B6D42",
"x  c #596A44",
"c  c #5D7343",
"v  c #5D7945",
"b  c #5E7349",
"n  c #5E7A49",
"m  c #567242",
"M  c #626D45",
"N  c #636E4A",
"B  c #696F4D",
"V  c #637444",
"C  c #697645",
"Z  c #637A44",
"A  c #6A7A46",
"S  c #63744A",
"D  c #6A754B",
"F  c #657A4B",
"G  c #6B7C4C",
"H  c #717D4D",
"J  c #6B7554",
"K  c #6C7D53",
"L  c #687656",
"P  c #727D53",
"I  c #747C5C",
"U  c #767756",
"Y  c #6F6756",
"T  c #765E68",
"R  c #6C5A64",
"E  c #7B666E",
"W  c #79656A",
"Q  c #757B65",
"!  c #7E6B73",
"~  c #7B6770",
"^  c #7F7678",
"/  c #83381D",
"(  c #843B24",
")  c #924D17",
"_  c #A6551C",
"`  c #894627",
"'  c #954A2B",
"]  c #97552A",
"[  c #854936",
"{  c #8C5638",
"}  c #9A5736",
"|  c #885422",
" . c #A65924",
".. c #B65929",
"X. c #AA5E39",
"o. c #A55B36",
"O. c #AD5332",
"+. c #B6672C",
"@. c #AB6339",
"#. c #B86737",
"$. c #B57035",
"%. c #C56C39",
"&. c #C4743C",
"*. c #C57B3C",
"=. c #C9773A",
"-. c #D27E3E",
";. c #976D50",
":. c #AE6943",
">. c #B86B45",
",. c #B97848",
"<. c #A67758",
"1. c #846A6C",
"2. c #846C73",
"3. c #8A7375",
"4. c #857679",
"5. c #987A72",
"6. c #986453",
"7. c #C76841",
"8. c #C37444",
"9. c #CD7D44",
"0. c #CC7C4C",
"q. c #C87845",
"w. c #D17D46",
"e. c #D37845",
"r. c #C47756",
"t. c #6B834D",
"y. c #668248",
"u. c #6D8252",
"i. c #6A8453",
"p. c #728354",
"a. c #75845C",
"s. c #70814B",
"d. c #7B8666",
"f. c #D1823F",
"g. c #848B6C",
"h. c #858A76",
"j. c #8D9579",
"k. c #939A7B",
"l. c #92986C",
"z. c #BF916E",
"x. c #AA825E",
"c. c #CE8144",
"v. c #CD834B",
"b. c #CA864C",
"n. c #D28445",
"m. c #D58A46",
"M. c #D4844A",
"N. c #D58A4C",
"B. c #D98C4D",
"V. c #D9854C",
"C. c #CB8A54",
"Z. c #D58B53",
"A. c #DB8D53",
"S. c #D48959",
"D. c #D59253",
"F. c #DC9455",
"G. c #DC945A",
"H. c #D5955C",
"J. c #D69354",
"K. c #E3945B",
"L. c #E39A58",
"P. c #E0964F",
"I. c #E5A15B",
"U. c #C98B64",
"Y. c #D89665",
"T. c #C9976E",
"R. c #E49A65",
"E. c #DAA570",
"W. c #E7A267",
"Q. c #E4AC71",
"!. c #8C7983",
"~. c #8E8782",
"^. c #968589",
"/. c #969B86",
"(. c #99958E",
"). c #A69899",
"_. c #B19F9B",
"`. c #9CA38A",
"'. c #9BA485",
"]. c #A3A68D",
"[. c #A8AA98",
"{. c #ADB39A",
"}. c #B2B99E",
"|. c #B0AD96",
" X c #A89BA3",
".X c #B19EA4",
"XX c #ABA5A1",
"oX c #B7A9AB",
"OX c #B6B6A9",
"+X c #B9ADB4",
"@X c #BDB7B6",
"#X c #AEB2A1",
"$X c #C4BBBA",
"%X c #C9BAAB",
"&X c #BEC2B2",
"*X c #BEC6A9",
"=X c #C6C6AA",
"-X c #C8C8B7",
";X c #DAC6B9",
":X c #CCD3BB",
">X c #D6D6B9",
",X c #E2D4BB",
"<X c #C5BCC2",
"1X c #CDC3C5",
"2X c #CCC9C4",
"3X c #D6CBCD",
"4X c #D5C9CA",
"5X c #D5D4CD",
"6X c #D8D8CA",
"7X c #DBCED3",
"8X c #D4CDD1",
"9X c #D5D3D3",
"0X c #DCD4D3",
"qX c #DDDCD3",
"wX c #DDD5D9",
"eX c #DDD9DB",
"rX c #D7D7D7",
"tX c #CED5C3",
"yX c #E1D5D5",
"uX c #E2DCD4",
"iX c #E1D5DB",
"pX c #E2DBDC",
"aX c #EADEDC",
"sX c #E1DDCF",
"dX c #DDE0D3",
"fX c #DCE1CA",
"gX c #E3E2D6",
"hX c #E4E2DB",
"jX c #EAE3DC",
"kX c #E8EBDA",
"lX c #E8F0D9",
"zX c #DDDAE1",
"xX c #E4DCE2",
"cX c #EBDDE3",
"vX c #E5E1E4",
"bX c #EDE2E4",
"nX c #EBE6E7",
"mX c #F2E7E9",
"MX c #F9F0F0",
/* pixels */
"v q 9 u C C w w n v t r i r Z i r i C C i u r Z t 9 q c F F K b c u V V w z c v z F F Z V V G H V V ",
"v m r C C u w u v n Z A i u Z V Z t C i r r r y.c r r c m c w e w S V V z z V V c F Z v V V Z V V A ",
"v c i A i u u u F m C H G H N V Z i i i r y.Z v t.Z v V C V z 0 V S b b c w F F Z V C V F G V r V C ",
"V V C C u 9 u i Z G G H e B B J V G c V F Z F F G F V V z S U K D e z n c w c v V V V c V F V m F V ",
"A A A V u t Z t.V F C M g.OX:X:X`.d.b N L L S L I a.g./.{.=X*X|.`.d.K v v t Z Z C C M V M w m F u.p.",
"s.A A V M C t.t.H M M U =XnXjX2X[.Q /.[.[.&X-X2XtXqXkXgXjXmXbXuX#X#Xa.L i.v F G C C D M z w n F a.a.",
"s.A C V i.i.t.t.V a.U Q [.+XXX(.h.d.@XtX&X2X5XqXuXaXjXjXaXpX3X$XXX/.L x L m Z u.G G D C V z c F p.p.",
"y.C c S i.i.t.y.g.>XfX:X2X3X<X1X-X+X@X@X#X).(.[._.XXoX@X+X%XoXXXOX(.XX}.{.'.a.p.P D D G S m m v y.y.",
"A A G G i.i.K S k.kXsXuXzXzXrXwXyXyXuX7XuX3X$XiX3X4X1X$X1X1X3X7X7XiXhXqXdXfX:Xa.G p.S V F V Z C C V ",
"Z y.G K L i.K S `.6XuXjXvXvXxXbXaXaXaXuXjXaXyXiXwXwXpXpXpXiXpXxXcXiXiX0X6XgXkX[.S S m c c m c V Z S ",
"v V S K I K K S ].uX0XxXzX X!.).oX%X$X4X4X3XyXyXwXwXpXxXeXpXxXxXyXyXiXbXbX0X6X:XL S m 9 w t w z A F ",
"v c w S K K G M |.pX9XnX@Xh 6 2 - ; 6 d k W 1.1.1.3.3.3.3.4.3.3.2.3.3..XMXpX5XtXQ b r t w w z z c c ",
"v m e M D K G b {.pX8XvX Xa , @ # @ & O o @ O @ > , , > < , > - - 6 k !.xXwXrXdXh.x r q w w V z e 9 ",
"n c w M F i.G z OXpXrXcX).s @ o.:.X.` ' ' ' ` ` / ( / / % ( ( ` 3 - j 3.iXzXrXdX/.q 9 9 9 t c V b c ",
"v Z V H K G F b -XrXeXnX^.2 / 0.R.w.) ..#.q.8. .X.q.8.q.] r.0.:.[ > g 3.7XzX9XrX].x w t w u F F G t.",
"r Z s.a.K F F S OXhX8X1X3.2 / R.K.-.) M.V.K.A._ =.K.K.B.) K.G.#.} < [ 2.<XxX8XkXOXM u u i Z L K S C ",
"K s.p.G G D C j.uX0X7X4X1.< ` R.K.w._ L.B.L.N._ *.F.I.L._ D.G.,.X.@ d 1.<XcX5XdX#Xx S S V r V F J F ",
"G G G G G K H ].sX0XiX7X2.< ` K.A.w. .K.m.m.B._ 9.D.I.I.) m.A.q.X.$ d ~ $XcXqXdX~.x L v 9 9 c b Z F ",
"D A G G F G D |.uX0XxX8XT - { Y.L.*. .F.P.P.K. .&.R.L.L. .A.M.9.X.$ d E oXmXeX6X$XL c r t r V V V b ",
"G G A G F D e {.gX8XxX<XR ; { C.b.v.o.A.L.R.R.:.,.E.I.I. .w.L.M.X.# d 2..XcXrX5XqXd.x Z Z r Z K t.F ",
"A C C C M M 5 ].hX8XzX<XR ; 8 | | | o.D.D.Q.<.s 8 <.E.D.+.M.W.b.X.# d T oXvX9X5X6X/.S F c Z G u.u.u.",
"H H A C V w 0 `.uXrXvX@XR - 8 ] | | @.Y.E.x.* :   X ;.Q.+.B.R.b.X.$ d T .XbX6X6XdX[.K F Z Z i.G K t.",
"H P H A D V z /.rXrXvX+XR - } Y.T.Y. .Y.T.s   p .   5 U.+.F.F.D.X.$ l T ).cXqX5X6X{.i.i.y.v Z K F S ",
"C H H H G S M k.qXrXzX+XR * } Q.H.H.+.T.g.; : p .   * ;.,.m.I.F.:.@ s ! ^.nX0X5XdXOXL i.F Z F F G K ",
"H H A G G V B g.sX0XaXoXj = o.G.J.H.+.Y.g ; : : . .   7 b.b.D.D.X.# s ~ ^.mX9X5XqXOXz F F Z b K p.p.",
"H p.p.p.P G M J -X0XjXoXl o @.R.D.J.$.Y.7 *   ;     : + ,.b.I.D.X.# d 1.^.cX0XrXhXh.L V t r v F P P ",
"D p.p.K P G M U -XyXjX_.f o o.R.D.H.$.H.{ 8 6 - * X + 8 ,.D.H.H.:.# s W ^.mXxXxX@XY N z e q c D V N ",
"G G G A S M B j.sXyXaX_.j o ] L.D.D.$.Z.T.T.T.<.;.z.z.T.b.D.b.E.@.& l ^ ^ +X<XvX2X/.x w c c V S G D ",
"G C Z V c w N /.uX3XbXoXj o ] L.f.P.f.m.Y.S.R.$.$.H.H.D.*.J.m.P. .# j W !.wXwXqXeX6Xa.q V r V S p.U ",
"G A V w V V M ].qX5XbX$Xj = ] F.f.f.$.D.N.M.B.=.c.D.b.C.b.D.m.L.@.& f W !.pXeX9X5XdXj.q V e z N D H ",
"H C u e V K D ].uXrXcX$Xh - ` Z.N.D.*.P.N.N.b.f.f.D.B.m.f.F.f.D.o.& h ~ 4.xXxX9XqXsX/.y r c M z D D ",
"C u V w V G S '.qX0XxX$XE - % S.b.A.*.N.m.m.D.*.c.b.D.n.m.m.m.H.o.O l ! 4.iXuX5X0XgXk.0 M r S S D B ",
"z m w w m i.v ].gX3XcX8XE - 1 r.S.A.#.V.M.M.V.9.v.c.v.M.c.m.M.G.} @ j ~ 4.eXuX0X0XgX/.w t u i e z z ",
"x m c c v n F j.uXyXmX<XT ; # r.S.S.#.9.A.0.M.n.M.M.M.m.c.n.N.G.' o j ~ ^ qXwX0X0XgXk.z u w u M z z ",
"y 0 w 9 q q m a.$XyXxX@X~ 6 & >.U.S.>.,.M.M.V.=.f.n.m.n.c.n.M.S.( O T 2.^ eXpX7X0XhXj.x c r w e V w ",
"m b F Z v m F g.>X7XxXwX4.s > [ { | ] ,.v.0.M.q.-.f.f.c.9.v.V.b.( O 1.2.4.eXxXeXiX$XL b w e x M w w ",
"S K u.u.i.F F '.uXwXzXnX~.s , % ` % | ,.0.0.V.=.w.w.w.M.9.v.V.r.% > 6.E ^ eXpXiXzX2XQ N b m c z t t ",
"b b G t.n n y /.qX0XwXxX(.f + 7 :.r.$.#.0.0.0.%.=.9.9.w.q.q.0.>.$ , k E 4.iXpX0XzXdX/.b F G Z V i i ",
"F F F F F S b j.gX7XzXmX).j - 1 >.7...%.A.e.e...=.e.q.w.#.%.=.>.# < k W ~.pXwXwX8XrX`.S i.F V t.A y.",
"F n c c F n S d.6XwX9XmX+XT ; $ 7.7.....7.e.e...%.w.=.e.....%.#.# 8 1.1.^.cXyXwXwXdX}.S F Z Z Z r r ",
"t q q q b n F Q 6X0X0XmX$XT s > O.7.O.O.7.%.7._ %.=.q.7._ %.7.O.@ 2 1.2.(.cX0XwX0XqX*Xb F D V V m m ",
"t t q q x b S L -XuX3XmX<X1.d > [ O.( O.7.7.%._ &.8.#.>.' >.>.} > d T T ).mXwXwXwXqX-XN z F V t q q ",
"v r t q m x V B =XgX5XbX3X1.j = = 8 / % ( ( ' / ' o.} O./ ( ( 3 4 p !. X+XxXeXrXrX6X-XK z V 0 y y q ",
"Z v Z v x b S V `.lXkXjXMX).Y k ;.;.;.{ [ [ [ 3 3 3 3 ( 3 6.6.6.5.!.3XxX<X@XrXrX2XkXtXK x M 0 9 q x ",
"v Z F v m b S V N j.}.=X-X].U U l.|.=X,X,X,X;X4X;X;X;X;X-X%X%X%X%X_.@XoX-X@XqXnXkXlX*XK N b e q q m ",
"r m V m b b r r 0 e x J P J H u Z Z u i I g.j.j.~././././.Q L Y k j.].].{./.`.}.[.g.K S B x e b q y ",
"V m z x b F r t w V V G a.G u u A s.C G G V b S L b x y x x x x N D S I J S z x x y r V w M r c 9 m ",
"F Z w m F F r r u.r t V t.t.Z A u u 9 V V w m n i.n m x m b x x z V M z z z S z m w V 0 e V 9 t m c ",
"r Z v t r v r y.i t t Z A G y.G y.G u Z c 9 v c v F n F n v b x b c c e e z m v w F V w z z z V 9 q ",
"t v r t r r t i r t 9 r C Z Z Z y.t.v C Z 9 c c v v F n n v m m c b m q q q c b z G G z w M V F y q "
};
