/* XPM */
static char *_8a731b69513496c87cc001bddfe97e0vcXJ7RhD0pSrXHFC[] = {
/* columns rows colors chars-per-pixel */
"50 50 245 2 ",
"   c #5A6619",
".  c #5D6D14",
"X  c #716C08",
"o  c #656D1B",
"O  c #6A751B",
"+  c #77771A",
"@  c #767E0E",
"#  c #57692B",
"$  c #5E7228",
"%  c #4E673A",
"&  c #526636",
"*  c #556B36",
"=  c #596D35",
"-  c #556C3C",
";  c #5A6D3C",
":  c #576739",
">  c #5C7235",
",  c #56723B",
"<  c #5C723D",
"1  c #5D793E",
"2  c #557137",
"3  c #4F6222",
"4  c #646C23",
"5  c #626C2C",
"6  c #606724",
"7  c #6B7224",
"8  c #64722A",
"9  c #6A732D",
"0  c #6B792B",
"q  c #6A7825",
"w  c #747B25",
"e  c #7B7D22",
"r  c #787B2A",
"t  c #686F38",
"y  c #647435",
"u  c #6A7633",
"i  c #61743E",
"p  c #69753A",
"a  c #687A3B",
"s  c #727734",
"d  c #566D41",
"f  c #5C6E42",
"g  c #5D6E48",
"h  c #5D7343",
"j  c #5E7943",
"k  c #5E7349",
"l  c #5B7547",
"z  c #626E45",
"x  c #627544",
"c  c #647A44",
"v  c #6A7B45",
"b  c #64754A",
"n  c #6A754C",
"m  c #657A4A",
"M  c #6A7C4C",
"N  c #687643",
"B  c #717D47",
"V  c #6C7D51",
"C  c #667C55",
"Z  c #717D52",
"A  c #857C19",
"S  c #AA7E00",
"D  c #CF7F00",
"F  c #7C821E",
"G  c #7C8326",
"H  c #678047",
"J  c #6C814D",
"K  c #68824A",
"L  c #73824E",
"P  c #748144",
"I  c #6D8252",
"U  c #698156",
"Y  c #718354",
"T  c #758659",
"R  c #87861A",
"E  c #958A1D",
"W  c #949619",
"Q  c #AA9519",
"!  c #B49006",
"~  c #BBAB1C",
"^  c #BBA212",
"/  c #848528",
"(  c #98982C",
")  c #878632",
"_  c #958D37",
"`  c #929335",
"'  c #899031",
"]  c #A39624",
"[  c #A49A3A",
"{  c #A08720",
"}  c #B9A827",
"|  c #B8B529",
" . c #ABAB3D",
".. c #A6A838",
"X. c #B5AC3B",
"o. c #B7AA37",
"O. c #BFB031",
"+. c #ABA221",
"@. c #C88700",
"#. c #D78C04",
"$. c #CF9900",
"%. c #D39500",
"&. c #DA9500",
"*. c #DD9C00",
"=. c #D5970B",
"-. c #D59E10",
";. c #E49501",
":. c #EB9501",
">. c #E49B02",
",. c #EB9A02",
"<. c #ED9B0C",
"1. c #E29E0D",
"2. c #F39704",
"3. c #E69D17",
"4. c #CEAB03",
"5. c #D7A501",
"6. c #DBA300",
"7. c #D4AB02",
"8. c #DBAA02",
"9. c #DBAB0C",
"0. c #D7AA0E",
"q. c #D5B202",
"w. c #DBB200",
"e. c #D0B30D",
"r. c #C7AB15",
"t. c #D8AB16",
"y. c #CCB31A",
"u. c #D7B716",
"i. c #CDB300",
"p. c #E4A300",
"a. c #ECA402",
"s. c #E2AD01",
"d. c #EBAB02",
"f. c #E7A50B",
"g. c #F1A504",
"h. c #F4AC04",
"j. c #F4AD0C",
"k. c #F5A70C",
"l. c #E4B301",
"z. c #ECB401",
"x. c #E5BC01",
"c. c #EBBB02",
"v. c #EABC0B",
"b. c #E4B90A",
"n. c #F3B402",
"m. c #F4BB01",
"M. c #FBBB02",
"N. c #F3B30C",
"B. c #F5BB0D",
"V. c #FABB0B",
"C. c #F9B507",
"Z. c #E4A414",
"A. c #E5A61B",
"S. c #E4BC16",
"D. c #F4BD12",
"F. c #F9B315",
"G. c #D39D23",
"H. c #C4AD2B",
"J. c #CAB627",
"K. c #D3BE2C",
"L. c #D7B625",
"P. c #C9B638",
"I. c #D8BA35",
"U. c #C7AF31",
"Y. c #E9AA27",
"T. c #E3B627",
"R. c #F2BB2E",
"E. c #DCC100",
"W. c #D1C012",
"Q. c #ECC500",
"!. c #ECCB00",
"~. c #E9C405",
"^. c #F4C401",
"/. c #FBC402",
"(. c #F4CB01",
"). c #FCCC02",
"_. c #F3C30A",
"`. c #FBC50D",
"'. c #F4CB0C",
"]. c #FCCD0A",
"[. c #FCD202",
"{. c #FCDB02",
"}. c #FED40C",
"|. c #FFDB0A",
" X c #F6D504",
".X c #ECCA17",
"XX c #ECC81B",
"oX c #F5CD14",
"OX c #FFCD12",
"+X c #FAC71A",
"@X c #FFD412",
"#X c #FFDC13",
"$X c #F4D219",
"%X c #FAD31B",
"&X c #FFDC1C",
"*X c #F5D417",
"=X c #EBD213",
"-X c #FDE403",
";X c #FEEB03",
":X c #FEE20C",
">X c #FFEC09",
",X c #FEF806",
"<X c #FEF40B",
"1X c #FFFB0B",
"2X c #FEF306",
"3X c #FFE214",
"4X c #FFEA14",
"5X c #FFEE1A",
"6X c #FFF41A",
"7X c #FBF715",
"8X c #DAC43A",
"9X c #D1C930",
"0X c #F4CB25",
"qX c #F3D42C",
"wX c #F6D524",
"eX c #E6CA36",
"rX c #EDD732",
"tX c #F7D839",
"yX c #EDCA27",
"uX c #FEE423",
"iX c #FBE12C",
"pX c #FFE922",
"aX c #FFFE20",
"sX c #F8E437",
"dX c #FCFA36",
"fX c #9DA445",
"gX c #B7A84C",
"hX c #B3B550",
"jX c #C7B847",
"kX c #D4BD4B",
"lX c #CBC746",
"zX c #DCC241",
"xX c #D9C649",
"cX c #DECF50",
"vX c #E3C944",
"bX c #E4D74A",
"nX c #E5D353",
"mX c #FDEA43",
"MX c #FDF349",
"NX c #F2E653",
"BX c #FFF957",
"VX c #EBE850",
"CX c #FFE368",
"ZX c #FFF470",
"AX c #FFF660",
/* pixels */
"x = * < c i = < 1 i 1 1 < i x H 5 a c G . W W.E.i.i.7.4.q.^ + t z n b l - f g k f n J v > 1 J U j b ",
"x ; = c v i > < i x a i i i x a p u , 2 ..VXsXpXuX$XoX*X%XeXjXA 5 i c h h d g b h b v N a i k C b M ",
"x 1 x v c < < N x c M v c c i i c > 8 ( MX5X}.^.@X@X}.}.(.oXqXzXR 4 , l h f b m x c x x c H k d c x ",
"x x c c < = < v c v v v c i i c N 1 F VXuXc.x.z.l.^.(.(.[.(.(.wXP.+ $ H f ; N c j x x z x c j k j b ",
"M c c N < = x I m v x x < x x m J 0 | MX~.c.C.M.n.m.^.).).).).].qX+.q c i i c c j j z z h < h b I I ",
"J J M x x N J Y c c x < ; i c M v G VX=Xc.m.h.h.g.a.z.}.)./.[./.oXeXG y a < K H j j n b < = j V T T ",
"J M c x M J I I m c x h < f x a 0  .sX!.z.C.h.h.h.h.d.`.|.^.).].).qXX.0 v N H K H c m m h - x m T T ",
"M c j c J Y I M M m x x ; < 1 y O lX*XE.c.n.C.h.g.h.a.V.@X}././.[.'.xXe u M j K H c m b x > < b M M ",
"K M c M M I V m V m h - * ; f # F bX.Xc.m.z.B.d.j.a.k.z.}.{.).).[.).tX( 3 x K m M M b x x N x x c m ",
"c m m M J J I M x h f ; ; ; ;   W tX.Xz.m.z.].m.a.a.h.z.[.{.[.).[.`.0XH.7 i j K M m x h < i x z x x ",
"x x m M V U V M b x x x j x < . | uXv.C.N.d.3X(.d.h.h.z.(.:X(.[.).).oXR.) t k J m x h < ; < i ; M x ",
"c h h c M U M m m V x m c M v w 9X=Xz.C.j.c.4X{.p.C.n.z.^.|.[.).).).).qX[ u c U n x ; = ; = < ; x x ",
"c h - f n I V k b m m M M v x G iX!.z.C.z.(.<X;Xs.z.n.n.c.#X[.(.).).).wXX.7 c K m x f ; : i ; < & & ",
"m ; ; h M V n h f h M M K c * ' sX~.m.n.c.{.<X<Xx.d.n.m.^.#X|.(.[.).).oXP.+ a v x h f : ; f h < ; x ",
"x x x m V U m b h h x c c i # fXtXc.m.z.w.4X,X1X(.s.M.C.~.@X|.(.).).[.oX8XA 8 x j h f : z z j j M M ",
"h m M Y V n m m n x h * * * 3 hXqXc.z.z.~.6X,X1X{.w.m.M.m.].#X(.[.).).%XeXE 9 x j l f z x m m H c M ",
"J I I L V V V Y Z b ; - % &   jXqXc.l.x.-X<X1X2X<X!.c.m.).).#XQ.).).].'.yXQ   b d l j x h x x b m m ",
"M M K M V n V I Z b ; ; % # . lX0Xl.c. X>X;X;X,X7X|.(.Q.m.^.@X^.].].].'.=X^   d f h k k h - f b x b ",
"n m M M n V V n V b x f , * o lXS.m.}.:X-X-X-X;X-X>X|.^././.}.Q.)./.).'.=X~ $ h d h j h < ; h x x m ",
"M M M c n b z h n n b h , > + cXA.`.#X|.{.-X-X{. X:X#X@XM.m.].^./.).].].*XJ.7 l d h x x h x m V M M ",
"Z M M N i ; : & b b b x h y F nX9.d.}.[.[.{.{.[.{.{.}.@X6.z.`.^.^.).).'.*XJ.7 h k j v b j m M Y I I ",
"Z M v c x = & & ; g b x c u G bX9.p.).[.[.).).).[.[.).`.@.z./.M.M.).^.'.*XK.9 x M V U M K c M U M M ",
"Z Z L v N < h f g z b x x u R vXZ.>./.).).).).).(.[.@Xl.%.D././.M.^./.'.oXK.7 b C J I J m j m n M n ",
"n M L J N x j b g g C z j u R zXZ.;.n.].].)./.].).).%X%.6.h.M.M.M./.^.'.oXK.o f c b K J K c m V V M ",
"Z Z B v M x j h b g b C n p R I.Z.,.d.OX).).`.).).).+X%.N.d.M.M.n.^./.'.oXK.7 f < x m c j l b n Y Y ",
"Z Z Y B B v x x C b n z x u A I.1.>.p.OX).).).).).).+X%.N.f.C.C.m.m.m._.$XK.7 : h < x j > h b m Z Z ",
"Z Z Y L v m c b C n V m M u + 8X1.,.p.`.).[.).).).).d.&.N.a.M.m.m.m.m._.$XJ.7 d h ; < ; - f x n x n ",
"n Z B v N h c m m V Z V M u R kX1.,.>._.[.[.(.(.[.[.*.*.j.a.V.n.z.c.^._..XJ.7 h d h h < < h h n n M ",
"n M x x z z x V x n V n n y e vX1.,.>.`.[.{. X X[.}.%.>.k.a.V.z.d.v.m.~..X~ 4 d , h h h h h h b Z Z ",
"Z n i i f b n V b n n x k t r kX1.:.*.OX{.{.{.-X{.}.%.1.k.g.B.d.z.z.v.v.$X} 4 - - , ; ; , f f f n n ",
"B b i ; b n V M x z x x b i r kXZ.:.*.@X4X-X>X;X-X3X&.<.:.a.B.l.s.b.x.v.XX} 9 f d d - < h h f z n n ",
"M x ; h m U n m f ; z c I v w jXY.:.*.&X4X>X2X>X2X4X&.:.;.p.B.8.s.z.x.b.XX} u b l , < f f k z n z n ",
"; d 1 h c m V I x f z N v G p gXY.;.*.&X7X1X<X<X,X7X%.;.,.<.D.7.s.l.b.b.yX] s z f x x z f d l f g g ",
"= d < < < c M U b z b B B B u gXY.,.*.&XaX7XaX7X7X6X%.:.:.p.+X7.8.w.w.b.T.{ t z , 1 b x f h h f f g ",
"% - - - - , l M x f x v B a 5 [ R.;.p.wXdXdXdXdXdXsX*.:.;.j.b.4.7.w.w.S.I.A 8 h , l h f h f < - f h ",
"l j m m c j m J k f i z p i t _ R.;.6.tXMXMXMXBXBXBX#.;.;.j.v.4.q.w.w.u.o.+ > 1 = h k k < = ; = ; = ",
"b K U I K K b m x ; < x N a v _ T.g.6.tXAXL.S t.ZXCX#.3.:.F.l.7.9.7.w.u...8 i l k k k j j < i = > , ",
"l j m K b j < ; < ; i v M v v ) I.6.f.mX-.! 3.=.G.CX3.;.>.C.s.7.7.7.w.y.` y K M C m k m m N N N c 1 ",
"C m k m m m j 1 = h x J B N v 9 U.T.A.@.@.F.k.k.#.#.D <.d.D.8.6.9.7.q.~ w j C U V b l j M c N M j H ",
"m k l l j b c j ; x M Y V x i 4 ] eX-.Z.F.k.g.g.<.;.#.&.z.B.6.9.8.9.e.} 4 - C C V x h j v N n m l , ",
"- - - d f j b c x < x M v c j s R vX9.d.d.z.d.a.:.<.<.>._.l.s.5.s.7.H.( 5 C C V m = , > b n x b d d ",
"h h d - f h j c x i i c J J V L + zXS.z.z.d.a.>.:.:.>.>._.7.5.6.5.0.O.A a Z V V v j x ; i x h d d % ",
"j k l d - h x m x j ; N J T T L s gXwXq.z.d.f.,.:.:.,.V.~.7.5.8.5.u.[ s Z Z M L H H J x ; h d % d d ",
"k b k h h h x m > = ; i M Y Y M a G sX~.s.a.,.:.2.:.,.+Xq.7.9.9.e.U.A N Z Z B v K K Y m f f % % d d ",
"j j l l j k k h : = > x v K n c j O 9XsX6.p.2.:.2.:.j.V.7.q.7.r.U.{ u n V J J c M c I n x f - f d d ",
"j l , j b k j ; = ; i v M v m c K G F VX0Xp.,.:.:.k.+Xl.w.7.0.J.o.+ u m M J v c c h b n x ; - l , % ",
"j , d l k b x ; x i i v L M m c v a O gXmXv.d.a.n.V.V.7.7.4.y.H.) 5 i 1 1 x k h h f x ; ; h * < - d ",
"c j < < k b x h n i = v v v v v v > y O | tX0X+X0X0Xe.e.t.J.o.A 6 c = > * , f - f f z : : h = , h ; ",
"2 j 1 , , 1 1 i 1 = ; x c v v K H H i a w ( lXP.U.o. .X. ._ s # i x f - & , h l f m b z ; f ; b - - ",
"2 1 1 2 1 , 1 i < * * 1 x N x v L v j v 2   + X X O w w 0 5 = h h j h - - d h h f m b h f z x x - - "
};
