/* XPM */
static char *_c49132a691248aaf951b9c93ec089deO3KUGcIWd6ywsyNw[] = {
/* columns rows colors chars-per-pixel */
"50 50 190 2 ",
"   c #666C0C",
".  c #6B6F10",
"X  c #6E7314",
"o  c #67711A",
"O  c #6B7119",
"+  c #727516",
"@  c #727618",
"#  c #77781A",
"$  c #7C7D1F",
"%  c #5C6722",
"&  c #5E6B27",
"*  c #5E6B2E",
"=  c #4F6637",
"-  c #4F693A",
";  c #536437",
":  c #556936",
">  c #5C6C33",
",  c #536639",
"<  c #556C3C",
"1  c #5A6E3D",
"2  c #557137",
"3  c #5D7134",
"4  c #57723C",
"5  c #5C713E",
"6  c #5D783E",
"7  c #626E2B",
"8  c #616D23",
"9  c #6A7423",
"0  c #6F7C22",
"q  c #65732E",
"w  c #69732B",
"e  c #6F7A2B",
"r  c #797627",
"t  c #747A23",
"y  c #7A7C25",
"u  c #757C2A",
"i  c #7C7D29",
"p  c #73772B",
"a  c #626F33",
"s  c #616F3B",
"d  c #637434",
"f  c #6C7533",
"g  c #6D7833",
"h  c #62743D",
"j  c #6A763A",
"k  c #647A3C",
"l  c #6B7B3C",
"z  c #637833",
"x  c #717734",
"c  c #737A33",
"v  c #747A3C",
"b  c #576743",
"n  c #586645",
"m  c #556D42",
"M  c #5C6E42",
"N  c #5D6C48",
"B  c #567242",
"V  c #5D7342",
"C  c #5E7946",
"Z  c #5E7449",
"A  c #5D7949",
"S  c #627544",
"D  c #697742",
"F  c #647945",
"G  c #6A7B45",
"H  c #637649",
"J  c #6A744B",
"K  c #657A4A",
"L  c #6A7C4C",
"P  c #707F46",
"I  c #737E4C",
"U  c #667C50",
"Y  c #6C7E51",
"T  c #727D52",
"R  c #807F22",
"E  c #7C8623",
"W  c #72833F",
"Q  c #7E8333",
"!  c #6F8547",
"~  c #66814E",
"^  c #6C814E",
"/  c #788446",
"(  c #72834D",
")  c #7A8448",
"_  c #748549",
"`  c #6D8251",
"'  c #728353",
"]  c #748857",
"[  c #778959",
"{  c #798D5C",
"}  c #81861C",
"|  c #978312",
" . c #B2960F",
".. c #BD9A0A",
"X. c #BFA000",
"o. c #83842D",
"O. c #89862B",
"+. c #8C8A2C",
"@. c #928F2E",
"#. c #97932F",
"$. c #9A942F",
"%. c #878530",
"&. c #8D8B33",
"*. c #928F32",
"=. c #959435",
"-. c #9C9731",
";. c #979830",
":. c #9C9C32",
">. c #B09F29",
",. c #A59F3D",
"<. c #A99E35",
"1. c #9FA136",
"2. c #9FA038",
"3. c #B7A42E",
"4. c #BDA92C",
"5. c #A6A237",
"6. c #A2A039",
"7. c #A9A339",
"8. c #ADA93D",
"9. c #AAA237",
"0. c #B8AF36",
"q. c #B0A43B",
"w. c #B4AA3D",
"e. c #B5AC35",
"r. c #BAB13A",
"t. c #BEB335",
"y. c #C39D00",
"u. c #D5AC03",
"i. c #DAAE03",
"p. c #D7AB0A",
"a. c #D9AE0B",
"s. c #DDB102",
"d. c #CCAD1E",
"f. c #C1A61B",
"g. c #CCB31D",
"h. c #D8B71E",
"j. c #DDBA1E",
"k. c #E3B402",
"l. c #E9B500",
"z. c #ECBA02",
"x. c #F3BE01",
"c. c #E2BE1B",
"v. c #C4A725",
"b. c #C6A924",
"n. c #CBAD22",
"m. c #D1AE20",
"M. c #C4B62F",
"N. c #CFBA29",
"B. c #CDB223",
"V. c #D7B822",
"C. c #DEBA28",
"Z. c #D2B221",
"A. c #C5B730",
"S. c #C5B931",
"D. c #CBBC35",
"F. c #C1B53F",
"G. c #C7B93F",
"H. c #CDBC3A",
"J. c #E2BD27",
"K. c #F5C204",
"L. c #FAC403",
"P. c #F5CC01",
"I. c #FBCB02",
"U. c #FBC90A",
"Y. c #F1CC0A",
"T. c #F9D002",
"R. c #F4D008",
"E. c #EAC41B",
"W. c #ECCC1E",
"Q. c #F3CD14",
"!. c #F3CD1C",
"~. c #EFD015",
"^. c #F2D017",
"/. c #F4D11A",
"(. c #DCC625",
"). c #DDC235",
"_. c #E7C025",
"`. c #EDC526",
"'. c #EDCD24",
"]. c #EFCC2A",
"[. c #F1C724",
"{. c #F3CE24",
"}. c #F2D125",
"|. c #F4D32A",
" X c #ECCC32",
".X c #F1D430",
"XX c #B3AB40",
"oX c #B7B245",
"OX c #BCB344",
"+X c #BAB348",
/* pixels */
"S : : 3 F k 1 1 C h 5 3 V 5 S G h h K F A & | ..X.X.y. .r G G S 5 H S 5 1 1 1 h 1 K ^ F 5 S L ` D H ",
"S 3 1 k F S 5 3 k F D F k F S k > 6 K Z B w 4.].'.}.].).&.h s 1 1 S S S 5 5 C H V H L H H K K F K H ",
"S 5 S ~ F k 5 S F G L G F S k S k S S k 6 0 N.}.~.~.Y. X*.a > : 5 S S V V V D K H H H S K K D 5 D H ",
"k S D D h : 5 G G F F G F S S h K S h D z E (.Y.R.R.P..X,.f L D V S V V S 1 S H F H k S F F Z 5 H H ",
"F K D S 1 1 S ^ G F F S h S F K I G D l d } '.T.P.T.P.|.<.x I I ^ F S F S V H L F S H 5 V V S F ^ L ",
"^ ^ F F S S ! ' K F S 5 5 V D G I I P P q } E.I.P.T.I./.9.f ! ( ` L F K K F F L F H F Z 5 1 H L [ ] ",
"^ ^ F F G ^ ` ^ F F S 5 1 5 S F L L _ P k +.'.I.I.T.I.!.q.g j D ^ G H K K F K ` K F K D S 1 S F ' [ ",
"L F S F ^ ' ^ L K K D h 1 5 5 S F L ' P h O.'.I.U.U.I./.w.c g G ^ H 5 H K D K ` L K F K S 1 1 H L K ",
"^ L F K L ` ` L L F S < < 1 M : 1 L ' L s &.].I.U.U.I.!.OXc v ! F K F V 1 5 K ^ L L H D D H D S J H ",
"F K K L ^ Y L L Z C V : 1 1 1 : k ^ ' ' D =.|.U.U.U.I.!.OXc W ! F F F H V V F L L D C S V V V S F D ",
"H H K L Y Y Y L H H S V M H V M H K Y Y j =.}.I.I.I.I.!.OXe W _ ^ ^ L ^ G S H L H F V 1 M 4 1 V K F ",
"H S V H Y Y K K K J K H K Y K Y K K J L k ;.!.I.I.I.I.!.r.e l ! ` L ` ' ` K F ^ K Z M 1 1 1 5 1 S S ",
"H M 1 M J Y K H S H L Y L K J K Y K J J j :.}.I.I.I.I.!.r.9 z G ` K L ` ` F F L F S 1 < 1 1 V 1 : , ",
"H V 1 M U Y K Z M V K Y Y J V V K N N H z 1./.I.I.I.I.!.r.O j D K F F L L F Z F F V 1 < 1 1 V S M s ",
"H S H K Y Y K H S V H H H M M M N , n N * 1.[.I.I.I.I.!.F.p l L F F F F K H H S D 5 1 1 1 S D F L L ",
"V H L ' Y K K J H S M M < , < S S M n M * ,.{.I.I.I.I.{.G.o.) ' H H F H F F F H H S 5 1 C H K L K K ",
"L T ' T Y L Y ' Y H 1 , , = < N Z C B M & 5.'.I.I.I.I.Q.H.O./ L ` F C F F C 1 Z < V S Z Z V S K K K ",
"J L I L L J Y T Y H M 1 < , < B Z A Z S & 9.{.I.I.I.I.Q.D.R P K ~ A C C Z < < 1 4 S S C V 1 5 S H D ",
"K K L L J K J L Y K V V m < < m C A V F q 7.}.I.U.I.I.Q.D.$ l K C F K C B 4 4 4 1 V V 5 4 1 B H F H ",
"L L L K G J S S L K H Z N m m N B B 4 4 & 5.{.I.U.I.I./.D.# l H C ~ ^ Z 4 H F B 1 5 C S V S F ~ L K ",
"I L J H S 1 ; ; M H H H C B H Z B B B 6 & 5.}.P.I.I.I./.D.. d C ~ ~ C 4 4 F H 4 Z H H F H F L ` ` ` ",
"Y I L J N 1 ; ; M M H V Z K U U U ~ C C 7 7.}.I.I.I.I./.M.  * B ~ C V 4 B Z F C K K ` L ~ F L ` ^ L ",
"L ' ' L D S M M M V H M Z K U U A A A F q 8.}.P.I.I.P.Q.A.  d V C V 5 C C 4 4 Z ~ ^ ` ~ K A L L L K ",
"K L T L J S H H V H J V Z Z K Z m B B C q 8.|.T.I.R.P.^.S.  3 B < < < B 1 : < B S K ~ ^ K F F L Y L ",
"I L I L L J S M Z V H J U U Z m - - B S q oX'.I.Y.I.I.^.S.+ 3 B 4 4 < < < 2 4 4 1 S K K S H H K T T ",
"L T ' T Y J H S J H V H K H Z N M M H G g +X{.I.I.I.T.^.D.+ 6 C A C V V < 4 < < 4 V C V 4 4 H K Y Y ",
"L T ' ' L D H J K Y K K A H Z Z B B S S q +X{.I.U.Y.I./.).X z 6 C C C C V V 4 4 M V V 1 1 1 S D J J ",
"L I Y K H S H L U Y ` ` ~ K Z Z M M M s 7 XX|.I.T.I.I./.t.X 3 4 < < < < B V V V 1 V V V 1 B S H L J ",
"L L J S M M J L H J Y Y K H N H J H H D p q.{.I.I.I.I./.).. 3 4 < 2 < < 4 V C 4 1 4 V V B V S D T T ",
"I J S s M D L Y S H H Z Z Z H U L L Y I x w.{.L.I.I.I./.t.X z B C A C 4 < V 1 : < < 1 1 1 V 1 M J J ",
"L D M M S L Y J V M V V Z H U U J T T I v q.{.I.L.U.I.Q.D.+ z Z F ~ K B C F C < 1 1 1 1 M 4 M M J J ",
"J S 1 V J L L H M M H H Y ~ U Y Y J T I x <.{.I.I.U.I.!.D.@ z Z F ~ K B C L K H V B 1 B 1 V S H J J ",
"m B V S H K L ` B 5 M K I ^ L L H H L J f $.[.L.I.x.L.E.t.@ l J H A Z F ^ ` K 5 1 D S 5 1 1 S 1 N N ",
"< B M B C H L ` S V S G L G D D V H H D 7 $.[.x.x.L.L.E.0.u k D L F H F H D H C B H H S 5 V M M N M ",
"- < < < < < Z L D h S G G S C 5 D H S h a $.`.x.x.U.x.E.e.u j K ` L F C 5 V h V 1 S S S S 1 1 1 1 M ",
"B A K L H F K L C 1 1 S D k S F L H S s * #.`.x.x.x.x.c.0.u k L ] ' L F S V M 4 1 1 V 5 1 V 1 : 1 < ",
"H ~ ` ] ~ U K F 1 1 s S D S G ' ~ K Z s 7 *.J.l.z.z.z.E.oXe D ' { ] ^ K F F F H 5 5 S S D S 5 1 : 6 ",
"C H K L A Z B 4 1 1 S K K G L ' ` L K S * $.J.l.z.l.z.c.oXw D ` { ' K S S K L L K H S K K H D F F ! ",
"K K A H K K Z V s h G L L G D L K ` L J a &.J.k.l.k.z.h.5.8 3 J ` L H 1 1 S L ` ^ K S F L K K K F F ",
"K A C B A K H C 1 5 K ` ! S 3 5 F K ^ G s &.J.k.k.k.k.h.-.% : M B S V 1 : S H L L D C F K H H L V 4 ",
"< < < < V H F F S 5 S K G S k K F C F 3 3 i m.k.k.k.i.V.@.7 H Z S 5 1 1 C K L L L < 1 5 D K S F B B ",
"V B B < M B C H D k h G I L L ( F G F 3 3 y m.a.s.s.i.m.+.7 V m S V 5 Z F L ` ` K H H 5 V H 4 < - - ",
"C Z C < < B S F H 5 5 S ( ' ] ( ~ ~ G 3 4 t n.i.u.u.i.d.O.7 Z N M 1 V D L ^ ` ^ ^ L ` C 1 V < ; m m ",
"F H Z Z V V Z F 1 1 1 S L ( ( L ~ ~ k h h i n.p.s.u.u.n.O.a H H 1 1 S K L ` ^ L L ^ ' K V 5 , , m m ",
"A Z Z C S C V V : 1 s S G L G D F ~ 6 6 6 i v.u.u.u.u.n.%.h H U 1 1 S K ` ` L K L K ` K S 5 : M m - ",
"C B 4 V Z H 5 < : 1 S G G G D F ~ F W 6 F u v.p.u.u.u.n.%.s M M N V H K L L K K H V H D S 1 < Z < < ",
"H B B B V Z V 1 S 5 S K ! L F F ! F k k k u v.a.u.u.p.4.i > m m V S 5 S D K H S 5 1 S 1 1 1 : V 1 m ",
"F H V 1 C F F S L 5 < D ( ^ G F C 6 3 6 6 w 3.g.g.g.g.>.p 1 Z B V V 4 1 1 4 1 1 1 5 S : : S 1 1 B < ",
"2 6 6 2 6 6 4 k C 1 3 5 G F G ^ ~ F F F 6 * +.5.:.;.=.Q k Z Z B V Z V < < m V V M H H M M M 1 S 1 , ",
"2 6 6 2 6 6 4 C 3 : : 6 D F F F ^ ! 6 F C > 9 o o 9 g k F C B B V Z B < < < B V M L J V M M S J M < "
};
