/* XPM */
static char *dfd9f4b34ce8471c8306ef75217af379AtxUWWebgkOR4L0V[] = {
/* columns rows colors chars-per-pixel */
"50 50 252 2 ",
"   c #5B6A19",
".  c #5C6709",
"X  c #68740B",
"o  c #787906",
"O  c #656C19",
"+  c #677317",
"@  c #787818",
"#  c #656C0F",
"$  c #5D6D27",
"%  c #4E663B",
"&  c #546C35",
"*  c #5A6C36",
"=  c #556C3D",
"-  c #5B6D3C",
";  c #546535",
":  c #5D7336",
">  c #57733B",
",  c #5C733C",
"<  c #5D783D",
"1  c #567237",
"2  c #5A712D",
"3  c #646D23",
"4  c #646D2B",
"5  c #6F6F25",
"6  c #6C7324",
"7  c #6B722E",
"8  c #677729",
"9  c #777A28",
"0  c #636D37",
"q  c #647434",
"w  c #6B7434",
"e  c #6E7A32",
"r  c #62743D",
"t  c #6C733C",
"y  c #637A3D",
"u  c #6B7B3C",
"i  c #747B33",
"p  c #767A39",
"a  c #556D43",
"s  c #5C6E43",
"d  c #5C6E48",
"f  c #5D7343",
"g  c #5F7B43",
"h  c #5B744A",
"j  c #5E794B",
"k  c #567344",
"l  c #616E45",
"z  c #637444",
"x  c #697642",
"c  c #647A44",
"v  c #6B7B44",
"b  c #64754A",
"n  c #6A754C",
"m  c #647A4B",
"M  c #6B7C4C",
"N  c #717C48",
"B  c #6B7C51",
"V  c #697853",
"C  c #717D52",
"Z  c #707E5A",
"A  c #995E00",
"S  c #A25C00",
"D  c #80791F",
"F  c #847F0A",
"G  c #AA6800",
"H  c #B56800",
"J  c #AA7600",
"K  c #B97700",
"L  c #847E2D",
"P  c #78821A",
"I  c #79870E",
"U  c #778325",
"Y  c #77803A",
"T  c #6D8131",
"R  c #6B824B",
"E  c #738349",
"W  c #6D8151",
"Q  c #6E8358",
"!  c #738453",
"~  c #75875A",
"^  c #87870E",
"/  c #998703",
"(  c #8A8819",
")  c #949718",
"_  c #8D9115",
"`  c #BC8200",
"'  c #BA8701",
"]  c #B0990B",
"[  c #A6A81A",
"{  c #BAA612",
"}  c #878527",
"|  c #938B2A",
" . c #99942E",
".. c #999434",
"X. c #8F8E30",
"o. c #A79729",
"O. c #A69C35",
"+. c #9DA62B",
"@. c #B6AB26",
"#. c #BAB322",
"$. c #B4A83A",
"%. c #B9B73A",
"&. c #A9A62D",
"*. c #C78801",
"=. c #D78C03",
"-. c #CC9800",
";. c #DB9B00",
":. c #D89505",
">. c #C79F1C",
",. c #EA8D05",
"<. c #E59500",
"1. c #EC9502",
"2. c #E49B00",
"3. c #EC9B02",
"4. c #EC940A",
"5. c #E99D0A",
"6. c #F19503",
"7. c #F29B03",
"8. c #F2960A",
"9. c #F09B0D",
"0. c #EE9714",
"q. c #C9A804",
"w. c #DCA300",
"e. c #DBAE02",
"r. c #D4A807",
"t. c #DCB301",
"y. c #D2B00C",
"u. c #C8A919",
"i. c #D3AA16",
"p. c #D2B118",
"a. c #CEB61E",
"s. c #E3A500",
"d. c #ECA402",
"f. c #E3AC01",
"g. c #EDAC02",
"h. c #ECA40B",
"j. c #EEAC0A",
"k. c #E4AC0C",
"l. c #F3A401",
"z. c #F3AB02",
"x. c #FAAC03",
"c. c #F4AC0A",
"v. c #F8A609",
"b. c #E5B300",
"n. c #ECB400",
"m. c #E5BB01",
"M. c #ECBC01",
"N. c #EEB20A",
"B. c #E2B30B",
"V. c #F3B401",
"C. c #F8B402",
"Z. c #F4BB01",
"A. c #F9BB02",
"S. c #F3B30A",
"D. c #F6BC0A",
"F. c #FABB0B",
"G. c #F8B50C",
"H. c #E9A716",
"J. c #E5BA15",
"K. c #F3B411",
"L. c #F8B81A",
"P. c #F2AD11",
"I. c #C3AB2C",
"U. c #C5B629",
"Y. c #D9BA29",
"T. c #C8B737",
"R. c #CAB638",
"E. c #FAAF22",
"W. c #BCC337",
"Q. c #BEC623",
"!. c #EBC301",
"~. c #EECC01",
"^. c #ECC908",
"/. c #F4C301",
"(. c #FBC403",
"). c #F5CC01",
"_. c #FCCD02",
"`. c #FDC60C",
"'. c #FECC0B",
"]. c #F5C80B",
"[. c #F5D201",
"{. c #FCD302",
"}. c #F5DB00",
"|. c #FEDB04",
" X c #FEDC0C",
".X c #F8D40C",
"XX c #E9C41B",
"oX c #FDCC13",
"OX c #FDCC1A",
"+X c #F5C816",
"@X c #FED212",
"#X c #FEDC14",
"$X c #F2D31C",
"%X c #F7D916",
"&X c #EFD015",
"*X c #FCE302",
"=X c #FCEC02",
"-X c #FFE40C",
";X c #FDEC0B",
":X c #F7E801",
">X c #FEF605",
",X c #FDF904",
"<X c #FEF50B",
"1X c #FCF90A",
"2X c #F7F608",
"3X c #FFE412",
"4X c #FFEB14",
"5X c #FDEA1B",
"6X c #FFF512",
"7X c #FEF31A",
"8X c #F8F917",
"9X c #D7C629",
"0X c #D4C73B",
"qX c #CACD30",
"wX c #E7C529",
"eX c #F4CB23",
"rX c #F6CE2C",
"tX c #F8C829",
"yX c #ECD124",
"uX c #F9D727",
"iX c #E7CC36",
"pX c #F6CD36",
"aX c #F8D936",
"sX c #E5D738",
"dX c #FDE224",
"fX c #FEE928",
"gX c #FEF425",
"hX c #FEF42D",
"jX c #FDFD26",
"kX c #FAE836",
"lX c #FDF333",
"zX c #FFFD34",
"xX c #FEFB3D",
"cX c #FCF639",
"vX c #EDED3A",
"bX c #BCB445",
"nX c #C4B449",
"mX c #D0BC49",
"MX c #DAC745",
"NX c #D7D144",
"BX c #C9CB43",
"VX c #EAC947",
"CX c #E4DC49",
"ZX c #F6D745",
"AX c #FBEB47",
"SX c #FCF648",
"DX c #FFE956",
"FX c #FFF45C",
"GX c #FEF756",
"HX c #E7E844",
"JX c #FFDC63",
"KX c #FFF062",
/* pixels */
"t * % k R : 2 : r g b s > , M m - 4 @ @ o o o o o o o o I @ 8 > g g g f > & f b , v B c g z M R z m ",
"x 0 a c < < : < g c z M z q 8 6 9  .%.R.T.0X0X0XNXCXCXNX0XBX+.U . $ y r * g k f z z m z h b j m z m ",
"r r z m z , : x r v v y p + ) @.iXyX&X@X#X%XuXfXuXuXuXdXfXhXcXvXqX) # 7 q * m B c z x z n m b s c z ",
", y x c f = f v v x R 7 @ $.9XuX[.)._.{.{.{._./.(./.(.(.).~.}.7XlXSXNX( O 0 z j m f z x b n z f z b ",
"R c v z s - b N y u q } 9XyX$X].).'.'.F.C.C.V.g.n.n.V.V.M.!.!.!.&X5XzXHX+.+ g R j f f l l l z z M ! ",
"R R m z z b B ! u 3 } MXyX[.{.).{.(.F.c.v.x.l.z.V.V.V.V.V.D.Z.M.!.!.}.gXGXbX8 T c m z z l 0 z M ~ ~ ",
"R c m b v M ! W w ( iX$X)._.{. X'.V.s.d.v.v.v.x.n.n.n.V.N.N.G.D./.).!.[.gXvXW.U T c c b l s 0 v ! ! ",
"M j b b R ! ! u ( 0XyX_._.|.|._.n.z.z.v.7.v.x.x.z.V.V.M.S.K.G.C.D.b./.!.~.gXHXW.T y v m b - : z M R ",
"W m B m R R B i U.$X]._.|. X.Xn.z.l.x.x.l.l.l.x.z.V.g.M.V.V.V.Z.M.A./.V./..X5XSX[ 8 R f m z c z m m ",
"j m M B R E u O.yX.X_.{.-X-X/.g.V.x.v.l.x.l.l.z.g.s._._.g.V.Z.V.M.Z.Z.Z.Z.!.}.8XHXI 3 , g f a h z z ",
"f z M M W N } MXeX).{.;X4X).b.V.z.z.x.l.x.g.v.g.s.b.5X4XZ.b.V.V.M.M.Z.A.A.V.~..XzXQ.+ 1 = > d d m n ",
"f f , x R 9 @.rX`._.|.<X Xm.n.A.V.V.x.x.v.h.c.z.w.@X6X6X|.b.n.Z.M.M.Z.A.A.V.A.~.2XxX_ $ 1 = h d z z ",
"V f & : w } iX+X'..X=X<X).m.A.V.V.z.x.x.v.v.z.w.M.7X>X,X<X_.n.V.V.V.V.V.Z.A.A.!.~.hXBX. 2 - = f ; ; ",
"V f & r 6 $.rX).[.|.6X}.m.].A.V.C.V.V.z.z.x.d.w.-X1X,X,X>X;XM.g.V.V.n.Z.D.Z.V.A.!.5XGXI $ - , z l f ",
"b l m x } MX&X[.[.-X<X[.M.].Z.A.A.V.Z.n.V.g.w.].7X1X1X2X,X>X|.M.S.S.V.M.Z.V.C.A.M..XcXqX. , v x v m ",
"l M Z v O.iX^.}.}.<X-X/././.Z.A.A.Z.V.n.V.s.q.gX<X>X2X1X,X2X6X).f.n.Z.b.M.Z.Z.V.Z.m.5XvXI q R m m m ",
"C Z ~ p I.rX).[.*X;X).(./.`.Z./.V.A.V.V.V.-.-X6X>X>X1X1X1X1X>X;X!.n.n.n.V.Z.b.D.Z.M.}.lX+.  y c m m ",
"V V N i Y.+X.X[.*X3X/.Z.(.(./././.A.M.M..X#X7X>X>X>X1X6X1X1X,X>X6X|./.Z.V.Z.Z.n.Z.n.[.lXW.+ : f z z ",
"n x v } iX].[.[.-X{.M.`.D./._.!.m.)..X-X;X;X=X=X=X=X=X=X=X:X=X=X:X4X5X#X/.M.M.M.D.n./.fXCXX 4 z b c ",
"v v q  .rX).{.[. X'.b.D.D.`./.)..X X-X-X|.*X*X:X:X:X:X:X*X=X*X*X-X|.#X X3X X).(.n.N.f.uXAXI w C M M ",
"u p 8 O.uX_._.).#XV.A.Z.N.b.@X@X3X X|.|.*X|.*X*X*X|. X X|.|.|.|.|.|.-X{.|.|.#X'.;.N.w.XXGX) e ! W W ",
"v E 7 $.$X{._._.`.A.s.G.S.A OXoX{.).[.|.|.[.|.{.{.{.{.{.{.{.{.{.{.{.[.{.{.[.#Xw.:.g.s.J.AX[ 8 W M M ",
"N E p bXeX_.(.'.(.A.C.l.L.K K rX'.{._./._._.{._.{._._.'.'.'._.{._._._.{._._.A.-.s.g.d.B.AX[ 6 R m M ",
"u N p nXeX(.).'.`.z.l.C.S.E.S k.oX_.'.'._._._._._._.'._._.'.'._._._.[._.{.'.-.;.c.2.d.f.AX@.+ R M B ",
"M N p nXtX(._.'.(.x.x.l.c.L.5.G oX'.'.'._._._._._._._.'._._.[._._._.[._.'.V.*.j.3.l.d.g.kXU.6 m C ~ ",
"M N p nXtX(.(.(.(.l.l.C.x.h.E.H =.OX(.'._._.[.{._._._._._._._.[._._._.'.OX;.2.5.1.l.3.s.aXU.6 n C N ",
"v E L nXOX(.(.(.`.d.l.l.z.z.L.l.G S.`.'._._._._._._._._._._.[._._._._.oXS.=.v.3.3.l.3.s.dXU.3 n b n ",
"M N 9 %.eX(./.'.`.z.x.l.z.C.3.L.K *.uX'._.{.)._._._._._._.{._._._._._.'.=.3.6.7.3.5.h.f.dX[ 3 V V n ",
"N u 7 &.XX/.Z.).`.V.l.l.l.x.l.v.E.G j.'.{._._.{._._._._._.{._.{.{._.{.Z.=.8.6.6.6.3.s.k.aX[ $ b C C ",
"C v 4  .eX/.A.`.'.M.d.l.x.7.G.h.E.H *.OX{.[.[.|.{.{.{.{.{.{.{.{.{.{.{./.1.1.6.6.7.3.;.J.aX) $ f n n ",
"N N 0 | wXA././.'.V.z.l.v.1.<.3.h.=.*.fX X*X*X-X*X*X*X|.*X*X:X*X*X*X*X'.2.8.6.6.1.2.2.L.ZX( 3 l n n ",
"n l & } wX!./.A.'.A.3.1.1.6.9.1.h.=.` uX3X;X:X=X=X=X=X=X;X=X;X;X=X-X6X).;.3.1.6.3.5.s.L.VXD 4 n l l ",
"d = - 9 U.oXM.Z.oXF.1.6.1.1.6.1.7.<.` kX4X>X>X>X>X1X>X,X>X>X<X1X1X<X<X}.w.3.1.4.6.1.d.tXmXO 7 * s d ",
"d a ,   { +XM.M.`.oX1.1.7.6.6.1.7.1.K cX7X1X1X1X6X6X>X>X2X2X7X6X<X<X7X.Xs.3.4.9.1.1.z.rX$.$ r & s s ",
"a = > $ ) Y.J.!.D.oXl.<.7.1.1.1.1.=.J AXhX8X8X8XjXjX8X8XjXjX8XgXgXjXzX%Xw.5.1.1.1.2.V.rX} 4 r = s s ",
"a m m w D R.XXm.M.`.F.<.7.1.1.1.1.:.J DXlXzXzXzXlXcXxXzXzXcXSXxXxXlXxX$Xw.v.9.7.3.2.+XY.9 - s = - = ",
"f B W E e bXwXt.b.].oXf.1.1.1.4.,.=.G KXGXSXSXGXFXDXwXy.pXFXKXFXSXSXGXuXw.d.7.7.<.h.pXo.5 f l d > , ",
"f f M v b } Y.m.b.V.oXS.2.1.3.4.0.0.K JXFXGXDXZXi.*.` *.K ` u.iXFXFXFXpXs.l.7.1.s.tXVX( q b n z v y ",
"B m v c m e @.J.g.b./.].j.<.4.4.0.0.H JXDXY.*.' :.h.c.S.K.k.-.K J I.iXZXh.3.7.d.M.eX$.5 u m m v R c ",
"m z : , h r | Y.B.f.t.@XD.<.6.8.6.0.H =.*.*.:.H.H.h.l.z.g.S.L.L.H.' H :.d.d.d.f.%XsXD t R c y m , > ",
"a > * & , - i O.J.b.e.!.+XS.7.1.7.1.,.,.8.9.5.<.5.h.l.l.g.z.j.N.K.L.K.h.l.d.w.+XAX^ 3 l x c g z a a ",
"k a - & , r 0 L I.y.t.e.+XoXl.7.1.1.8.6.6.6.3.1.5.3.l.l.l.z.n.n.n.z.z.h.j.w.+XkXT.9 0 z f c - - = % ",
"h j > - s s x w | R.i.r.b.+X`.l.1.1.7.7.,.1.1.6.1.1.3.d.d.d.g.V.S.z.z.V.w.+XuXsX} t N b = h & ; = a ",
"j m j f d s m t 5 | R.y.q.M.oX`.h.2.<.1.7.6.,.6.6.1.1.d.l.d.z.z.z.Z.n.e.&XkXHX( i M ~ m a f ; ; a a ",
"f f j j h l z z ; O | R.p.r.t.oXoXM.2.2.1.6.4.1.3.1.3.1.l.3.h.d.g.e.m.%XzXHX..p M M Q m g s ; d a % ",
"z f a h c , h s - 0 5 O.I.u.y.t.+X'.F.l.3.1.1.<.3.1.1.3.7.7.h.g.b.^.fXcXqX_ u V b f b g g - a b a = ",
"z f a , < g h k x 0 0 7  .T.p.e.e.D.oX`.C.z.d.2.2.<.3.1.2.s.b.M..XgXSXW.@ 2 b b 0 - 1 1 - - - l = > ",
"M z z 1 < g k s M r - x i } o.@.U.y.J.+XOXOX+XL.j.P.P.S.N.+XuXkXkXqX_ X 2 a d s - : < & & s s s f a ",
"- , < > > > < y c , - r u u i 9 ..&.I.U.Y.Y.rXpXrXpXrXrXrXsX0XT.} +   2 & a f d s c x > s s l b = = ",
"1 < < 1 < < , , , & & > z x c v p U ( / / F / ] q.q.q.{ ] / F X 2 < g , % ; f f s m m , - l z z ; = "
};
