/* XPM */
static char *_d71c73f19a54832ac26696c7c8311ceTMWNGdwte1pTehZs[] = {
/* columns rows colors chars-per-pixel */
"50 50 246 2 ",
"   c #5C681A",
".  c #6B7302",
"X  c #697409",
"o  c #767D08",
"O  c #646C1C",
"+  c #6C741D",
"@  c #687619",
"#  c #757918",
"$  c #636B04",
"%  c #5A6729",
"&  c #5F7424",
"*  c #4E6639",
"=  c #536C3D",
"-  c #5B6D3D",
";  c #586A35",
":  c #5C7335",
">  c #56723D",
",  c #5C733C",
"<  c #5D793D",
"1  c #557236",
"2  c #636B23",
"3  c #696D25",
"4  c #6B762E",
"5  c #677526",
"6  c #747927",
"7  c #626C39",
"8  c #647335",
"9  c #62753C",
"0  c #647A3D",
"q  c #6A7837",
"w  c #767C34",
"e  c #716C2C",
"r  c #546C43",
"t  c #5C6E42",
"y  c #5C7342",
"u  c #5C734A",
"i  c #5A7645",
"p  c #637544",
"a  c #657A44",
"s  c #6A7B44",
"d  c #63764B",
"f  c #647A4A",
"g  c #6A7C4B",
"h  c #6B7543",
"j  c #717D45",
"k  c #6A7D52",
"l  c #6A774E",
"z  c #954D00",
"x  c #9B5A00",
"c  c #8E4A00",
"v  c #A45A00",
"b  c #AE6300",
"n  c #B86B00",
"m  c #AC7500",
"M  c #B77903",
"N  c #827C23",
"B  c #817927",
"V  c #C67603",
"C  c #7A8111",
"Z  c #7C8723",
"A  c #6C8148",
"S  c #718244",
"D  c #6E8354",
"F  c #758756",
"G  c #89890A",
"H  c #9C9A07",
"J  c #8A8418",
"K  c #939719",
"L  c #958B11",
"P  c #BB8401",
"I  c #A69400",
"U  c #B79A04",
"Y  c #AB9217",
"T  c #A5A817",
"R  c #AAB41D",
"E  c #868726",
"W  c #8C922C",
"Q  c #9A9A2C",
"!  c #969332",
"~  c #908F25",
"^  c #A19526",
"/  c #A99A35",
"(  c #9DA529",
")  c #A9A838",
"_  c #B5B738",
"`  c #AFAB32",
"'  c #C78803",
"]  c #D78902",
"[  c #C99604",
"{  c #DD9C00",
"}  c #D59601",
"|  c #C9891A",
" . c #D29C1A",
".. c #E88E03",
"X. c #E49401",
"o. c #EC9502",
"O. c #E49C00",
"+. c #EB9B03",
"@. c #ED950B",
"#. c #EA9B0A",
"$. c #E5950C",
"%. c #F29503",
"&. c #F29B02",
"*. c #F39B0B",
"=. c #F49607",
"-. c #EA9C13",
";. c #F39D12",
":. c #F29611",
">. c #CBAD03",
",. c #DBA401",
"<. c #D8A802",
"1. c #D7B400",
"2. c #C8B81B",
"3. c #E4A401",
"4. c #ECA302",
"5. c #E5AB01",
"6. c #ECAC02",
"7. c #E4A409",
"8. c #EDA30B",
"9. c #E9AB0C",
"0. c #F2A503",
"q. c #F4AB03",
"w. c #F2A40A",
"e. c #F4AD0A",
"r. c #F9A706",
"t. c #E5B300",
"y. c #ECB401",
"u. c #E6BA00",
"i. c #ECBB01",
"p. c #ECB10B",
"a. c #EDBC0F",
"s. c #F2B402",
"d. c #F9B503",
"f. c #F3BB02",
"g. c #F3B20B",
"h. c #F9B40B",
"j. c #F4BC0A",
"k. c #F9BD0B",
"l. c #EBA815",
"z. c #F3A714",
"x. c #EEB412",
"c. c #F8B817",
"v. c #C4B439",
"b. c #D5BE3C",
"n. c #CEB02C",
"m. c #FEB925",
"M. c #EDB32F",
"N. c #D59929",
"B. c #ECC300",
"V. c #EDCA00",
"C. c #EDC70C",
"Z. c #F4C301",
"A. c #FBC503",
"S. c #F5CC01",
"D. c #FBCA03",
"F. c #F6C20B",
"G. c #FAC90B",
"H. c #F5D302",
"J. c #FAD303",
"K. c #FCDC03",
"L. c #FED20C",
"P. c #FFDB0B",
"I. c #F6D809",
"U. c #F5CA13",
"Y. c #FFCB14",
"T. c #FCCB1C",
"R. c #F7C517",
"E. c #FFD412",
"W. c #FED41E",
"Q. c #FEDC1C",
"!. c #FCDA13",
"~. c #EDCD0C",
"^. c #F7E400",
"/. c #FCE303",
"(. c #FCEA02",
"). c #FDE30B",
"_. c #FCEA07",
"`. c #FDF304",
"'. c #FEFA04",
"]. c #FEF50B",
"[. c #FCF80C",
"{. c #F5F506",
"}. c #FFE413",
"|. c #FFEC13",
" X c #FEE51B",
".X c #FDEC1B",
"XX c #FFF314",
"oX c #FEFA12",
"OX c #FFF31B",
"+X c #FDFA1E",
"@X c #F7F71B",
"#X c #C1C224",
"$X c #D9C42E",
"%X c #CBC638",
"&X c #D9CA3A",
"*X c #D7D23A",
"=X c #D5DB2F",
"-X c #EDCD2C",
";X c #FBCC23",
":X c #F7C928",
">X c #FCD22A",
",X c #FAD827",
"<X c #E9CC33",
"1X c #E5CB38",
"2X c #F4CB36",
"3X c #E7D637",
"4X c #FDDE32",
"5X c #F2D533",
"6X c #E8D02E",
"7X c #FDE324",
"8X c #FCE42D",
"9X c #FBEA28",
"0X c #FDF422",
"qX c #FEF922",
"wX c #FEF42B",
"eX c #FFFA2B",
"rX c #F6F52D",
"tX c #EAE839",
"yX c #FDEF33",
"uX c #F5E537",
"iX c #FEF432",
"pX c #FDF43A",
"aX c #FEFB3C",
"sX c #F9F737",
"dX c #C9CB1F",
"fX c #BDB142",
"gX c #B0A040",
"hX c #CCBD45",
"jX c #EBBF44",
"kX c #BEC247",
"lX c #C9C947",
"zX c #D5CE42",
"xX c #D8D249",
"cX c #E9CA45",
"vX c #E7D744",
"bX c #FAD848",
"nX c #F1D754",
"mX c #E8E74B",
"MX c #F7E946",
"NX c #FAF547",
"BX c #FFF35C",
"VX c #FFFA5C",
"CX c #FEF755",
"ZX c #FFDD69",
"AX c #FFF967",
"SX c #FFF282",
/* pixels */
"d r ; : a y y > y p p 7 t y f A r p h 8 5 X X C . . . X # Z 1 > , a a y 1 1 > y y f f f p d l g h p ",
"u - : 0 a y y y i 0 0 9 d h : 4 O 6 B ! ` _ %X%X*X%XzXlXlX) W C   & 8 0 , r a i i d a a d g s h f f ",
"9 9 0 0 0 9 t p 0 A s h s 7 e ~ T 2.6XuX8X7X7X7X7X7X8X9XiXiXrXtXdXT # O 8 p > g d d f a f f p y h p ",
"9 0 0 0 : ; t g 0 0 q q 6 E ` M.5XW.E.A.Z.f.f.Z.B.B.B.V.V.H./.).0XsXmX` #   8 g h p y , a y y y p d ",
"f g f a : : h k h j 4 # ^ &X5X;XR.a.p.q.s.q.q.6.6.y.g.i.u.i.Z.D.!.7XiXpXtXT # q g p p , y y y f A D ",
"k k f u , a k F j O E %X5XU.j.y.3.5.6.6.4.0.q.h.e.e.s.y.y.i.s.f.y.B.I. X@XrXlXW 5 8 a i y = a f F F ",
"j g d d f D F j + / &X,XW.i.5.3.4.4.0.0.r.q.q.0.q.s.s.s.d.f.f.s.f.Z.f.u.H.OXwXtXK Z 1 f y = y g F F ",
"s g d d k D S 6 _ 3X7XZ.6.4.0.0.4.0.0.q.0.0.q.q.s.6.q.y.d.s.p.f.f.i.f.Z.B.H.(.0XNX( 5 < f y > p g g ",
"g g p a D S @ _ tX,XF.6.0.q.r.0.0.&.4.4.0.r.0.e.6.6.y.s.d.s.d.y.f.f.f.d.f.u.H._.qXsX( O s k y a d d ",
"g a g s S 6 ` tX XV.s.q.r.r.0.0.r.+.r.4.+.z.4.q.}  Xi.t.q.q.6.f.y.s.s.k.k.Z.Z.V.{.rXNXK & 7 y y f p ",
"d d a S 4 Q tX0X~.f.q.q.d.q.0.0.&.r.6.4.w.8.w.} V.OX|.1.i.6.s.s.f.s.s.s.d.f.i.u.B. XeXtX# 2 : y f a ",
"u d - 4 E vX0XH.i.s.s.s.q.d.q.r.0.0.4.4.w.e.} t.+X].]./.t.y.s.6.j.d.s.s.i.f.f.Z.C.1.}.iX*X$ 8 r p p ",
"d d ; @ 2.iX XB.y.f.f.s.6.g.e.r.q.r.0.0.e.} <.0X`.'.`.].H.5.y.g.h.q.s.f.i.f.s.k.k.f.S.OXrXR   y = ; ",
"d - % ~ sXOXI.i.f.f.f.s.g.g.e.q.r.q.r.r.3.[  XoX`.'.'.`.oXS.6.e.e.6.y.f.f.f.s.f.g.k.B.H.+XtXZ 1 7 - ",
"y 8 6 lXaX).V.i.j.i.y.s.g.g.y.s.q.4.e.e.[ H.[.{.'.`.'.'.`.XXf.6.q.g.q.s.d.s.d.d.s.k.i.V.{.rX_ @ s g ",
"y 4 Q MX.XH.B.C.j.j.f.f.g.g.y.i.y.s.e.} B.OX'.'.'.{.'.'.'.[.|.i.5.y.s.s.y.q.s.d.f.s.i.B.^.qXmXE q s ",
"A 4 %X9XP.V.Z.j.f.f.f.f.y.j.u.u.y.y.<.<..XXXoX`.].'.'.'.'.'.]. XB.u.5.6.y.d.s.y.f.y.f.f.V. XsXR 5 j ",
"h E <X7XH.B.F.F.Z.A.f.f.j.f.u.u.u.J.L.).XX_.`.`.`.`.{.`.`.(.`._.|.P.D.i.y.5.t.i.u.j.s.A.i.H.0X=X# 0 ",
"4 ! uX!.B.y.Z.Z.f.A.f.Z.y.f.Z.S.P.).K.|./.(.(.^.^.{.^.(.(.(.(././.).|.!.L.D.i.i.i.y.d.d.s.S.OXtXW 9 ",
"6 ` 8XS.u.i.f.j.A.d.Z.Z.L.J.}.}.}.).K.).K./.(.^.^.^.^.(.^././././.K.)./.!.}.P.L.Z.Z.d.q.s.y.).yX) 4 ",
"B v.,XA.y.f.s.s.g.k.E.P.K.K.D.K.K.K.K.K.K.H./.K.K.K.H.K.K.K.J.K./.K.K.J.J.P.P.L.!.Y.{ 0.8.,.H.iXkXZ ",
"N b.;Xf.6.s.y.g.x 7.W.D.D.J.J.J.J.J.S.H.H.K.H.J.H.H.J.J.J.J.J.D.S.H.J.J.J.J.D.D.Q.} ' 8.4.5.B.iXlXZ ",
"L cXT.y.q.6.s.c.' c g.Y.D.D.S.H.V.H.J.L.S.S.S.D.S.D.D.D.D.D.D.D.D.S.S.D.A.D.G.L.y.' 8.z.+.3.t.9X*XC ",
"Y 3XR.4.4.4.d.g.m.n v :XY.Z.D.S.J.Z.S.S.S.D.G.D.G.G.G.D.G.D.D.S.D.S.D.D.D.A.A.G.' ,.8.8.4.4.t.,XxXG ",
"I M.R.0.&.w.q.q.q.c.v n ;XG.D.D.D.D.D.D.D.D.A.D.D.A.D.D.D.D.D.D.D.S.S.Z.L.Z.Y.{ { 4.+.+.0.4.6.Q.tXH ",
"I <XR.4.0.w.8.e.d.6.M.z { T.A.A.D.D.D.A.A.D.A.A.A.D.A.D.A.D.D.S.D.S.L.D.f.Y.q.] O.4.+.0.&.4.4.W.MXH ",
"I -XR.4.0.+.0.w.r.0.c.} z c.T.A.D.A.D.D.D.A.A.G.D.A.D.D.D.D.D.D.D.D.D.D.Y.c...X.4.+.&.+.&.4.3.;XvXG ",
"I 3XR.4.0.0.w.4.0.0.r.c.n v T.G.D.D.D.D.G.D.A.D.D.D.D.D.J.S.S.S.D.D.Z.A.T.X.] ;.+.o.+.+.+.3.5.>XxXJ ",
"L &XU.4.0.0.w.#.0.r.q.0.m.v V ;XG.S.S.D.D.S.S.S.S.S.S.D.S.S.H.S.D.D.D.D.h.] :.:.+.o.+.#.#.,.t.4XxX# ",
"J b.T.s.4.+.r.*.&.r.&.0.;...x :XL.J.H.J.J.J.J.H.J.H.J.J.J.H.J.J.J.H.K.L.d.X.:...=.o.#.#.#.,.y.4XlXZ ",
"B v.;Xf.4.4.*.4.&.o.&.o.o.z.v l.Q./.K.K./.K.K.K.K.K.).K./.P.K.K.^././.P.F.+.o.%.o.%.o.#.#.X.f.,XgXe ",
"e gX-Xj.4.+.o.o.o.=.X.#.&.*.b x. X/.^.^./.(.(.(.(.(./._./././.(.(.(.^.}.F.{ &.o.%.&.X.o.0.O.Z.4X! 7 ",
"7 B <Xk.O.+.o.o.o.%.=.@.o.z.n l.OX`.`.].`.`.`.].].].`.].].`.`.].'.{.{.OXU.{ o.&.&...o.&.X.4.W.6X3 7 ",
"; 3 b.;X8.o.o.%.o.%.%.%...-.b <.qX[.[.[.].oX].oXoXoX[.[.oXoX[.[.[.{.oXqXU.O.o.+.o.&.&.o.o.p.5X2.3 t ",
"*   Y :Xx.O.o.o.o.o.o.o.%.*.n  .eX@X+X+XqXqX+X+XOXqXqXqX+XqXqXeXeXeXeXiXU.,.+.o.o.X.=.X.4.c.<XK % - ",
"> 4 J &X;X3.+.X.o.o.o.%.%.*.V  .NXsXaXsXwXyXiXiXaXaXpXaXpXpXpXaXaXpXpXNXT.,.8.+.+.X.+.o.4.;Xb.# & > ",
"a A w fX5Xy.{ +.o.+.o.o.o.*.n | AXNXMXCXCXVXVXBXbX2X<XbXBXAXVXCXCXNXNXNX;X,.4.O.o.+.o.O.f.>X/ 2 : > ",
"y a s E $XW.6.o.%.o.o.o.o.-.V | AXAXAXAXBX3Xn.[ P P M M P P n.bXBXVXBXVX>X,.7.8.4.3.O.p.>Xb.B 7 A i ",
"f f A 5 Q 2Xc.+.o.%.@.@.$.-.V M SXZXcXN.' P ' 7.9.x.x.x.<.' V M m  .jXZX2X7.-.#.8.{ t.U.cX^ 3 j Z u ",
"a u r 0 + v.>Xh.o.=.:.:.X.z.V n N.P V | -.;.w.w.3.4.5.5.p.c.c.z.-.' m m } -.z.#.7.,.U.5XhX+ q 0 > > ",
"r r r t 7 B $X;Xe.%.o.o.#.$...] ..$.#.*.@.o.o.+.4.8.4.5.6.6.6.e.z.c.c.9.7.4.4.4.5.~.uX%XB 9 a y i > ",
"t u r r t 4 G $X:Xc.o.X.o.@.=.=.=.=.%.o.o.o.+.+.+.+.7.4.5.5.p.p.e.8.,.7.4.5.3.<.~.8X3Xo 3 l > = = = ",
"u u y i = ,   Q 1XR.h.+.o.%...=.=.%.o.o.+.o.+.O.+.4.4.3.7.6.6.5.p.4.y.y.5.<.u.W.8X3XQ 3 ; d = * = * ",
"i i i u > i d & L $X>Xc.O.o.&.%.%.%.o.o.o.X.O.o.O.o.+.4.4.7.5.5.t.y.i.5.1.C.7XyX*XK w q h - * = r r ",
"A A 1 < u i f i   N n.5X:Xg.O.o.o.o.o.+.o.+.o.o.o.&.&.&.4.4.0.6.6.<.t.V.I.0XtXzXE 4 S a , > = r r = ",
"1 : > > u u u u t   # ` 1X-X:X9.o.O.X.X.o.=.o.o.o.%.%.+.+.+.4.3.5.B.I.7XsXsX_ X 5 s p f > > r d = = ",
"h > y > 9 h t t h : 5 5 ! hX2X:XR.f.3.X.O.X.o.o.o.X.O.O.,.3.y.f.J.).iXNXlXZ O 7 0 % u = r t - p - r ",
"f f = i h 0 t p A > 1 q j B ^ n.<X-X:X:Xc.c.e.l.8.9.9.p.a.U.;X8XuXtXdXC O % - t = p t r r u 7 7 - - ",
"- i y < > < , p 9 , 1 0 s q q 6 ! ) v.cX1X-X:X:X;XT.:X>X6X3X1Xv.) Z O   % = > > y d d y t t t p = = ",
"1 y < > : < > 0 : 1 ; > a f p s q w # G I U >.>.1.<.>.>.U H N X 5 ; , r r r 9 i t f l t - 9 y h = = "
};
