/* XPM */
static char *_91d0cc4cd404bcbaa0ee4ab00b5e146NAia5tB1Mn4h8RqP[] = {
/* columns rows colors chars-per-pixel */
"50 50 242 2 ",
"   c #5B681F",
".  c #706C0B",
"X  c #767608",
"o  c #656C1C",
"O  c #696D18",
"+  c #68731A",
"@  c #777214",
"#  c #7A7C13",
"$  c #757C1C",
"%  c #726C16",
"&  c #5B6C2A",
"*  c #5A6B25",
"=  c #5E7227",
"-  c #4D6833",
";  c #556C35",
":  c #5A6A34",
">  c #54653A",
",  c #546C3C",
"<  c #5A6D3D",
"1  c #516437",
"2  c #5C7136",
"3  c #56713B",
"4  c #5C723D",
"5  c #5E793E",
"6  c #567437",
"7  c #666C28",
"8  c #647324",
"9  c #6D7226",
"0  c #62732C",
"q  c #6B742C",
"w  c #6E7A28",
"e  c #747826",
"r  c #656D3D",
"t  c #646F37",
"y  c #637333",
"u  c #6D7A33",
"i  c #62743D",
"p  c #6A743C",
"a  c #627B3D",
"s  c #6B7B3D",
"d  c #687632",
"f  c #737B35",
"g  c #556D41",
"h  c #5C6E42",
"j  c #5F6F48",
"k  c #567141",
"l  c #5D7343",
"z  c #5E7944",
"x  c #5E7549",
"c  c #5D7948",
"v  c #646F40",
"b  c #627544",
"n  c #647A45",
"m  c #6A7C45",
"M  c #64754A",
"N  c #6A744C",
"B  c #657A4A",
"V  c #6A7C4C",
"C  c #697243",
"Z  c #707E4C",
"A  c #657C51",
"S  c #6C7D51",
"D  c #6C7553",
"F  c #717D53",
"G  c #707B59",
"H  c #897C0D",
"J  c #AF7B00",
"K  c #CB7F00",
"L  c #7C8426",
"P  c #788430",
"I  c #6A813D",
"U  c #65814D",
"Y  c #6C814D",
"T  c #6D894F",
"R  c #718144",
"E  c #71844C",
"W  c #6D8252",
"Q  c #698353",
"!  c #718353",
"~  c #778959",
"^  c #938608",
"/  c #9E9500",
"(  c #838315",
")  c #85881B",
"_  c #958A1C",
"`  c #A88B00",
"'  c #A8961B",
"]  c #A2900B",
"[  c #BDAB1A",
"{  c #838925",
"}  c #9B9529",
"|  c #878834",
" . c #908F3D",
".. c #9B9932",
"X. c #8D9437",
"o. c #A49933",
"O. c #99A12A",
"+. c #AAA426",
"@. c #B6A626",
"#. c #A9A335",
"$. c #BBB035",
"%. c #C38901",
"&. c #C98900",
"*. c #D28B00",
"=. c #D29300",
"-. c #DA9702",
";. c #DD9C00",
":. c #D59D00",
">. c #D58F11",
",. c #E69500",
"<. c #EC9501",
"1. c #E49B01",
"2. c #EC9B01",
"3. c #E49C0C",
"4. c #EC980A",
"5. c #F29404",
"6. c #F09A01",
"7. c #EA9C11",
"8. c #CDA706",
"9. c #D5A502",
"0. c #DCA400",
"q. c #D4AB02",
"w. c #DBAC02",
"e. c #DBA20E",
"r. c #DBAD0B",
"t. c #D4A60B",
"y. c #DDB202",
"u. c #D8B702",
"i. c #C6AE17",
"p. c #DEA612",
"a. c #D1AC15",
"s. c #C8B219",
"d. c #D5B41A",
"f. c #E4A400",
"g. c #ECA502",
"h. c #E2AC03",
"j. c #ECAB01",
"k. c #E8A10D",
"l. c #F2A504",
"z. c #F2AB04",
"x. c #F7AA09",
"c. c #E4B301",
"v. c #EBB401",
"b. c #E6BA00",
"n. c #EBBC01",
"m. c #E6BA0C",
"M. c #F2B402",
"N. c #F3BC02",
"B. c #FABB04",
"V. c #F4B50B",
"C. c #FAB50A",
"Z. c #F5BC0B",
"A. c #FCBD0A",
"S. c #F8B005",
"D. c #E4A716",
"F. c #E4BA13",
"G. c #F5B112",
"H. c #FAB812",
"J. c #F1AC13",
"K. c #C2AC27",
"L. c #C8B528",
"P. c #D5BB27",
"I. c #DABD39",
"U. c #C2AF36",
"Y. c #E6B729",
"T. c #E7AA25",
"R. c #E5C202",
"E. c #ECC204",
"W. c #ECC308",
"Q. c #F4C301",
"!. c #FBC502",
"~. c #F4CB01",
"^. c #FDCD02",
"/. c #FCC40C",
"(. c #F4CD0B",
"). c #FDCD0A",
"_. c #F4C20C",
"`. c #F6D101",
"'. c #FCD202",
"]. c #FDDC04",
"[. c #FED20B",
"{. c #FEDB0D",
"}. c #EDC41A",
"|. c #FEC512",
" X c #FDCB12",
".X c #F3CE1E",
"XX c #F6CA1B",
"oX c #EDD218",
"OX c #FDD113",
"+X c #FFDC12",
"@X c #F5D11A",
"#X c #F9D71A",
"$X c #FEE404",
"%X c #FFE40B",
"&X c #FFEC0B",
"*X c #FFEB06",
"=X c #FFF405",
"-X c #FEF50C",
";X c #FBF90E",
":X c #FFEB14",
">X c #FFE319",
",X c #FFE314",
"<X c #FFF411",
"1X c #FBF819",
"2X c #CBC239",
"3X c #D7C73A",
"4X c #DFDD3B",
"5X c #E7C625",
"6X c #F2CD2B",
"7X c #F3C923",
"8X c #EBD42C",
"9X c #F3D022",
"0X c #FFDF21",
"qX c #F7D628",
"wX c #E9CC36",
"eX c #EAD536",
"rX c #F6DE3E",
"tX c #F3D738",
"yX c #F3CD3A",
"uX c #FCE828",
"iX c #FEFB2B",
"pX c #FCF62E",
"aX c #FAE736",
"sX c #FEF835",
"dX c #9B9740",
"fX c #9EA244",
"gX c #ABA746",
"hX c #B7AA48",
"jX c #BEB846",
"kX c #D1BB42",
"lX c #CBC948",
"zX c #DCC341",
"xX c #D9C848",
"cX c #DBD34D",
"vX c #E6D84E",
"bX c #E9C342",
"nX c #F9E646",
"mX c #FFFA46",
"MX c #FFF647",
"NX c #FFEC57",
"BX c #FFE567",
"VX c #FFF168",
/* pixels */
"N , - 6 I 5 < h n i 3 5 6 5 c V 5   ^ ` ] / / / / ^ X 8 5 Q U n 4 b b 4 < < 5 4 < V V n l l V W n C ",
"N < 6 5 I 4 < b i i m n i a m 2 o #.3X8X8X8X8XtX8XMXcX{ = a : ; < b b i 4 4 l n 4 n B B n B B B B B ",
"C v 5 n n 4 4 C i n V n B n 0 # L.8XOX).[.(.#X#X+X#XpXnXL = & < 4 b b b i b b M M n b b M B C 3 b n ",
"M b z n l < l B m m V b c a . @.oX`.!.^.[.[.^.n.u.b.R.uXcXL u i b b 4 l < l b C B C l b n M n l C M ",
"V n n z h < c Y m i m b c 0 _ yX@X).^.!././.V.j.M.N.c.W.MX+.P Y V b b b b l b V n n b l 4 l b n Q V ",
"S R n b b M U T i b C c 3 + L.qX|.^.^.^.OXA.g.z.z.M.M._.oX4XL R T V n V B n B V M M b c < < b V ~ ~ ",
"Y V n n V Q Q T m m M i * { 6X X X).Q.'.[.c.g.z.M.S.A.M.R.sXO.* E B M B N M B S B B B C b < 4 V ! ! ",
"V B b C S W Q B m n c 4 o L.9X^.).).'.].Q.f.S.z.z.j.z.n.R.uX2X+ R z l M M n B S Q B n B b 4 < b V V ",
"F V C V Y Y Q V n B x * # eX(.^.^.'.'.$Xv.j.S.l.z.V.S.B.N.}.vX) d V n l < l N Q V V B b n n C b V M ",
"V B V V U Y S V b l g   ' 9X^.^.^.^.'.].v.z.l.l.v. Xz.B.M.W.aX+.d B n b l h B V N M b b l l l b C n ",
"b M M V Y Y F N l b l + P.OX^.^.^.^.{.^.v.z.x.l.N.>Xv.N.n.n.qX2Xw V V Y V 4 M S B M l < < 3 4 i V B ",
"M l l C V V S N B m i { 8X^.^.^.^.^.,XQ.n.S.z.g.~.1Xn.v.N.b.oXeXL Y m ! ! b B W B c 4 < < < < < l l ",
"b l g h V V D M l a d ..6X^.^.^.).^.>XE.M.M.j.f.{.1X(.c.n.n.R.rX| a U E W b B V M b < > , < 4 4 > : ",
"M l , l B Z V l l y 7 $..X^.[.^.^.[.+XE.N.N.j.h.:X<X%Xy.n.V.b.rXX.4 a m Y b b n b l < < < < i b b < ",
"z l M N F Z N M c y e I..X^.^.^.^.{.{.Q.N.V.j.E.;X-X:Xn.M.N.n.tXgX3 n a n n c b C 4 < < 3 b b n V B ",
"l M S ! Z N N N B y @ I.@X^.^.`.~.{.[.E.Q.N.h.~.-X=X-XE.v.N.N.6XgX= a z n m b n M b l 3 l n B V C B ",
"G G E R m V W ! ! d H yX(.^.[.).Q.[.[.Q.Q.b.R.>X-X=X-X%Xu.c.Q.XXlX= I c c 3 l h , i b b i l z z M M ",
"D S m m m B S W G t ^ 6X(.^.^.`.~.OX!.Q.Q.E.{.<X&X=X*X*X$XR.h.XX2X. 5 c c 3 < , g b C b 3 3 l c M M ",
"D D m m m V A A S d ' 7X(.`.^.!.Q.).N.!.Q.`.:X%X$X*X$X$X,X[.M.}.lXL I c c 3 g , < 4 l 4 ; 3 l b c n ",
"S N m m m n l x D q @.6XOX).^.!.Q.[.n./.).+X%X$X].$X$X].].+X/.F.cXL I z k c c c 3 4 b b 5 z M Q B B ",
"N N V n i < > > M 7 K.9X(.^.!.Q.Q.).v.w. X+X].].].'.].].].{.M.t.vX{ d 3 3 z M c b M V n b n V W W W ",
"E Z V m r < > > g o K.XX).^.!.Q.Q.!.V.%._.[.`.'.[.^.'.'.'.).f.t.cX) 0 ; 5 c B k U U Y V n m V Q Q V ",
"Z Z Z V b b j j g o [ XX).~.!.N.Q.!.V.=.h.OX'.'.^.^.^.^.^./.1.p.3X( = 4 l 5 k x A Q Q Q m n n V B V ",
"C V ! V M b M N C + i.#X).Q.N.N.B.B.z.g.:.OX^.'.^.^.'.^.[.B.;.p.3XL   4 3 - - k c B S Y m n B B A V ",
"R m V V V B M j V O s.OX(.Q.!.N.B.B.z.x.%. X^.^.^.^.^.!.).S.1.e.3XH   ; ; ; k g k c M V b b b V F ! ",
"R Y E ! V V M M N + K.@X_.Q._.M.N.A.g.G.*.A.[.^.^.^.^.^. Xz.1.k.zX) = 4 5 ; k , k l b b 4 3 b N Z F ",
"V E E W S N M M N 9 K..XE.Q.Z.v.M.A.g.H.-.j.[.^.^.^.^.^.|.f.2.k.zX( 8 5 5 g l , k l l < < 3 b M M N ",
"V V V V b v M D V 9 K.XXE.Q.n.n.M.A.g.x.3.;.).^.^.'.^.'.|.;.2.3.kX# * 6 3 l l l 3 4 h i 4 4 x N N N ",
"A V n i h v N S M 9 @.7XW.n.m.v.v.N.z.x.k.=.).^.'.`.`.'. X;.6.3.kX# & , 3 l c , 3 k l l 4 l l M F F ",
"F V y < < b A S v 9 @.7XW.n.n.c.v.Z.z.k.k.=.[.].].].].{. X1.2.3.xXL y 3 < b g , 3 , h h i 3 l h N N ",
"S M y 4 C B V A C 7 ' 5XW.n.v.c.c.Z.g.3.3.=.+X$X$X&X$X%X#Xf.2.3.I.L s c l B z , < < < < < l h j N N ",
"D M 4 4 M S V M g 7 ' 5Xm.n.c.c.w.Z.f.,.1.=.>X&X&X-X<X:X0Xf.,.D.U.w s l l Q N c l 4 < < g l h M N N ",
"g k k l M M Q U c 7 ^ 5XF.v.h.h.0.H.g.,.<.-.:X1X;X;X;XiX#Xj.,.D.hX8 s i W ! M h l x C l 3 3 l h h j ",
"g g h h x M U U M 7 ^ P.m.c.m.h.9.V.l.2.2.*.:X1X<X1X;XiXuX0.,.D.hXd p i b N x j g c n 4 l l h h j v ",
"- , < < g g z n n y @ U.F.c.r.r.q.m.j.,.2.*.sXsXiXiXiXpXaXf.,.T.gXu s p v h h b < b l l b g h g h h ",
"3 c V M M c m Y c : O +.d.c.w.q.8.m.V.1.4.-.nXMXmXmXmXmXnX0.;.Y.o.I R n b v g h < 3 4 5 < r g , < 4 ",
"z V W Q U B C B l ; * ..d.y.y.q.q.w.Z.1.7.>.BXVXwX` yXNXnXD.0.Y.dX! E C B M M c l 3 i b b l h h 2 2 ",
"c M z U B z h < k l < X.d.u.q.q.r.0.Z.1.7.>.BXbX%.e.J Y.NXD.:.I. .E C b b M S V m n b n V n M C n n ",
"B B B U U n M M h x n P [ u.q.w.9.0.H.g.,.*.T.&.J.x.G.&.=.p.Y.L.f N b g g b V W V n i n V B V V m m ",
"A c 4 3 5 n B M g x N P +.a.q.w.h.9.m.v.,.*.K 7.1.z.H.G.-.e.Y.' o C v h h h B V V n 5 n B M M N 3 3 ",
"g , 3 3 3 c n N M g N f } L.q.w.w.w.c.E.1.4.4.4.2.l.V.j.j.r.I._ y h h h b B V Y m ; < 4 C B b M k k ",
"k k , , < l z z b C C f e @.d.f.9.w.q._.k.<.5.5.2.g.j.v.c.F.bX% t j l b M V W Y m b n 4 l n < g , , ",
"c c k g h h z I i C r p f #.P.9.r.9.q.F.V.,.<.5.6.l.g.v.w.5XhXt r h b M V Q Y Y Y V Y b < l > > g > ",
"c c x x j v 5 z : : r r R | @.a.r.9.y.y.H.g.<.5.<.2.g.f.n.nX| N h g h B Y V V V Y Y ! B 4 r > > g g ",
"z c c l M b l 6 ; : C r R u } L.t.h.w.9.|.C.,.5.2.2.g.0.qX3Xw M h < l B Y Y V V V M W V C < ; g g g ",
"k 5 l l b l 4 3 : : i V B s e @.P.u.q.9.c.|.z.<.2.,.;.7XnX_ & l h l b V Y V V B B l M M c < , b , , ",
"b c , 3 5 b l k M 3 2 m Y E d { @.8.q.q.9.Z./.z.f.0.b.tXjXo ; g l b b b b b b b l < h h h < < l , , ",
"A C 4 3 5 z z c B l 4 n V Y C e ( [ L.a.P.8.7X7X7X6XeX3X+ 4 k , l l 4 < < < < < < g b , > b < < l 3 ",
"3 5 5 6 3 5 4 a b < 3 b B m V s u | ..#.#.} @.U.xXxX#.P d l c , l c l , , , c l g B M r g v h M > , ",
"; 5 5 6 4 4 5 5 3 ; ; 4 n n n n R a 9 $ @ . . . X X w s n c c k l l l , > g l l l N B h h h b b > , "
};
