/* XPM */
static char *_bdf7990015a4d5eb0fb1ea7eda1d4f06GepAnsWTI1QnF7i[] = {
/* columns rows colors chars-per-pixel */
"50 50 245 2 ",
"   c #5C6619",
".  c #656C1A",
"X  c #697319",
"o  c #7B7A18",
"O  c #6C6F0A",
"+  c #5D6E2E",
"@  c #596726",
"#  c #4F6639",
"$  c #556A35",
"%  c #5A6C36",
"&  c #546B3C",
"*  c #5B6D3C",
"=  c #5E653C",
"-  c #5C7334",
";  c #56723C",
":  c #5C723C",
">  c #5C793D",
",  c #557639",
"<  c #646C23",
"1  c #626C2C",
"2  c #6C7425",
"3  c #64742C",
"4  c #697926",
"5  c #797C2B",
"6  c #767A26",
"7  c #636E34",
"8  c #636E3C",
"9  c #6B7B35",
"0  c #64743D",
"q  c #68743D",
"w  c #63793C",
"e  c #677737",
"r  c #747C33",
"t  c #556C43",
"y  c #5C6E43",
"u  c #596B46",
"i  c #5C7343",
"p  c #5D7944",
"a  c #5D744A",
"s  c #577446",
"d  c #4F7440",
"f  c #616F48",
"g  c #637445",
"h  c #6B7444",
"j  c #647A44",
"k  c #6B7C45",
"l  c #64754B",
"z  c #6B754C",
"x  c #657A4A",
"c  c #6B7B4C",
"v  c #717D47",
"b  c #657C51",
"n  c #6B7B52",
"m  c #677654",
"M  c #717C52",
"N  c #A45B00",
"B  c #857C0E",
"V  c #AB6800",
"C  c #B76B00",
"Z  c #B47700",
"A  c #C67A01",
"S  c #7C8619",
"D  c #798227",
"F  c #728136",
"G  c #6C8144",
"H  c #6C814B",
"J  c #678349",
"K  c #71834D",
"L  c #728641",
"P  c #6C8353",
"I  c #6E805A",
"U  c #728454",
"Y  c #758858",
"T  c #898906",
"R  c #9D8900",
"E  c #938704",
"W  c #989300",
"Q  c #97991A",
"!  c #8F8A15",
"~  c #BE8301",
"^  c #A29608",
"/  c #A29013",
"(  c #A9A816",
")  c #888729",
"_  c #928E2B",
"`  c #8A9323",
"'  c #999528",
"]  c #878B31",
"[  c #8D9333",
"{  c #959935",
"}  c #A89B29",
"|  c #A49C36",
" . c #B59B20",
".. c #98A131",
"X. c #A5AA26",
"o. c #B5A726",
"O. c #AAA433",
"+. c #B9B736",
"@. c #ABB322",
"#. c #C88901",
"$. c #D68A00",
"%. c #CB9A09",
"&. c #DD9B00",
"*. c #D79402",
"=. c #D48115",
"-. c #CC9219",
";. c #EE8F07",
":. c #E59600",
">. c #EB9402",
",. c #E59D01",
"<. c #EB9B02",
"1. c #EC9509",
"2. c #ED9A0A",
"3. c #E4980C",
"4. c #F29504",
"5. c #F29B03",
"6. c #F29B0B",
"7. c #F3990B",
"8. c #F29B13",
"9. c #EF9B17",
"0. c #CEAA04",
"q. c #D3AC01",
"w. c #DBA800",
"e. c #DEB407",
"r. c #C9A718",
"t. c #D8AB13",
"y. c #C9B41A",
"u. c #D5B417",
"i. c #E5A401",
"p. c #ECA401",
"a. c #E3AA01",
"s. c #ECAC01",
"d. c #EEA40A",
"f. c #E8A809",
"g. c #F3A502",
"h. c #F9A601",
"j. c #F3AC02",
"k. c #FAAB03",
"l. c #F4AE0A",
"z. c #F7A70B",
"x. c #E4B300",
"c. c #ECB400",
"v. c #E5BB02",
"b. c #EDBC01",
"n. c #EBB70B",
"m. c #F3B302",
"M. c #F9B402",
"N. c #F3BB02",
"B. c #FABB02",
"V. c #F4B30A",
"C. c #FBB40C",
"Z. c #F5BA0B",
"A. c #FABC0B",
"S. c #ECAA13",
"D. c #F7AB16",
"F. c #EAB413",
"G. c #E6BA18",
"H. c #F9B817",
"J. c #D4B825",
"K. c #C0AE33",
"L. c #C6B634",
"P. c #D2B730",
"I. c #CAB025",
"U. c #E8B828",
"Y. c #FCB524",
"T. c #D48C26",
"R. c #ECC201",
"E. c #EDCB00",
"W. c #E6C500",
"Q. c #F4C302",
"!. c #FBC403",
"~. c #F4CC01",
"^. c #FDCD02",
"/. c #FDC40C",
"(. c #F5CB0B",
"). c #FDCC0A",
"_. c #F4C209",
"`. c #ECD301",
"'. c #F4D400",
"]. c #FCD302",
"[. c #FCDC03",
"{. c #FFD309",
"}. c #F4DA0C",
"|. c #FFDB0C",
" X c #F7D706",
".X c #EDCA17",
"XX c #FDC613",
"oX c #FECB13",
"OX c #F7CA18",
"+X c #FDD313",
"@X c #FFDA12",
"#X c #FFD21B",
"$X c #FDDC1C",
"%X c #F4D51B",
"&X c #EBD216",
"*X c #FCE402",
"=X c #FCEC02",
"-X c #FEE20C",
";X c #FEED0C",
":X c #F6E703",
">X c #FEF403",
",X c #FDFA02",
"<X c #FFF50B",
"1X c #FDFB0C",
"2X c #F5F70B",
"3X c #FFE414",
"4X c #FDE21B",
"5X c #FFED16",
"6X c #FFF312",
"7X c #FFF41C",
"8X c #FBFB1A",
"9X c #C3C72A",
"0X c #DBC529",
"qX c #DAC539",
"wX c #D7D62F",
"eX c #ECCB2B",
"rX c #E6C727",
"tX c #F8CA26",
"yX c #EAD52A",
"uX c #FAD727",
"iX c #E8CA37",
"pX c #F1CB35",
"aX c #F3D835",
"sX c #E9DA37",
"dX c #DFE02D",
"fX c #FCE728",
"gX c #FEF424",
"hX c #FDFD23",
"jX c #FEF52B",
"kX c #FAFA2A",
"lX c #ECE83A",
"zX c #F8E737",
"xX c #FEF93B",
"cX c #FCF837",
"vX c #BBAF41",
"bX c #D2CE44",
"nX c #EBD24C",
"mX c #FAE945",
"MX c #FEFB43",
"NX c #F9F447",
"BX c #FFE95D",
"VX c #FFF95B",
"CX c #FEF858",
"ZX c #E7E84A",
"AX c #FFF869",
/* pixels */
"l & $ - c g y y a l i : - - b b i + X O T E W W W W E W / / B O . 3 0 g = = l i ; p n b q g z M l g ",
"g ; % j k i * f l x i j w 3 F 3 X ` +.qXqXmXzXzXlXlXaXsXiXqXL.L.' 6 6 1 8 x y i p p c l 0 0 c l c x ",
"> : g x e - * h w j H x w 4 O Q 9XlXcXcXfX4X$X%XuXuX$X@X@X+X%XeXyXiXO.B < * j x > g g g j k i i g j ",
"w > x j - + 0 j G : H G 4 S +.NXkX5X}.W.R.R.R.b.b.b.N.!.^.].{.{.oXOXaXbX' X e w j g g g j j , > g g ",
"x j j w : : g P j w G   T lXxXjX-XW.v.b.N.N.m.c.m.m.j.M.M.B./.XX/./.(.&XyX@.X 9 G g l f * 0 i x P n ",
"H J j j g g c U j e   X.MXjX}.W.W.R.N.m.B.M.V.V.j.M.g.h.g.g.V.A.oX/.].'. XfX+.S 3 g n f $ : p b Y Y ",
"H c j g j J P P G 4 @.lXcX}.R.Q.b.N.N.N.m.m.l.V.j.j.g.h.h.g.p.p.Z.{.].].Q.(.%XL.D g M z 8 % i x Y Y ",
"J j g j J P H J 3 ` NXkX`.E.b.b.Z.Z.N.M.m.M.s.l.j.j.h.h.h.g.g.m.s.Z.@X|.].^.^.yXO.5 g z h 8 y l c c ",
"c c c l P P J F S ZXkX`.Q.N.Q.Z.N.M.M.B.s.m.n.s.s.C.g.h.h.g.g.M.M.a.b.@X3X'.).XXpX} 7 z h q c p g g ",
"k x z n I I P 4 9XkX:XE.N.M.N.B.Z.m.j.M.c.b.4Xx.s.h.h.k.g.h.j.g.j.m.N._.3X-X^.).OXqX5 f q 0 : s j l ",
"g l l n m I F ..cX<XE.N.B.B.N.N.N.m.M.j.x.|.6X'.w.j.g.k.g.l.k.g.h.M.j.N.[.;X].^.^.aXO.< 7 % ; : x c ",
"g g y m P J D bXgX`.b.Z.B.M.N.b.c.N.M.c.~.8X>X6Xx.i.g.g.j.p.j.C.M.j.C.m.E.=X=X[.~.&XqXB < % : , : i ",
"m g $ % c r ( xX:XW.N.N.M.Z.Z.m.c.N.s.R.6X>X,X1X3X%.l.f.s.p.V.m.N.m.B.B.N.].<X:X'.E.%X@.. u * * $ $ ",
"l y ; - q D dX7X`.v.Z.m.N.Z.Z.m.m.c.e. X1X>X,X2X8XW.w.l.z.V.j.N.c.N.M.B.N.~.;X>X`.[. XrX5 * * g 8 y ",
"y a x J 9 { xX}.v.N.m.b.N.c.N.m.j.s.'.6X>X,X,X,X>X7Xw.s.z.k.m.c.c.Z.N.N.Q.Q.[.<X[.~.~.eX| 1 h l c c ",
"g c x K 6 bXjX~.N.Z.Z.c.b.c.m.m.c.b.5X<X,X>X>X,X,X<X@X*.k.g.N.N._.b.Q.Q.N.Q. X;X;X~.).uXK.6 v n x x ",
"k M Y 9 D ZX$XE.m.Z.m.n.Q.c.c.x.E.[.<X<X>X>X<X<X>X1X;XE.a.b.b.b.Q.b.Q.Q.Q.!.R.-X-X'.].OXiX! 1 x x c ",
"k c n 9 Q NX$Xb.B.s./.c.x.b.Q.@X3X<X>X>X>X>X<X<X>X>X=X<X3X~.v.b.v.Q.(.N.!.!.Q.{.-X'.'.oXiX/ 1 i j x ",
"h c b 9 @.xX.Xc.Z.M.c.Q.^.|.4X3X;X=X=X=X=X:X=X:X=X=X=X*X-X5X|.{.Q.R.b.).B.!.c.R.-X].^.(.uXo.< p g g ",
"M M b 4 9XfXv.x.s.H./.|.|.3X|.|.[.:X*X*X=X:X:X:X*X:X:X:X-X|.-X-X|.).)././.N.N.N.|.{.^.(.uXI.2 H c c ",
"M z h X wX4Xa.i.w.&.$X{.|.].[.|.|.[.[.[.[.[.[.[.*X[.[.-X|.].].[.|.).uXV.w.H.c.c.{.{.~./.(.0X5 H P P ",
"M M k 5 sX}.a.i.f.#.m.|. X'.[.].].'.].].].].].].~.{. X'.~.|.].].].{.tXZ A Z.m.c.~.{.).~.{.eX) k H P ",
"c K K ] zX~.a.p.f.,.*.+X^.E.'.~.^.^.^.^.^.^.^.^.^.^.).^.^.^.^.^.~.+Xf.N H.Z.c.s.B.^.).).^.eX) w k c ",
"v v w [ zXQ.p.<.p.i.$.l.{.'.].].^.).).).^.!.).^.).^.^.).^.^.^.]./.XXN 3.H.c.j.s.N.{.!././.eX_ e c n ",
"v c G ] zX!.,.g.p.p.3.$.#X!.^.^.].^.^.^.^.^.^.^.~.{.~.].~.^.].~.uX#.C H.j.g.l.j.N.^.!.!./.pX_ h M U ",
"k v G [ aX!.,.5.,.<.8.$.j.oX~.^.^.^.^.^.^.^.^.^.^.^.^.^.].^.Q.+Xn.N 6.D.m.s.g.p.N.^.!.!./.eX) f v M ",
"c K G { aXQ.<.5.p.2.8.1.,.oX^.].^.^.^.^.^.^.^.^.).^.].~.^.^.~.uXZ A H.g.k.M.g.p.N.^.!.!.Q.eX] m h f ",
"c k k ] aXQ.i.6.2.2.7.7.:.s.).^.^.^.^.^.^.^.^.^.^.^.^.^.^.^.+Xp.V Y.z.k.g.g.g.s.B.^.!.!.Q.rXB l z n ",
"z c g 6 yX(.,.2.1.2.>.4.:.,.{.~.].^.].^.].].^.^.^.{.^.].^.).OXC $.D.z.k.g.g.g.p.N.).!.!.~.0X5 f M M ",
"c c f X 0X}.,.2.,.2.>.5.>.p.|.|.[.'.].].].].].|.{.'.].].].+XF.V D.<.g.h.5.z.h.s././.B.N.(.J.2 a z z ",
"M z f . y.uXi.2.,.<.<.>.>.g.3X*X*X*X=X*X*X*X-X-X-X*X*X*X[.@XF.Z d.<.<.>.1.z.g.g./.).!.N.G.r.< f z z ",
"z g f < ( uXi.,.<.:.<.>.<.p.7X;X;X=X=X=X>X=X=X;X;X=X=X>X=XgXG.V z.:.>.>.4.;.<.p./.!.!.n..Xo.< z f z ",
"* i y < Q pXD.:.3.:.<.<.>.s.7X2X1X<X<X>X,X,X2X1X8X<X>X,X>X7XF.C 6.>.<.4.4.4.>.g.oX!.V.G.iX! 1 a u u ",
"$ * i + X nXH.<.1.1.:.<.5.m.gX8X2X2X<X1X1X2X2X2X6X6X1X>X2XkXF.C 6.>.4.>.4.4.:.C.oXb.n.U.qXo 1 u u a ",
"$ & & %   vXtX<.:.>.<.g.:.s.gX8XkX8XhXhX8X8XkXkXcXjX8X8XhXjXU.=.6.>.1.>.4.4.i.XX/.N.b..X+.. 1 : i y ",
"i p b c 0 { pXm.<.<.<.p.<.n.xXcXkXcXcXxXxXMXMXMXmXNXcXjXcXNXt.A 5.:.1.1.4.:.s.XX!.c.c.rX' . % $ * % ",
"j x P I J 4 0XXX,.<.<.<.z.S.mXVXCXVXAXBXU.%.%.iXBXAXVXCXNXVXT.A 2.<.>.4.>.<.XX/.x.x.n.J.B 8 8 * ; ; ",
"p p b b p X / pXn.,.p.1.:.Y.AXAXBXnXr.Z A #.#.#.~ t.iXAXAXAXT.A 8.<.>.>.:.s.oXZ.x.x.U. .2 h l l j j ",
"b x b x p w D bXtXa.,.S.<.S.U.-.Z Z #.S.Y.H.j.V.S.*.#.#.U.BXA A 8.>.>.>.<.B.XXb.e.u.K.! r g b b j j ",
"m a s s p J < | aX.Xi.d.p.&.~ *.S.H.Y.l.s.c.s.p.5.5.S.$.#.#.N A 8.1.>.<.j.oXN.a.F.J.| 2 v x l x i : ",
"u u & * i h k X L.fXZ.i.d.d.H.V.j.m.j.n.s.s.p.5.5.4.>.1.1.7.;.;.;.1.,.p.oX/.s.a.u.K.4 - k w g x s s ",
"a u y % % i g 3 T sXuXb.f.,.l.s.M.N.j.s.p.p.p.h.4.1.1.1.1.4.4.4.4.>.p./.XXx.w.t.L.' 3 i i > 0 & # # ",
"a s 8 % % i l j X Q dX4Xx.s.s.p.m.s.j.k.g.p.p.<.5.4.>.1.1.;.4.4.4.p.B.).b.w.q.u.| r k w $ y * # t t ",
"p j 0 w : i a l % O ( zXfXb.x.c.s.n.j.p.p.p.<.1.>.1.1.7.7.4.>.:.<.A.+XR.0.0.y.o.) k Y w ; y t # t d ",
"p j g g p i g g $ + < O.mXjX`.e.a.a.p.p.d.6.7.7.>.7.<.<.:.,.<.s.XXoXb.0.0.I.O.6 9 j H x j * t u t & ",
"a s t s p > > * y i : 4 ( lXcX4XR.a.i.p.p.:.1.1.4.:.,.&.i.g.Z.XX+Xv.0.u.I.| F e q 0 a l q % u a t & ",
"b a , , > > g u g * - F 4 S bXMXfX].b.a.i.,.,.:.<.<.i.j.B./.XX(.e.q.r.K.[ 3 8 z 8 8 s ; $ ; * : & t ",
"m a d , > i g g x : , G K F o @.wXzXfXuX.XH.H.D.H.H.OXoXtXOXG.t.y.r.} B @ t g t 8 y i $ $ h $ % : * ",
"; i > , , : > j i ; % 0 c G 9 4 D { +.qXiXiXpXpXpXpXiXP.P.L.} | ] 5 < @ $ : a y y c g : * * 0 g & & ",
", > : ; : : > > : $ $ > j j j j G 9 X B E R R R R R R R E ! o 2 7 : : % & t t i y x g g * g y l & & "
};
