/* XPM */
static char *_f04d8401bcb4f82a9c70a6f7b81ff23P6N53XgXeTUH9uI5[] = {
/* columns rows colors chars-per-pixel */
"50 50 210 2 ",
"   c #010101",
".  c #0A0502",
"X  c #060A02",
"o  c #0C0A03",
"O  c #0B0B0B",
"+  c #060A09",
"@  c #130D05",
"#  c #130D0B",
"$  c #180F0A",
"%  c #190D01",
"&  c #0E100F",
"*  c #0A1202",
"=  c #141204",
"-  c #1C1305",
";  c #15110B",
":  c #1C130B",
">  c #141C0D",
",  c #1B1B0D",
"<  c #1C1A05",
"1  c #111313",
"2  c #1D1411",
"3  c #1F1A13",
"4  c #1A1C1A",
"5  c #161718",
"6  c #231A0B",
"7  c #2A1D0C",
"8  c #24150B",
"9  c #201611",
"0  c #241C13",
"q  c #291E12",
"w  c #261C1B",
"e  c #2A1F1B",
"r  c #1C210A",
"t  c #1C2012",
"y  c #1E221D",
"u  c #23250E",
"i  c #2C250A",
"p  c #262615",
"a  c #2B2213",
"s  c #292E15",
"d  c #20221F",
"f  c #2B231A",
"g  c #2D2D1B",
"h  c #222A1D",
"j  c #312413",
"k  c #342A16",
"l  c #3B2B14",
"z  c #33261B",
"x  c #332A1A",
"c  c #3B2C1B",
"v  c #34331C",
"b  c #3B321C",
"n  c #383619",
"m  c #2B351A",
"M  c #222323",
"N  c #2B2423",
"B  c #262B24",
"V  c #272628",
"C  c #2C2E2C",
"Z  c #362B22",
"A  c #3C2E23",
"S  c #2D3323",
"D  c #2D322E",
"F  c #3D3324",
"G  c #3C3C24",
"H  c #323A2D",
"J  c #323634",
"K  c #343833",
"L  c #393B35",
"P  c #3B3B39",
"I  c #402D1C",
"U  c #48381E",
"Y  c #49341F",
"T  c #443424",
"R  c #423E24",
"E  c #473928",
"W  c #503B24",
"Q  c #423F38",
"!  c #384126",
"~  c #3F432A",
"^  c #3C4A29",
"/  c #394132",
"(  c #444224",
")  c #4B4526",
"_  c #424229",
"`  c #49432B",
"'  c #4D4B2D",
"]  c #524125",
"[  c #594628",
"{  c #554929",
"}  c #424A3C",
"|  c #494D3F",
" . c #464A33",
".. c #4D5031",
"X. c #525233",
"o. c #535D3D",
"O. c #58593B",
"+. c #635B37",
"@. c #4E6535",
"#. c #546635",
"$. c #546A35",
"%. c #5A6D37",
"&. c #546539",
"*. c #5A653B",
"=. c #556B3C",
"-. c #5A6D3C",
";. c #547036",
":. c #56713C",
">. c #5C723D",
",. c #5E783F",
"<. c #5B7037",
"1. c #6A633E",
"2. c #616C3E",
"3. c #61743E",
"4. c #637B3E",
"5. c #464E41",
"6. c #434540",
"7. c #4C5142",
"8. c #585E42",
"9. c #505050",
"0. c #555A53",
"q. c #566443",
"w. c #5C6444",
"e. c #556D41",
"r. c #5C6E42",
"t. c #5C6B4C",
"y. c #5D624E",
"u. c #567140",
"i. c #5D7343",
"p. c #5E7943",
"a. c #5C7249",
"s. c #5A6353",
"d. c #5B625A",
"f. c #656545",
"g. c #626D44",
"h. c #646E4B",
"j. c #686949",
"k. c #627544",
"l. c #697445",
"z. c #647945",
"x. c #697C46",
"c. c #64754A",
"v. c #69744C",
"b. c #657A4A",
"n. c #6A7C4C",
"m. c #707E4D",
"M. c #636D53",
"N. c #636E5A",
"B. c #6A6D52",
"V. c #657352",
"C. c #6C7452",
"Z. c #6C7C52",
"A. c #69755B",
"S. c #6E7D59",
"D. c #717454",
"F. c #727E54",
"G. c #727C5A",
"H. c #676769",
"J. c #636665",
"K. c #6A7062",
"L. c #747D62",
"P. c #7A7F68",
"I. c #6E7A70",
"U. c #747D73",
"Y. c #688046",
"T. c #6C814D",
"R. c #668248",
"E. c #71824D",
"W. c #668050",
"Q. c #6D8252",
"!. c #6D8259",
"~. c #728353",
"^. c #718258",
"/. c #798A5B",
"(. c #748B5D",
"). c #758163",
"_. c #798363",
"`. c #7A866A",
"'. c #7A9163",
"]. c #7E857B",
"[. c #838E70",
"{. c #889873",
"}. c #90A27C",
"|. c #8F9E89",
" X c #929392",
".X c #999B9A",
"XX c #9AAB87",
"oX c #9CAC8A",
"OX c #95A18D",
"+X c #9BA798",
"@X c #A1A99E",
"#X c #9FA4A0",
"$X c #A6A8A7",
"%X c #A8A8AA",
"&X c #ACBAA1",
"*X c #AEB6B2",
"=X c #BABDBD",
"-X c #B4C7A6",
";X c #B7C8A6",
":X c #BDD0B0",
">X c #C5CEC8",
",X c #CDDAC6",
"<X c #D5DED6",
"1X c #D5E3C8",
"2X c #DDEDD2",
"3X c #E1EEDD",
"4X c #E3F4DB",
"5X c #DCE2E0",
"6X c #E2EBE3",
"7X c #E4EEEA",
/* pixels */
"k.$.$.3.z.3.%.>.4.3.3.3.%.3.z.x.3.l.n.k.4.,.:.z.u.=.=.c.b.Q.n.c.3.k.k.i.e.-.r.k.e.c.n.b.i.k.n.E.k.k.",
"k.%.%.z.x.3.%.3.k.k.z.k.k.3.4.z.3.3.k.3.<.4.,.i.:.a.u.u.i.b.-.%.-.k.k.k.r.r.k.c.k.c.n.z.k.z.z.z.b.b.",
"3.>.3.x.z.>.>.k.z.x.x.x.z.3.z.k.l.3.3.x.<.,.4.p.R.R.p.>.3.3.#.#.-.k.k.i.>.i.k.b.k.c.k.k.z.x.k.>.c.x.",
"4.k.z.z.3.%.>.x.z.x.Y.x.z.z.3.3.z.4.3.4.4.,.R.z.R.R.p.b.z.l.4.4.3.3.i.k.k.-.k.c.b.c.i.k.k.z.3.>.c.k.",
"b.z.z.k.%.%.z.~.c.z.k.k.3.k.c.z.x.E.z.4.x.Y.R.p.p.x.z.n.E.E.E.E.x.z.z.k.k.i.i.n.c.z.k.i.>.i.k.z.m.n.",
"T.T.x.k.k.z.T.~.x.z.k.>.>.>.k.x.x.E.x.x.z.,.Q.'.'.'.Q.i.x.n.E.E.E.n.z.x.b.k.b.T.b.z.z.k.-.%.k.n././.",
"T.n.z.z.x.T.~.T.z.z.k.>.>.%.k.z.x.E.n.~.b.!.XX-X:X-X-X}.~.v.l.z.~.x.z.z.x.k.x.~.b.b.z.k.k.-.i.n.~.~.",
"n.z.k.z.T.~.~.n.n.x.k.k.>.>.>.k.x.E.E.n.Z.oX2X4X|.|.4X1X{.n.x.z.n.c.>.z.z.k.z.T.n.n.b.b.k.>.-.k.n.n.",
"T.x.b.b.Q.Q.n.n.n.n.i.=.=.-.i.%.%.x.Q.Z.`.&X2X>XI.I.,X1XoXZ.x.x.i.x.b.>.%.i.b.n.n.n.z.c.z.c.z.c.b.z.",
"b.n.n.n.T.Q.T.n.i.k.>.=.=.-.-.#.%.E.'.S.`.#X1X6X7X6X3X,XXXF.E.E.n.x.b.k.-.%.z.Q.x.z.k.i.>.k.k.k.c.k.",
"c.b.b.Z.Z.W.Z.b.i.c.k.k.i.c.k.e.x.3.W.!.).].+X*X5X<X$X.X[.v.E.~.n.x.n.W.n.k.k.n.z.k.>.%.-.-.i.-.n.n.",
"k.i.i.c.n.Z.n.b.n.n.b.c.c.n.n.n.x.n.b.V.A.N.d.J.>X*X0.s.`.F.l.~.~.Z.Z.~.Q.b.b.T.z.z.r.%.-.>.-.>.k.k.",
"c.i.=.r.n.Z.b.c.c.c.b.n.Z.b.c.n.Z.v.B.L.A.d.U.$X=X=X XK.y.M.C.v.Z.b.Z.!.Q.c.k.Q.b.k.%.=.%.e.k.i.#.#.",
"b.r.=.r.n.Z.Z.i.e.i.b.Q.Z.c.k.a.V.V.V.d.L > 6..X%X%X[.K ,  .B.A.!.b.c.Z.Z.c.i.b.k.i.-.=.=.>.>.k.g.-.",
"k.k.k.b.n.Z.b.k.i.i.c.n.c.i.e.r.N.s.h X +   + 9.%X XJ       X S t.a.Z.x.c.k.k.k.c.i.-.=.>.i.k.b.n.n.",
"r.c.Q.^.Q.n.c.c.v.k.-.=.&.&.e.B.! X           C H.J.5   X       * ^ V.A.c.n.n.3.c.k.>.-.i.c.n.n.x.b.",
"m.F.~.Z.Z.v.F.~.~.z.:.@.e.o.o.p X               +                 * x L.G.h.e.k.%.>.z.z.p.a.k.v.n.b.",
"l.n.n.Z.n.v.m.F.E.i.$.=.q.8.p o O                               + = ; G D.r.r.$.%.k.i.p.u.u.i.k.b.c.",
"x.x.n.n.n.v.n.m.m.k.z.u.q.! = # # X                             X : - 6 O.C.i.-.>.>.i.i.:.:.3.c.c.k.",
"l.m.b.n.Z.c.k.2.l.k.c.a.q.r = = @ X                               # 0 q v B.Z.k.-.i.i.i.i.i.l.n.n.n.",
"m.m.l.b.h.r.*.O.v.c.r.r.m = , : o                                 o 8 q v .._.g.k.c.b.b.p.p.n.E.Q.~.",
"m.x.n.x.k.=.#.#.*.k.C.o., p 0 @ o                               . . @ q F ) D.m.Z.Z.!.W.p.b.n.n.n.n.",
"n.m.~.n.c.k.r.g.g.=.h.s , p 0 . #                               . . $ 6 k ` X.F.Z.Z.Q.W.W.b.x.b.b.n.",
"z.n.E.Z.c.k.c.v.g.v.h.u a 0 $ # # X                               : $ % j _ X.v.v.Z.Z.W.Z.p.z.n.n.n.",
"n.m.m.n.n.c.g.r.c.h.f.p 6 - : 9 #                               . $ $ - 8 l ' D.h.b.V.p.z.k.k.x.F.F.",
"n.m.E.~.m.n.k.k.Z.h. .< 0 q 0 2 # X                             . @ 8 f j 7 l f.r.a.p.a.>.-.k.x.F.~.",
"x.m.~.~.n.b.c.c.S.j.G < z Z a : # .                               # : f I l l { g.i.r.u.=.-.k.c.k.l.",
"x.m.m.l.k.k.c.b.Z.v.G a F A e 8 # X                             . ; : 7 I W Y ) j.r.p.u.-.>.k.b.v.v.",
"m.v.l.k.3.3.z.Z.c.B.( l E c 7 - o                                 # : 7 I W [ +.-.=.i.i.r.g.i.k.F.F.",
"m.v.3.3.-.k.x.W.c.h.` c T c 7 - o X                               O : a I W [ 1.2.-.e.u.k.r.r.r.v.v.",
"m.l.2.2.k.x.n.Z.k.j.) c T c 7 = o                                 o @ 8 l W [ 1.2.=.:.e.r.i.i.r.v.v.",
"n.k.-.2.c.n.b.p.g.*.` k A c 6 @ .                                 + @ 7 l Y W f.l.i.:.:.r.g.k.v.v.j.",
"-.-.r.k.c.b.n.Q.k.h.G j F z ; o o .                             + O O 2 z E E f.j.v.p.i.=.i.r.r.t.r.",
"=.%.r.i.i.c.W.Q.b.h.~ Z Z 3 @ @ o                               + + # # 8 I ` 8.j.k.z.i.i.>.g.r.r.r.",
"@.@.=.q.=.e.i.b.k.h._ a 0 2 = O +                               . . # 2 8 i R f.*.g.k.>.>.r.-.=.r.r.",
"a.p.n.Z.b.p.b.Q.r.g.G : 9 w 3 o O                                 . . : 7 7 i O.2.-.>.,.e.r.r.*.%.%.",
"p.W.!.!.W.T.b.z.k.o.v 0 e w 2 . +                                   . @ q k i ( g.-.,.i.k.i.r.r.>.;.",
"p.p.b.V.b.i.>.-.k.*.G p N 9 #       +   +                       .   . @ 8 k S ' v.c.z.b.x.b.c.c.x.4.",
"p.W.b.b.Z.b.z.p.r.j.L a 0 $       +       +   + + + O O & & & & 1 O # 2 $ 9 S f.G.v.c.b.n.x.x.n.x.x.",
"b.a.a.p.k.c.p.p.e.v.R , : .         + + + O 1 5 5 4 4 d M d d M M V V V N 0 g f.G.c.i.p.x.c.c.x.>.>.",
"=.=.=.e.i.k.p.z.c.C.G *         X + & 1 4 y M B D J J K J J J J J P P L Q S s 8.Z.=.:.i.z.n.i.b.u.u.",
"i.e.=.=.r.i.i.p.n.k.n = @ o > r t y B S D K / / / / } / / } 5.5.7.} | | 7. ._ &.Z.g.c.>.>.b.-.-.&.=.",
"z.p.i.e.e.i.p.z.k.v.B.B.L.P.L.).L.!._.).).).).!.!.K.A.V.a.N.t.N.t.q.h.B.D.G.C.G.n.n.~.i.-.k.&.#.e.&.",
"p.z.c.i.r.i.p.b.=.=.g.v.G._.S.!.Z.Z.Z.c.c.n.Z.V.V.b.V.a.a.a.V.a.w.=.g.v.m.^.~.n.n.n.~.x.-.r.#.&.i.u.",
"p.p.p.c.b.a.i.i.$.&.v.v.C.F.v.z.x.z.k.i.c.b.Z.!.b.b.V.a.a.V.W.V.%.>.c.z.T.Q.n.n.n.z.T.n.k.i.&.r.q.e.",
":.>.i.i.a.p.p.:.%.-.g.l.v.v.i.4.T.R.x.b.z.p.a.b.!.W.b.a.a.a.a.e.>.,.,.z.~.W.c.n.z.%.z.z.k.i.&.c.=.=.",
",.>.=.r.a.p.u.:.z.>.k.v.~.E.4.4.Y.x.z.R.x.p.p.p.!.b.a.e.e.a.e.e.p.i.i.i.b.a.i.i.i.%.k.%.-.r.-.i.-.=.",
"R.p.=.i.p.b.p.i.R.>.%.k.E.Y.4.Y.,.:.<.p.i.u.a.p.W.a.u.u.a.a.a.u.a.i.i.e.i.e.i.=.e.>.k.#.#.k.r.=.e.i.",
";.p.p.,.,.>.,.,.>.<.>.4.x.x.x.x.T.T.,.z.p.;.i.>.i.b.p.W.a.a.a.u.i.i.u.=.@.e.p.i.-.b.c.r.r.k.k.c.&.&.",
";.,.,.;.;.,.,.i.>.$.$.:.k.z.z.b.T.T.p.z.z.;.p.>.i.p.b.W.W.p.a.u.p.a.i.=.=.u.i.i.i.V.b.r.r.g.k.c.=.=."
};
