/* XPM */
static char *d07ab2cd4578483fa90ad584e95a834dMRIB7YoI6WuQ8swk[] = {
/* columns rows colors chars-per-pixel */
"50 50 176 2 ",
"   c #000000",
".  c #0A0606",
"X  c #0F0909",
"o  c #140C0C",
"O  c #311D1E",
"+  c #392123",
"@  c #3D2537",
"#  c #482A2D",
"$  c #4D5F32",
"%  c #4E6334",
"&  c #4F6839",
"*  c #536535",
"=  c #556A35",
"-  c #556538",
";  c #556B3B",
":  c #596D3C",
">  c #567135",
",  c #56703B",
"<  c #5B713C",
"1  c #5D783D",
"2  c #61733D",
"3  c #627A3D",
"4  c #4C2E41",
"5  c #4D3047",
"6  c #583240",
"7  c #54334B",
"8  c #683D40",
"9  c #663A53",
"0  c #6D4043",
"q  c #73444B",
"w  c #6D4150",
"e  c #7A455B",
"r  c #7C435D",
"t  c #556B41",
"y  c #5B6D42",
"u  c #596945",
"i  c #567040",
"p  c #5D7242",
"a  c #5F7943",
"s  c #5E7349",
"d  c #5F7A49",
"f  c #636E45",
"g  c #6C6F4B",
"h  c #617544",
"j  c #687747",
"k  c #637A45",
"l  c #697B45",
"z  c #63764A",
"x  c #69744B",
"c  c #657849",
"v  c #66794B",
"b  c #647A4A",
"n  c #697A49",
"m  c #68784B",
"M  c #697D49",
"N  c #6A7C4B",
"B  c #6D7F49",
"V  c #68794E",
"C  c #697C4D",
"Z  c #6A7F4D",
"A  c #6C7E4F",
"S  c #707E4D",
"D  c #776F52",
"F  c #7E6E55",
"G  c #6C7D52",
"H  c #777452",
"J  c #737F54",
"K  c #7A7B53",
"L  c #834C52",
"P  c #92555A",
"I  c #97585D",
"U  c #87775A",
"Y  c #864661",
"T  c #8A4B62",
"R  c #914C67",
"E  c #944C68",
"W  c #9B4C6B",
"Q  c #8F5066",
"!  c #975767",
"~  c #99556B",
"^  c #9D5B6C",
"/  c #A04E6E",
"(  c #A25170",
")  c #AD5474",
"_  c #B25676",
"`  c #B65778",
"'  c #BC5A7B",
"]  c #987363",
"[  c #9C7D66",
"{  c #A77D6C",
"}  c #AA7A6D",
"|  c #B0756F",
" . c #BB6D7A",
".. c #B37672",
"X. c #B87673",
"o. c #BF7578",
"O. c #C5767B",
"+. c #CC767E",
"@. c #C57B7C",
"#. c #509D43",
"$. c #608045",
"%. c #6E8046",
"&. c #658049",
"*. c #6C804A",
"=. c #6C814E",
"-. c #6D814F",
";. c #70814A",
":. c #71824E",
">. c #70834E",
",. c #73844E",
"<. c #6D8052",
"1. c #6D8252",
"2. c #708351",
"3. c #708353",
"4. c #728353",
"5. c #718553",
"6. c #758756",
"7. c #7B8555",
"8. c #768955",
"9. c #788A56",
"0. c #758758",
"q. c #798758",
"w. c #788A5A",
"e. c #7D9259",
"r. c #828459",
"t. c #858A5C",
"y. c #8E895E",
"u. c #83985D",
"i. c #8E8960",
"p. c #988866",
"a. c #9A8C66",
"s. c #979467",
"d. c #A9806E",
"f. c #A48D6E",
"g. c #A5906B",
"h. c #AA8E70",
"j. c #B48F76",
"k. c #BD8B7A",
"l. c #AA9671",
"z. c #B39175",
"x. c #BB907A",
"c. c #C9817F",
"v. c #C2917D",
"b. c #D66387",
"n. c #DB6689",
"m. c #CE7780",
"M. c #CE7981",
"N. c #D37C83",
"B. c #D37986",
"V. c #D97E86",
"C. c #E3698D",
"Z. c #E96C90",
"A. c #DA8087",
"S. c #DC818A",
"D. c #D78F89",
"F. c #DC8F8A",
"G. c #CB9181",
"H. c #D29085",
"J. c #D59288",
"K. c #DC928A",
"L. c #E3838C",
"P. c #E2918E",
"I. c #EA8791",
"U. c #E78892",
"Y. c #EC8B94",
"T. c #F28D96",
"R. c #F48F98",
"E. c #F88E99",
"W. c #E59191",
"Q. c #E99293",
"!. c #F39397",
"~. c #F59198",
"^. c #FD949D",
"/. c #FF95A0",
"(. c #FF99A2",
"). c #FF9EA8",
/* pixels */
"k = * 2 k h = : 3 h 2 < < 2 l M : h j l 1 < p a ; = ; p C -.-.c < x h : : : < h ; c A c p h C 5.h j ",
"3 : ; l l 3 : 3 3 h j h 2 3 h l 2 3 3 j h < p a a , < < p h : - y h c h p y p j h c V h h c M z c c ",
"2 < 3 M j 2 2 3 k k M M l j 3 < 3 2 2 h 3 1 a a &.&.a p 2 2 : - : h h h y y l c j h h h c n h : j c ",
"h h j l < ; < n l k M M c h h 3 j j h 3 k k $.k &.&.k k j B j l h y p p < p h l z h h h c c h : h h ",
"l n k h : ; j -.k k h h h 1 h l S B 3 l k M $.k k k 3 B B *.,.,.M c s h h p h n h h p h p y h c A A ",
"-.*.M h 3 j -.8.c h h < : p j n B B B B k 3 k $.< 3 3 3 l l %.;.2.n l c n h z G c c z p < : h C w.w.",
"-.M j h M -.-.>.k c h < < < h k B B ;.B l 1 3 1 < 1 3 3 B 3 3 l 5.c h n c z c 2.v c j l 2 : h j 6.6.",
"C l 1 h *.5.>.M l l j h 2 : 2 h l B ;.;.k 1 < 1 1 1 3 B 3 3 l 3 A h p k c h c 1.C c z c c : : h n c ",
"=.M c c =.-.-.M -.M h - ; : p - : M 8.M k p $.$.1 > > 3 %.3 %.%.h c c p ; < n -.G n c h j c c j j j ",
"c c n C A -.C n p p y = ; : ; - j S 6.1.l $.b $.1 > < k 3 %.%.,.l c c h h y h -.n h h h p p p h z h ",
"h h c =.1.G =.v h h h p h z h : z A 1.C b k a i > , < 3 B 3 %.8.=.c c -.l y j 1.c s p : : : 2 : c n ",
"z h p z C G v c V v n c c c G G x x v v b b a i , , k $.l 3 3 ,.4.=.C 4.1.z h 5.l h y : : < y : h p ",
"c y ; y V G C h z z c C V V c c G V z V G G d i ; 1 &.*.B 2 2 3 5.c n 8.2.z h -.z p : ; : : h y - * ",
"c p ; p n 1.c h y p n w.5.k h y G f s s v d s s , a c -.B 3 2 2 M h k C C k *.n h p : = ; : 2 h < 2 ",
"z z h V G G c s p p c H.K.y.h s s u u u s s d b d d $.-.*.%.S S k h c k 5.z.~.y.j < : ; : h h c C C ",
": c G 4.1.n c z V h s K./.^.H.t.z u u z t.f.G.J.P.K.K.H.x.g.y.7.a b -.h.~./.^.s.c j y y p c =.C c l ",
"A J 7.J V n G 6.2.z < F.^.^.^.^.z.y.l.W./././.^.^.^.^./././.^.K.l.s.K.^.^.^.^.s.; p h k h p h h M M ",
"j B B V n j A J 4.z p D.^.^.^.^././././.^.~.^.^.^.^.^.~.^.^.^./.^.^.^.^.^.^.^.y.< p s s p < p h c c ",
"j B j M M V n V G c p G./.^.^.^.^.^.^.^.^.^.^.^.^.^.^.^.^.^.^.^.^.^.^.^.^.^.^.7.; 1 3 < : : p h k h ",
"S j B x V n h f C V z h./.^.^.^.^.^.^.^.^.^.^.^.^.^.^.^.~.^.^.^.^.^.^.^.^.^.~.-.< p h p < h c =.C C ",
"n j j j h : - $ n c c r.^.^.^.^.^.^.^.^.^.(.(.^.^.^.^.^.(./.^.^.^.^.^.^.^.^.J.k s c b b k b -.1.1.1.",
"S S S m f : - $ ; y z 2.~.^.^.^.^.^.^./.~.M.V.^.^.^./.~.N.V.^.^.^.^.^.^.^./.v.$.C -.1.&.c c c 1.C =.",
"S S S S j p h f ; p z a./.^.^.^.^.^./.T.8 . o I ^.^.~.0 . o P ^.^.^.^.^.^.^.L.4.M =.1.1.M z l V c n ",
"l V S A j f h c y z -.W.^.^.^.^.^.~.(.M.X     + T.).A.o     O Y.(.^.^.^.^.^.R.d.d b &.1.C b c c A G ",
"S S S N N x f : j p i.^.^.^.^.^.^.~.(.U.#     8 U.Y.S.#     8 ^.^.^.^.^.^.^.^.N.b k c M h h h n J J ",
"S S 2.J S n h h V c x./.^.^.^.^.^.^.^.^.V.q 6 Y E Q Q r 6 L L./.^.^.^.^.^.^./.V.U p s p p y h x G J ",
"j S 7.2.A l c z V A F./.^.^.^.^.^.^.^.(.N.E ( ' n.n.b.` / ~ U.(.^.^.^.^.^.^.^.L.p.p < : ; : p n h f ",
"j S S n h f c x c 2.W./.^.^.^.^.^.^./.T.Q W Y r b.n._ e R E ^ ~.^.^.^.^.^.^.^.L.{ 1 p p < p h c n H ",
"n n j h : 2 z A h G Q.^.^.^.^.^.^.^.(.S.E ( 7 7 W C.r 5 9 ) ~ Y./.^.^.^.^.^.^.V.} p p p p 2 f h J J ",
"S l f : f h x J p M W.^.^.^.^.^.^.^.^.U.T ( T r b.Z.) e R E ~ E.^.^.^.^.^.^.^.V.} : , < p < < y x m ",
"S j 2 f j n V A y j J.^.^.^.^.^.^.^.^.^. .r W ' b.n.b.` E Y B./.^.^.^.^.^.^.T.N.[ , ; , y p y 2 x x ",
"j h : y j V n c : p x./.^.^.^.^.^.^.^.^.~.M.! T Y Y T T ^ N.^./.^.^.^.^.^.^.S.+.p.k p < : p z z x g ",
": : p p s c =.1.p < r.^.^.^.^.^.^.^.^.^.^.^.T.M.w @ e S.R.^.^.^.^.^.^.^.^.T.N.O.f.x.7.p K p y : u u ",
"; < p p p d =.1.p h k D.^.^.^.^.^.^.^.^.^.^.(.S.5 @ w T.^.^.^.^.^.^.^.^.^.S.+.{ u.G.z.$.y.k p y u u ",
"% & ; ; - ; a b k < j t.~.^.^.^.^.^.^.^.^.^.^.T.e 4 ! ^.^.^.^.^.^.^.^.^.S.+.M.e.#.s.K.f.U k < ; < h ",
"i b C c b a M 1.< < < k a.^.^.^.^.^.^.^.^.^.^.^.Q.S.~.^.^.^.^.^.^.^.~.S.+.O.k.l.u.l.a.M 1 2 ; ; < ; ",
"d 1.1.1.1.&.c C 2 ; : h j U T.^.^.^.^.^.^.^.^.^.^.(.^.^.^.^.^.^.^.Y.N.+.@.H d r.a.r.a h s p < : > < ",
"i d b b d s < ; : : 2 l l j H G.R.~.^.^.^.^.^.^.^.^.^.^.^.^.!.I.A.+.m...g h C =.C z h c n c z l k k ",
"C b b d C b b p < h j B B l j j U O.L.Y.T.R.R.R.~.R.T.Y.L.A.N.+.+.X.U ; ; h V 2.1.c h n C c c M %.$.",
"C d i s d b d p : : B 2.>.j : ; k k H ] ..O.N.N.N.N.N.m.+.O.| ] g : ; p : < h =.1.h p h n c c M > < ",
"; ; ; ; p k c c j < h V M : 2 >.s k k , ; y x D F F F D z s s s p : : : h c C A M * ; < c n p n i s ",
"s i t ; t < s k l < 2 l S B *.4.k M k , ; y ; & i t t t s t u u h 2 h h j =.-.1.M h c : y n : : & & ",
"a d p i ; i s k h 3 : j >.9.9.4.M &.l 3 p p p p s s s s u t s s : : h h k A 1.-.C =.5.p ; z ; % & t ",
"b b d p p s a c ; ; : h S 5.,.M M M k h k k M &.d s d d s s s d ; : < c C 1.=.M G -.w.z : p * % s u ",
"s a d s p k s h - : < j l A l h k k 1 3 1 s C &.v d z s s s s v ; : h V =.1.C c C h 1.=.h p * p t t ",
"i i , s s s 1 : = ; h n l l j 2 1.%.k $.b a b C 1.C s s s s s s y h h n C -.n c n : c c h y * j & & ",
"b i i p s k h ; k < : n 5.M k 3 *.k k M k k s b 1.b s s t s u t z h h p c z h h p ; h : y p ; p , , ",
"1.a , , a c h < >.: = l 2.B n l 1 < > 1 p > i s 1.s t t s s s t p p : : : : ; ; : : h % * h : ; p ; ",
"= a 1 , 1 1 < k h < > h b *.M M =.*.1 k a ; a 1 d b &.1.d d i i s p p ; & ; s p ; v c p f p f c % ; ",
"> a 1 > 1 1 1 1 ; = = < h k h k =.*.a k k ; s , , a d d d s d , s k p ; = ; s h < M V < h y 2 c ; t "
};
