/* XPM */
static char *_f4b6008159b47d9aaa9099117be7ec2Mmf2HewkAtDTudeb[] = {
/* columns rows colors chars-per-pixel */
"50 50 145 2 ",
"   c #4E5F32",
".  c #4C6434",
"X  c #4E6A37",
"o  c #4C673A",
"O  c #4F693A",
"+  c #526534",
"@  c #536A36",
"#  c #586F37",
"$  c #536639",
"%  c #556C3C",
"&  c #5A6E3D",
"*  c #557136",
"=  c #5A7237",
"-  c #55713C",
";  c #5B723E",
":  c #5D783E",
">  c #62753E",
",  c #627A3F",
"<  c #556641",
"1  c #596744",
"2  c #566C42",
"3  c #5A6E42",
"4  c #5C6E48",
"5  c #567142",
"6  c #5D7343",
"7  c #5E7945",
"8  c #5D7449",
"9  c #5D794A",
"0  c #636F44",
"q  c #616F4B",
"w  c #627544",
"e  c #697746",
"r  c #647A45",
"t  c #697C45",
"y  c #627648",
"u  c #657548",
"i  c #65754E",
"p  c #637649",
"a  c #68774C",
"s  c #6A744C",
"d  c #637B49",
"f  c #657948",
"g  c #667848",
"h  c #677B48",
"j  c #667A49",
"k  c #65784A",
"l  c #66794B",
"z  c #677B4A",
"x  c #657C48",
"c  c #647F48",
"v  c #67784C",
"b  c #66794C",
"n  c #677A4C",
"m  c #67794F",
"M  c #667D4F",
"N  c #657A4A",
"B  c #687A4A",
"V  c #697D48",
"C  c #687C49",
"Z  c #6B7C48",
"A  c #6A7E49",
"S  c #697D4A",
"D  c #687C4B",
"F  c #6A7C4A",
"G  c #6B7F4A",
"H  c #6A7E4B",
"J  c #6C7D49",
"K  c #6C7F48",
"L  c #6E7F48",
"P  c #6E7F49",
"I  c #687B4D",
"U  c #697D4C",
"Y  c #6A7C4C",
"T  c #6B7F4C",
"R  c #6A7E4D",
"E  c #697C4E",
"W  c #6A7D4F",
"Q  c #6B7F4E",
"!  c #6C7C4D",
"~  c #6D7F4D",
"^  c #6C7C4F",
"/  c #6D7F4F",
"(  c #6A7C4C",
")  c #707E4D",
"_  c #627750",
"`  c #687750",
"'  c #657C51",
"]  c #6B7E50",
"[  c #6B7D53",
"{  c #6C7F51",
"}  c #6F7F50",
"|  c #6D7C53",
" . c #6E7F52",
".. c #6C7D51",
"X. c #727E54",
"o. c #6E8046",
"O. c #658049",
"+. c #67824B",
"@. c #66814E",
"#. c #6B8048",
"$. c #6C8149",
"%. c #6F804A",
"&. c #6E814A",
"*. c #6F824B",
"=. c #6B824C",
"-. c #6C804D",
";. c #6F804C",
":. c #6D814E",
">. c #6C804F",
",. c #6E804E",
"<. c #6E824F",
"1. c #6C814E",
"2. c #708248",
"3. c #70834C",
"4. c #71834F",
"5. c #73844E",
"6. c #72854E",
"7. c #73864E",
"8. c #71814F",
"9. c #668051",
"0. c #6D8150",
"q. c #6E8050",
"w. c #6F8350",
"e. c #6E8251",
"r. c #6D8052",
"t. c #6F8352",
"y. c #6D8252",
"u. c #718351",
"i. c #708451",
"p. c #728450",
"a. c #708453",
"s. c #738553",
"d. c #728653",
"f. c #738756",
"g. c #758757",
"h. c #728353",
"j. c #748855",
"k. c #758856",
"l. c #788B53",
"z. c #788857",
"x. c #758659",
"c. c #768A59",
"v. c #788A5A",
"b. c #7B8F5E",
"n. c #7F9362",
/* pixels */
"r @ + > r > # & > > > = # w t Z # e e r > ; ; 7 * @ @ 6 Q { ! p & w r w % & & w % Z { j 6 w Q h.w w ",
"w # # r t > # > w , r r w > w h > > e > ; : 6 7 7 - ; : w w ; $ & w w w w & w p w w Q w w j j r Z p ",
"> > > Z e # # e w r Z Z h w > > > > > > : : , 7 O.7 7 ; ; > & + & w w 6 & w w Z w j w w j j w & p w ",
"> w r r ; # ; Z r r Z h t > w , t t > , r r O.: +.O.r r e Z e e w w 6 w 6 & w r j w w 6 N j w & u w ",
"r h r r & # w p.w h w w w > w r L Z r , t t O.O.r , , L L 2.5.p.Z w w w w 6 6 Q w w 6 w 6 6 w r { ~ ",
";.T h w w w ;.g.h w > > & > w t ) L #.Z t r , O.= , > , t t ) 2.g.j j n j w j w.j j w w & & w ~ v.v.",
"w.C r w z ;.p.w.r r w & & = w e L ) 2.#.r : , 7 = : , , , , , t f.j w z Z p j y.j j w j 6 & w j z.g.",
"~ r 6 w =.p.w.C h h t w ; & ; w t L 8.o., = = : : 7 , L L , , t ;.w 6 w j w j w.Q j j z w & & w Z Z ",
"{ C j j [ w.=.Q Q C w $ @ 3 6 & & Z g.C : : r r = * = , o.t , o.w Z j & & 6 j Q ~ Q r w r w p w p w ",
"j j Q Q =.;.[ C 6 6 ; @ @ & % + w X.g.w.r O.O.c : * = , , o.o.7.j j N 6 & ; r [ I w w 6 w w w w w u ",
"w p p Q [ [ Q I w w u w w p w % u Z { ~ j r 7 : * * - , , , 2.l.~ j z Q Z 6 w w.j w 6 & & & & > i Z ",
"p w 6 p Q { I i i I I p p ....Q a a j m j d 6 - * - 7 O.L , L 7.p.Q Q f.h.p j p.r w & & & & 3 ; w w ",
"p 3 % 3 a X.I w p p j Q I m j m | ` i I [ ' 8 5 - - z =.L > > > p.m C f.f.w w ;.p w & & & & ; & $ $ ",
"Z 3 % 3 m w.m w % 6 i h.w.p 0 3 ` q 4 i ` _ N 8 5 6 N =.L > > > C w j Q Q w 6 j w 6 & $ & & w 6 ; ; ",
"p w w m Q I m w w 0 p I p 3 3 w q 1 < 1 8 8 8 9 5 5 w =.~ Z t Z r w N w N w w w w ; & @ & 6 w j Z ! ",
"3 u | h.{ I p w a w 3 % $ + % i i 1 < 4 8 8 b 9.9 6 6 j ) ) 5.z.w d w 6 N z m w Z w w & 6 N Q ;.a e ",
"X.X.h.u.Z Z { x.h.u & $ $ $ o 2 8 8 8 2 5 8 9 d 8 j w w ~ z.g.Z f.O.5 d n 6 - 6 % ; w w w w w w Z z ",
"Z Z ! Z p a | X.X.u 3 % % % $ 6 9 8 9 8 5 8 8 5 % 3 6 w ! w.! w w 9 7 7 6 - % % & 6 N 6 6 & & w c w ",
"e Z ! I ! I ! ! { u 3 3 3 1 2 5 9 8 9 9 9 5 5 5 % @ 6 j w.w.Z w 7 @.@.7 5 - 5 ; & 6 6 5 & & 6 w w 6 ",
") Z s Z I e 0 0 | a u w 4 & 2 2 5 5 5 5 5 5 5 5 5 5 6 Q y.n r j w @.@.9 : 6 N 6 ; 6 6 w 6 w r [ n z ",
"s Z e u w & +   w u p p 6 p 8 8 8 5 9 5 5 5 5 5 9 5 * 9 7 - ; 6 O.@.9 - - d 9 ; 6 w N N p r =.h.y.f.",
") ) Z a 0 & $   % 0 w 4 8 b ..` 9.9.9 5 5 5 5 5 9 5 - - % % - 6 @.O.5 - 6 d w 7 =.9.w.=.j j n =.=.=.",
") ) X.~ a w w 3 % 0 p 4 6 ` ' ' 9 9 9 9 5 5 5 5 9 9 5 X X - - 6 9 7 5 6 6 6 6 6 Q 9.y.9.I j j m p p ",
"e Z X.! w 0 u a 0 w p w 6 p ` b 5 5 9 9 9 9 9 5 5 5 5 X . - : - X X - 7 ; X . & w N =.Q Q w j Z { ..",
") Z ! ! ! e w 3 u 0 p i w.[ 8 $ . o 5 5 ' d ' d 7 9 9 % X 7 7 - 5 - % - % - ; ; 5 w j j p w w Z X.X.",
") X.h.u.! a p 0 I p 6 p p p 8 3 2 8 b m b 5 O . 5 9 7 6 5 7 7 7 @.7 5 - ; - - % ; 6 6 6 ; & w h X.p.",
"Z ) X.X.Z a p p ..I I i p p 8 p 2 8 p N 8 5 % . 9 - - 6 O.7 : 5 O.9 7 6 5 ; ; % 6 6 6 & % & w a 0 0 ",
"Z ) ~ Z u u w a p ..y.y.[ p 6 8 2 3 % 3 6 p p Q w % % 5 9 5 - : X X - - 5 w 6 5 ; 6 6 & & w w w ! ` ",
"e ) s 0 & 0 u ! w i { | I p 8 8 i s w 0 0 p a { { 6 @ 6 6 - - ; X X - X ; 5 6 & & 3 6 6 w & w u X.X.",
") e w & & e I X.w p p w 4 6 i ....` | X.X.a a p x.Q p w 7 6 6 ; 9 O.9 - - 6 - X @ % & ; 6 & & & s s ",
") e ; ; w a | ! 0 0 0 6 w p ` [ s ` X.X.X.x.X.| X.h.{ j w r r ; z 9.@.- 6 w w & & & & & & w 6 0 s s ",
"s e & 0 w ~ I p % 3 w p Q [ { { X.X.s X.{ X.x.x...h.h.Z w r w - N @.O.6 6 9.9.7 6 5 & & & w w u s s ",
"& 2 5 w p j Q y.w ; 0 w ) ~ Z Q w i I m 6 6 p I w.[ Q z n O.d N w 6 6 n f.y.j & & N r w & ; 0 & 1 4 ",
"& & 6 5 6 p n y.w 6 w Z ;.C r w w 9 N p 6 p 7 m p 8 7 w w N N w =.N w 6 w r w w & w w w & 6 6 & 3 4 ",
". O % @ X % 6 z w w w Z h e w w p 8 8 6 6 8 6 p 3 6 6 6 6 N 6 N w.Q z 6 & & 6 w & 6 w w & w & % & 6 ",
"5 d n ' p N @.y.; = # w e > > h n i 6 6 6 6 6 8 6 6 6 6 6 6 N d f.u.=.z w 6 & & & & 6 6 & & & $ & & ",
"N 9.f.a.9.' j n # & & > > w L 5.=.b 8 6 3 6 5 2 6 3 2 & & 5 ' y.b.x.~ Z j j w w ; 6 w w w w & ; * = ",
"5 w d n N 5 5 & & & > h Z h %.j.w.n d 6 6 3 5 6 % & & % & 5 b y.n.f.w 6 w j ~ 9.Z w w j Q w r w t , ",
"9.n d ' n n N 6 & > h ) ) Z r C Q Q n j 6 6 6 N 2 5 6 3 % % 6 b y.Q 6 & & 6 Q p.[ j w j I Z Z I t O.",
"Q 7 5 6 9 N w 7 & > C 8.) w ; # r @.0.Q w 6 p d 5 m m 6 3 % $ 2 3 ; 6 ; & & p ~ ;.w 6 j j j j C & = ",
"% % % & 6 j N w w # w ) Z > ; ) r w c ; % ; 2 % & & 2 2 8 i b 8 w & & & 6 j Q =.n % & ; j m ; C 5 6 ",
"5 5 % % 3 5 6 N r 0 > e T Z ) p.w z 7 ; % & & $ 5 6 5 3 2 2 6 5 w w 6 w j Q { w.C 6 j & & Z & & o % ",
"N 8 6 2 & 5 6 z w ; # w 8.j.z.5.#.#.t ; ; 6 6 6 6 6 8 3 8 2 4 5 % & 6 w Q ~ w.[ Q w.f.6 & w % . 2 < ",
"d d N 6 6 5 7 n & & ; w Z p.5.Z O.t r 7 7 r z =.8 p i 8 8 8 _ _ % & 6 p Q w.Q Q ;.9.x.w & 6 + . 5 5 ",
"5 N 9 6 8 6 w 6   # w w t %.t 6 t , : : 7 7 z @.m b b 8 9 _ _ _ % % u a { w.Q j Q w w.Q w & + 6 < O ",
"6 5 5 6 p 6 6 ; # & w Z C Z r > *.O.t r r w N n 9.Q 8 8 4 8 4 4 0 w w h Q ~ j j j & p r w & $ j $ % ",
"9 6 5 6 w p w % w ; & Z 2.Z r r o.t r Z t 7 N N y.d 6 4 4 4 1 % w w w w w r w 6 w @ w & & 6 & 6 & - ",
"9.7 & ; w p w # p.; @ e p.T t h : = * > ; - - 6 y.8 2 < 4 9 4 2 6 ; & & & & & & & & w + + w & & 5 - ",
"# r : = : - : 7 ; - = w Z C C Z %.=.; t c % 7 ; 7 d 9.9.d 9 5 5 6 8 6 & % 2 6 6 3 m p 3 0 3 0 j . % ",
"* : : * = : : : % # @ = w r r r =.=.; c 7 @ 6 ; 6 7 9 9 9 9 9 5 6 6 5 % o & 6 6 3 ..Z 3 3 0 3 Z $ 2 "
};
