/* XPM */
static char *QmFja2dyb3VuZA__[] = {
/* columns rows colors chars-per-pixel */
"50 50 242 2 ",
"   c #1C1C03",
".  c #1E1E15",
"X  c #271E02",
"o  c #351E00",
"O  c #1C2208",
"+  c #1A2718",
"@  c #212104",
"#  c #25240B",
"$  c #2A250D",
"%  c #242A0E",
"&  c #2C2B0D",
"*  c #2C2703",
"=  c #332502",
"-  c #3B2301",
";  c #32290A",
":  c #3D2C0B",
">  c #362B05",
",  c #2C320E",
"<  c #39310C",
"1  c #232414",
"2  c #242E12",
"3  c #2B2B13",
"4  c #2C2A1D",
"5  c #252719",
"6  c #332C17",
"7  c #2C3213",
"8  c #2D331C",
"9  c #2C3B1A",
"0  c #253312",
"q  c #343214",
"w  c #3A3816",
"e  c #32331C",
"r  c #3A3B1B",
"t  c #38371A",
"y  c #1A322C",
"u  c #342E24",
"i  c #273527",
"p  c #343224",
"a  c #363B23",
"s  c #3D3E25",
"d  c #39392B",
"f  c #25373B",
"g  c #3C3E36",
"h  c #323E33",
"j  c #442A01",
"k  c #4C2D02",
"l  c #462C0B",
"z  c #4A350A",
"x  c #563909",
"c  c #443C1C",
"v  c #473716",
"b  c #523E18",
"n  c #433E23",
"m  c #433C29",
"M  c #473F32",
"N  c #38411C",
"B  c #2D4215",
"V  c #3E4925",
"C  c #3C482E",
"Z  c #3B4325",
"A  c #3E4734",
"S  c #45411C",
"D  c #4B471B",
"F  c #584919",
"G  c #514C13",
"H  c #6B4504",
"J  c #6B450B",
"K  c #6B490B",
"L  c #664709",
"P  c #644211",
"I  c #674A18",
"U  c #714C15",
"Y  c #6A5118",
"T  c #6D500A",
"R  c #444324",
"E  c #4A4525",
"W  c #43452B",
"Q  c #444C2B",
"!  c #4A4C2C",
"~  c #4B4927",
"^  c #564A28",
"/  c #4B532C",
"(  c #485527",
")  c #54532A",
"_  c #585529",
"`  c #444A32",
"'  c #4D4C32",
"]  c #484737",
"[  c #514C3D",
"{  c #5E4F30",
"}  c #4B5432",
"|  c #46533A",
" . c #4C523A",
".. c #4C5B3B",
"X. c #4A5834",
"o. c #52553A",
"O. c #5C553A",
"+. c #545B3C",
"@. c #5C5A3B",
"#. c #565934",
"$. c #674F25",
"%. c #695629",
"&. c #785928",
"*. c #655B37",
"=. c #705D3F",
"-. c #4C6434",
";. c #4E643D",
":. c #4E6B39",
">. c #4C6D34",
",. c #546236",
"<. c #54653A",
"1. c #5C653C",
"2. c #546C3C",
"3. c #5A6D3D",
"4. c #586936",
"5. c #55723C",
"6. c #5B723E",
"7. c #537539",
"8. c #4B7337",
"9. c #62623E",
"0. c #69663C",
"q. c #746A3B",
"w. c #756736",
"e. c #61753E",
"r. c #61793F",
"t. c #6C6A34",
"y. c #35524D",
"u. c #325052",
"i. c #495949",
"p. c #535D42",
"a. c #5D5E43",
"s. c #575B49",
"d. c #51544B",
"f. c #635C42",
"g. c #645C45",
"h. c #665E53",
"j. c #546244",
"k. c #5B6543",
"l. c #556D42",
"z. c #5C6D43",
"x. c #5D6B4A",
"c. c #576849",
"v. c #567343",
"b. c #5D7343",
"n. c #5D7945",
"m. c #5C734A",
"M. c #5D7A4B",
"N. c #537A43",
"B. c #5C6C55",
"V. c #5D7650",
"C. c #4E6659",
"Z. c #626444",
"A. c #636E45",
"S. c #61634A",
"D. c #616D4B",
"F. c #6B684A",
"G. c #746745",
"H. c #627545",
"J. c #6B7545",
"K. c #637945",
"L. c #6A7C46",
"P. c #63754B",
"I. c #6B754B",
"U. c #657A4A",
"Y. c #6A7C4C",
"T. c #7B7445",
"R. c #75724C",
"E. c #727A4D",
"W. c #7A734C",
"Q. c #6B6B54",
"!. c #686857",
"~. c #667653",
"^. c #6B7453",
"/. c #647B52",
"(. c #6B7C53",
"). c #6C7C59",
"_. c #67765A",
"`. c #727C52",
"'. c #7C7C5C",
"]. c #787756",
"[. c #746B57",
"{. c #4A6D71",
"}. c #767B66",
"|. c #6A7861",
" X c #886C38",
".X c #887849",
"XX c #847A57",
"oX c #8B764D",
"OX c #917D62",
"+X c #66814C",
"@X c #6B814D",
"#X c #6A844A",
"$X c #71844E",
"%X c #678153",
"&X c #6D8252",
"*X c #6C825A",
"=X c #6B855C",
"-X c #728551",
";X c #728454",
":X c #73845B",
">X c #79845B",
",X c #768A58",
"<X c #7E9161",
"1X c #7E8166",
"2X c #8B8259",
"3X c #978855",
"4X c #91814E",
"5X c #AD8C52",
"6X c #A1925A",
"7X c #8B8363",
"8X c #888669",
"9X c #948D6A",
"0X c #968A66",
"qX c #989467",
"wX c #9A8D71",
"eX c #9A9578",
"rX c #819162",
"tX c #A89A66",
"yX c #A29977",
"uX c #B39E65",
"iX c #A8A679",
"pX c #B8A777",
"aX c #B5B57F",
"sX c #A8A062",
"dX c #C8B274",
"fX c #EAC57A",
"gX c #9EA08A",
"hX c #AEAE8E",
"jX c #B7B193",
"kX c #C8BA8A",
"lX c #DABD84",
"zX c #D1BF92",
"xX c #E5BD80",
"cX c #D8C696",
"vX c #CDC897",
"bX c #EBC789",
"nX c #E2C99B",
"mX c #F7D596",
"MX c #DAD0A3",
"NX c #E9DFAC",
"BX c #ECE2AF",
"VX c #F2F2CA",
/* pixels */
"H.Y.-X-X-X@XY.Y.E.-X-X#X#Xr.r.J.L.L.L.r.7.7.5.2.3.3.z.n.M.Y.L.L.J.Y.~.(.~.P.Y.Y.Y.Y.Y.Y.U.U.P.P.I.U.",
"K.Y.-X-X-X@XY.Y.$X-X$X$X#Xr.r.r.L.L.L.L.b.5.>.2.H.z.U.(.U.P.K.I.Y.U.I.~.~.U.(.`.Y.I.Y.(.(.U.U.Y.Y.(.",
"U.Y.;X-X;XY.Y.Y.E.$X#Xr.4.e.e.e.$X&X;X;XI.H.U.H.X.N Q ;.)._.*X=X/./.~.(.(.Y.I.Y.Y.Y.I.Y.Y.Y.(.U.U.H.",
"H.Y.&X-X;XY.J.I.Y.$Xr.K.L.r.e.r.L.0.#./ ~ D S ) _ ~ ~ S r ^.~.m.).m.m.P.(.(.P.H.P.K.P.Y.(.(.(.Y.U.H.",
"n.U.@X@XY.I.H.H.K.Y.K.e.3.e.J.A.#.w w ^ $.I Y F L G F $.b v g.9 j._.c.c.D.(.P.z.e.A.H.U.(.&X;XY.H.H.",
"n.K.U.U.K.U.P.H.K.J.L.Y.J.H.J.`.E.T.w.I I U H K T K J U I z v t ` B.x.c.D.P.U.z.z.3.b.H.Y.&XY.Y.H.A.",
"H.P.U.K.P.K.P.H.H.H.J.$XL.K.`.R.1.S $.U J H H H H H H J P $.v o Q D.p.x.D.x.P.b.z.6.z.b.U.U.Y.Y.U.J.",
"K.U.K.n.P.P.K.P.H.H.@X;X$X,XJ.r q %.K H H K L H H H J J x x l l E R W j.D.P.P.P.H.1.<.<.1.3.z.z.6.3.",
"U.U.K.n.n.P.K.U.U.n.-X,X>XI., r O.: k J L Y P P &.U P U x k k j : $ 4 7 x.~.M.P.3.2.,.-.<.<.1.2.6.H.",
"b.b.+XU.P.H.P.U.&X-X@XY.;XY.>X>XW ; P U x x z j x  XP x P k k l l l ' Z.k.x.z.z.<.:.-.<.<.<.<.2.3.e.",
"b.K.U.n.M.n.n.U.@X-XY.@X,X>X8X~ # : { o = o - l o k &.o z z j j l l & a.~.).b.<.2.2.<.<.<.1.2.1.3.b.",
"2.2.b.b.H.M.n.K.K.K.K.6.H.:X1.  $ ' v =.OX0X0XwXwXb b l = : > l j z $ a Q.~.m.l.2.:.<.2.1.2.1.3.3.b.",
"5.6.n.n.n.U.U.n.n.n.K.L.L.&XQ r $ 6 m 7XXXF.f.f.[.m $ 6 $ q ].w = : t 3 x.m.c.v.2.2.2.<.k.k.3.3.b.n.",
"5.6.b.n.M.U.@X+XK.n.7.K.Y.I.Z.R X 4 a.7XXXW.q.*.c m 4 u . 4 eXeXS > & $ +._.b.v.:.v.l.z.z.z.z.b.z.H.",
"b.b.5.b.K.+X&X+X+X7.#X+XH.P.'.W $ 6 ].XX$.F I I x = & 1 u u m ].yXR & 3 +.P.b.l.v.2.k.b.z.A.H.H.H.K.",
"n.b.6.n.U.U.+X+XK.+XK.K.K.U.^.Q.] # W..XsXdXbXbXlXzXOXX M [ g.F.G.qX3 3 D.x.l.:.b.2.z.z.z.P.D.H.P.U.",
"n.6.7.5.v.n.K.@X&XK.n.K.5.b.S._.s.  { nXmXbXfXfXmXdX^ b ; g.^ yX^ W.3 ` /.v.n.z.U.z.z.H.A.A.P.P.U.P.",
"K.b.4.5.l.U.n.+XK.U.K.v.5.-.e W }.Z q F xXbXfXbX X- *.F.G.XX^ OX*.XX6 [.%Xv.U.U.D.P.P.P.P.H.m.m.P.A.",
"U.n.5.2.2.v.b.M.(.(./.l.M.0 | 8 C | j.7 I xXxX Xw W  .hXpXOXz OXg.h.u h._.=X/.~._.*X/.M.m.b.m.b.A.e.",
"b.n.b.M.v.M.U.Y.P.(.x.m.n.k.9 t 0 C B.I.pXmXxXzXgXC.|.VXcX%.: F.[.M u 5 9 M.%X~.)._./.V.P.m.b.M.e.3.",
"b.b.6.6.n.:.B -.~.Y.H.3.e.#.N f.W @ @.qXdXbXbXcXjX!.S.XXG.z ) 8X!.4 i.c.N.+XM.&X).~.^.~.P.A.H.H.H.e.",
"2.5.K.H.5.>.rX,.N ~ J._ ) ~ R Z.S.& T.vX5X5X&.b * q *.qX0XqXiX8Xp s.B.V.N.8.n.U.P.).P.P.A.z.A.H.H.K.",
"-.4.6.A.K.( vXiXq.G G D 2X3X2X9.E w D NXdX.Xw.R.tXMXVXVXeXR.) O 9 i.B.V.8.>.n.K.U.P.P.b.b.b.H.M.K.H.",
"2.3.3.1.7.>.aXsX6X3Xq.q.%.*.R.~ Z w * ) dXkXvXvXaXqXE.*.~ r & 0 y y y i.j.-.-.:.M.n.U.&XY.Y.U.~.P.b.",
"2.6.3.1.3.( 2Xq. X4X6X6X3Xw.< ! D.k.a 3 @..X].F.4.1.9.%.v g.g.h y.u.f f y.j.;.l.M.m.(.@X@XU.P.P.m.b.",
"2.6.b.z.H.4.q.3Xb %.w.4X6XoXE k.P.P.p.p Z 1.#.Z.k.+.# XXtXMX!.i.u.{.u.f h p.~.c.c.P.K.H.U.U.H.D.m.P.",
"6.b.z.2.n.H.( qX%.^ { ^ =.0.r D.M.M.V.C 8 +.P.3.;.Q & 3XtXBX}.i.y.u.{.y.+ | V.x.P.P.I.J.H.K.P.P.P./.",
"6.5.6.M.m.M.t.4.OXM g.O.O.m t ).M.v.V.V.a 8 z.b.m.V > pXtXtXE.| C.f y.y.|.} 1.P.x.P.H.H.H.K.U.(.(.~.",
"b.6.6.v.:.v.b./ I.}.' ' *.o.3 +./.v.l.V. .3 X.V.P./ v zXzXlXkX) [ i.4 1 hX9X9.A.K.b.n.n.U.+X(.(.(.(.",
"n.b.5.:.v.v.:.v.V a.'.f.o.o.m a ).M.N.:.j.a 9 ~.(.R.c G.G..XoXG.[ p 1 a 9X.XD e.P.M.M.U.%X%X=X:X`.(.",
"b.6.6.2.2.>.5.>.3./ ' F.].f.g.a } P.z.<.z.X.2 p._._.` d.[.[     . . 5 W yXXX#.A.x.V.~.P.U./.(.`.Y.Y.",
"b.5.2.2.l.2.>.5.3.1.k./ ' o.^ O.7 / H.2.3.P.9 3 p.k.d.u g y.A ] g h 2 } 0X2X) D.^.x.~.P./.).&X;XY.L.",
"b.6.5.2.5.n.n.n.n.b.H.H.z.1.,.#.,.,.H.6.H.;X) @.n OXc.4 h ] d.] ] 8 8 Q.%.q._ I.~.P.n.e.b.m.P.P.U.H.",
"b.5.5.5.v.n.+XU.U.U.b.b.H.H.H.H.U.K.e.J.(.`.Z.~ W.*.+.p u 5 4 d.W 3 8 *.pXvXT.R.~.U.6.6.H.z.m.b.H.H.",
"n.b.b.5.n.K.&X&X@XU.b.b.H.U.K.H.P.U.U.@XU.:X:XQ ! t eX!.. 5 g A | ..8 @.vX6X0.].~.U.K.n.H.b.b.z.z.A.",
"U.K.6.5.b.+X%X&X+XU.b.6.H.K.K.H.H.U.U.%X=X=X=X_.7 # C }.!.g i.B.j.x.` W vXjXq.Z.(.(.U.L.U.P.b.P.H.A.",
"@XU.6.5.H.K.U.U.U.U.3.z.b.K.U.U.M.U.n.:X%X:X).).Q.% $ # g A + Z s.S.e Q 0._ _ I.:X(.+X@XY.Y.U.U.A.e.",
"&XU.@XY.P.K.K.H.b.H.n.n.H.K.K.P.U.U.(.+X%X:X`.].F.F.m $   A C O @ q 5 F.4.%.J.`.U.H.@X@XY.(.K.H.3.e.",
"-X&X-X@XK.H.H.H.H.U.K.U.K.U.Y.&XU.&Xn.@X(.Y.(.>X*.XXwXE ' ).c.k.F.n s ^.R.q.E.Y.(.(.@X@X@XL.P.H.3.3.",
"U.K.H.H.b.H.H.H.K.+XU.U.U.H.n.U.K.H.K.b.n.H.P.P.1.~ F.E Q /.z.A.iXOXW  .I.e.J.K.U.U.Y.Y.@XL.Y.U.A.e.",
"b.J.H.e.H.H.K.K.Y.&XH.U.H.H.U.n.m.H.H.K.b.b.n.b.A.k.yX].) z.U.X./ ].}.+.A.H.J.K.P.U.K.Y.#XL.L.K.e.H.",
"1.3.3.3.H.U.Y.Y.(.&XU.n.n.U.H.n.n.P.H.5.K.5.l.b.A.E W ~ X.Y.<.U.! hX8X' +.Y.H.6.z.P.U.K.L.L.Y.H.H.e.",
"6.6.e.H.H.I.Y.;X;X;XK.U.K.P.n.b.n.b.H.3.b.v.m.P.^.a $ X V P.b.x.Z.! ' 2 ( Y.+Xr.Y.H.H.K.L.K.K.H.e.3.",
"b.H.H.H.Y.Y.&X;X-X;XY.U.U.H.H.b.b.z.m.m.z.P.x.X.o.a % % k.A.x.A.k.n t 2 ( *X6.r.J.z.H.K.r.r.e.A.6.3.",
"H.H.Y.K.Y.(.;X;X,X,X;XY.U.K.n.z.z.z.2.P.z.I./ 3 4 e % % c.H.P.k.W ' n 3 N =X#X#XE.I.U.H.r.r.e.3.3.3.",
"K.Y.K.J.K.Y.@X;X,X<X-X&XU.K.b.2.2.3.z.l.l.P.N % 3 4 + 0 <.H.1., 7 3 q # 9 M.#X#XL.Y.I.K.r.r.e.e.3.3.",
"H.H.H.H.H.H.Y.:X<XrX;X&XU.K.b.2.2.2.2.2.2.n.j.l.x.x.v.2.2.b.z.,...j.Z.S.m.%X#X,X$XE.Y.K.L.K.H.A.H.3.",
"H.H.e.6.b.H.Y.;X,X<X;X&XU.b.6.3.2.2.2.5.2.:.b.z.c.V.c.n.3.6.H.H.M.).^.>X:X+X#X,XL.E.Y.J.#XL.J.H.H.3.",
"H.H.3.6.3.b.H.Y.;X;XY.U.b.z.l.<.2.k.3.b.l.b.2.2.m.P.b.b.b.b.H.P.U./.(.(.U.&XU.L.J.U.L.U.$X@XE.Y.K.e.",
"b.3.1.3.6.6.H.K.Y.(.P.b.b.3.2.2.2.v.z.b.b.b.b.z.n.P.b.b.b.b.n.H.U.@X@X+XY.U.U.L.H.K.K.J.$X$XY.Y.Y.e."
};
