/* XPM */
static char *player1648489190[] = {
/* columns rows colors chars-per-pixel */
"50 50 242 2 ",
"   c #1C1C03",
".  c #1E1E15",
"X  c #271E02",
"o  c #351F00",
"O  c #1C2208",
"+  c #1B2817",
"@  c #25240B",
"#  c #2A250D",
"$  c #242A0E",
"%  c #2C2B0D",
"&  c #272404",
"*  c #332502",
"=  c #3B2301",
"-  c #32290A",
";  c #3D2C0B",
":  c #362B05",
">  c #2C320E",
",  c #39310C",
"<  c #232414",
"1  c #242E12",
"2  c #2B2B13",
"3  c #2C2A1D",
"4  c #262619",
"5  c #332C17",
"6  c #2C3213",
"7  c #2D331C",
"8  c #2C3B1A",
"9  c #253312",
"0  c #343214",
"q  c #363813",
"w  c #32331C",
"e  c #3A3B1B",
"r  c #39371B",
"t  c #1B332A",
"y  c #342E24",
"u  c #293527",
"i  c #343224",
"p  c #363B23",
"a  c #3D3E25",
"s  c #39392B",
"d  c #25373A",
"f  c #3C3E36",
"g  c #323E32",
"h  c #442A01",
"j  c #4C2D02",
"k  c #452C0B",
"l  c #4A350A",
"z  c #563909",
"x  c #473817",
"c  c #523E19",
"v  c #433E23",
"b  c #433C29",
"n  c #473F32",
"m  c #38411C",
"M  c #2D4315",
"N  c #3E4925",
"B  c #3C482E",
"V  c #3B4325",
"C  c #3E4734",
"Z  c #4C4B1D",
"A  c #48431A",
"S  c #5A4818",
"D  c #514C13",
"F  c #6B4504",
"G  c #65450D",
"H  c #6B450B",
"J  c #6B490B",
"K  c #684806",
"L  c #644211",
"P  c #674A18",
"I  c #714C15",
"U  c #6A5119",
"Y  c #6D500A",
"T  c #444324",
"R  c #4A4525",
"E  c #43452B",
"W  c #444C2B",
"Q  c #4A4C2C",
"!  c #4B4927",
"~  c #564A28",
"^  c #4B532C",
"/  c #485527",
"(  c #545126",
")  c #54532A",
"_  c #59572A",
"`  c #444A32",
"'  c #4D4C32",
"]  c #484737",
"[  c #514C3D",
"{  c #5E4F30",
"}  c #4C5331",
"|  c #4B5A35",
" . c #4C533A",
".. c #4C5B3B",
"X. c #465238",
"o. c #52553A",
"O. c #5C553A",
"+. c #545B3C",
"@. c #5C5A3B",
"#. c #565A34",
"$. c #664E22",
"%. c #68552A",
"&. c #785928",
"*. c #655A37",
"=. c #705D3F",
"-. c #4C6534",
";. c #4E6B39",
":. c #4E653B",
">. c #546236",
",. c #54653A",
"<. c #5C643C",
"1. c #546C3C",
"2. c #5A6D3D",
"3. c #586936",
"4. c #55723C",
"5. c #5C723E",
"6. c #537538",
"7. c #4B7337",
"8. c #62633E",
"9. c #69663C",
"0. c #736A3C",
"q. c #756736",
"w. c #61743E",
"e. c #61793F",
"r. c #6C6B34",
"t. c #35524D",
"y. c #325052",
"u. c #495949",
"i. c #535C43",
"p. c #5D5E43",
"a. c #575C49",
"s. c #51544B",
"d. c #635C42",
"f. c #645C45",
"g. c #665E53",
"h. c #546244",
"j. c #5B6543",
"k. c #556D42",
"l. c #5C6D43",
"z. c #5D6C4A",
"x. c #576849",
"c. c #567343",
"v. c #5D7343",
"b. c #5D7944",
"n. c #5C734A",
"m. c #5D7A4B",
"M. c #557943",
"N. c #5C6C55",
"B. c #5D7650",
"V. c #4E6659",
"C. c #626444",
"Z. c #636E45",
"A. c #61634A",
"S. c #616D4B",
"D. c #6B684A",
"F. c #746745",
"G. c #627544",
"H. c #6B7545",
"J. c #637946",
"K. c #6A7C46",
"L. c #63754B",
"P. c #6B754B",
"I. c #657B4A",
"U. c #6A7C4C",
"Y. c #7B7445",
"T. c #75724C",
"R. c #717B4D",
"E. c #7A734C",
"W. c #6B6C54",
"Q. c #686857",
"!. c #667653",
"~. c #6B7453",
"^. c #647B52",
"/. c #6B7C53",
"(. c #6C7C59",
"). c #67765A",
"_. c #727C52",
"`. c #7C7559",
"'. c #7B7C5C",
"]. c #787756",
"[. c #746C57",
"{. c #4B6D71",
"}. c #767B66",
"|. c #6A7861",
" X c #886B38",
".X c #887849",
"XX c #857B56",
"oX c #8B764D",
"OX c #8F7E62",
"+X c #66814D",
"@X c #6B814D",
"#X c #6B8549",
"$X c #70844E",
"%X c #678153",
"&X c #6D8252",
"*X c #6C825A",
"=X c #6B855C",
"-X c #728553",
";X c #748A54",
":X c #72845B",
">X c #79845B",
",X c #798D5C",
"<X c #758759",
"1X c #7E9261",
"2X c #7E8166",
"3X c #8B8259",
"4X c #978855",
"5X c #91814E",
"6X c #AD8C52",
"7X c #A1925A",
"8X c #8B8363",
"9X c #888669",
"0X c #958B68",
"qX c #989467",
"wX c #9A8D71",
"eX c #9A9578",
"rX c #819162",
"tX c #A89A66",
"yX c #A29977",
"uX c #B29F65",
"iX c #A8A679",
"pX c #B8A778",
"aX c #B5B67F",
"sX c #A8A062",
"dX c #C8B274",
"fX c #EAC57A",
"gX c #9EA08A",
"hX c #AEAE8E",
"jX c #B7B193",
"kX c #C8BB8A",
"lX c #DABD84",
"zX c #D1BF92",
"xX c #E5BD80",
"cX c #D8C695",
"vX c #CDC897",
"bX c #EBC789",
"nX c #E2C99B",
"mX c #F7D596",
"MX c #DAD0A3",
"NX c #E9DFAC",
"BX c #ECE2AF",
"VX c #F2F2C9",
/* pixels */
"U.L.L.L.I.U.L.U.U.U.U.U.L.L.!.U._.H.K.K.U.b.v.l.1.1.1.4.7.6.J.#XK.K.H.e.K.K.$X$X$X$XK.R.@X-X$X$XU.J.",
"U.U.U.U.U.^.U./.P.U.U.-XL.P.!.!.I.P.I.P.I.^.&XU.Z.G.1.-.4.b.5.K.H.K.e.e.e.#X#X$X;X$XU.K.@X-X-X$XU.J.",
"L.J.U.U.^.U.U.I.P.U.U.U././.~.^.^.^.*X*X(.(.+.Q e | v.J.G.L.-X-X-XR.w.5.w.3.e.#X$X@XP.P.U.-X;X$XU.K.",
"G.P.U././.^.U.U.P.G.G.P././.!.n.n.).n.!.~.e x A ! #.( A R ( / #.w.U.P.w.e.e.K.e.-XU.P.K.+X&X$X&XU.I.",
"v.J.U.&X&X/.I.L.G.l.l.L.!.L.x.z.B.h.0 C.k c $.S D D P U U $.~ x q _ v.K.w.3.w.J.U.K.G.G.P.+X@X@XI.G.",
"G.J.U.&X/.U.G.G.2.2.Z.G.L.Z.x.S.N.X.r x l P P H K Y K F P P $.&.E._.R.P.H.G.K.K.K.G.G.L.J.I.I.I.J.G.",
"G.G.P.P.U.G.G.l.l.l.G.z.S.z.S.h.S.Q X x $.L I H F F F F F H I $.A @.R._.H.P.$XJ.G.G.G.G.P.J.I.I.J.n.",
"5.v.w.l.2.1.,.>.l.v.J.L.L.S.h.E V R k l z z H H F F H K J F F G %.q e G.>X$X-X$XG.G.I.L.I.v.v.I.J.I.",
"G.5.3.,.,.,.,.>.1.4.I.L.!.z.6 2 - ; h j j z I L I  XL G J G K h ; O.e 0 P.;X;X-XJ.b.I.I.I.G.v.J.I.I.",
"G.2.3.1.,.,.,.-.>.,.c.l.l.x.j.' ; k l j j L z L  Xz h z z z U P - E >X'.U.-XK.+X;X&XU.J.v.m.U.+Xv.v.",
"v.5.<.1.1.,.,.;.1.;.k.z.!.~.p.- k k h ; j z o &.j = k = o = o %.r X ! 9X>X-XU.+X&X&XI.v.m.m.J.b.J.v.",
"v.4.<.<.<.,.1.,.1.1.k.n.!.~.p # x h ; * ; * k c x wXwX0XOXOXf.x R %   j.>XG.G.J.I.b.b.v.I.G.v.c.4.1.",
"v.v.l.l.l.<.<.1.;.k.c.z.L.z.$ r k X x ].0 @ 5 # a [.d.C.F.XXOXb 5 X p Q -XI.J.e.J.b.b.J.m.J.b.b.5.1.",
"J.v.l.l.l.l.l.1.c.;.k.v.!.i.2 % - c wXgX3 . y 3 b v %.0.XXXXOXs.5   b C.P.U.J.6.5.+X+X+XU.J.b.v.v.5.",
"J.v.G.Z.l.l.l.k.k.1.c.c.L.+.2 % A yX[.b y y @ - * z S U S $.XX].2 5 E '.G.L.#X+X6.+X+X@X+XI.b.4.5.v.",
"^.L.L.G.S.l.G.l.1.c.k.k.l.S.2 2 wXF.f.f.[ ] X 3XkXcXbXbXdXuX.XE.$ ] W.P.P.J.J.+XJ.+X+X+XI.I.b.4.v.b.",
"G.L.L.L.Z.G.L.v.Z.L.v.v.v.^.] 5 E.( yX~ d.; x ~ dXmXfXfXfXmXnX%.  a.(.z.l.4.b.b.J.@X+XI.c.l.4.4.v.I.",
"G.L.n.L.G.L.n.L.L.G.I.I.c.!.Q.5 '.8.XX~ OXF.F.*.= .XbXbXfXbX$., a |.` 7 -.4.v.I.U.J.I.J.I.k.4.3.5.v.",
"Z.G.n.c.v.n.m.B.(.).^.L.=X).Q.5 F.f.OXx oXpXhXu.B q  XxXbXP > h...C 7 } 9 m.k.^././.+Xv.M.k.4.5.b.J.",
"2.w.J.v.n.L.!.^.).(.^.=Xm.8 4 i n [.f.; %.MXVX|.s.gXzXxXbXpXS.N.B 1 p w ,.n.n.z./.J.+Xm.n.M.b.5.v.b.",
"w.G.G.G.Z.L.L./.^./.&XI.+XM.x.t.3 g.9X{ q 0.XXj.A.jXcXxXxXlXtX@.& E j.V #.e.w.J.!.P.-.M 7.5.5.2.v.v.",
"J.G.G.Z.l.Z.S.L.(.L.I.b.7.M.B.B.g.y 9XiX0XqXqX9.0 * c &.6X6XcXE.% j.p.b Z Z ( K./ m 3.1X7.5.G.J.5.1.",
"m.I.I.v.v.G.J.v.m.U.J.b.-.7.B.N.s.u   ) ~.eXVXVXMXsXY.r..XdXNXA q R d.3X4X3XZ Z D 0.iXMX/ v.l.Z.;.-.",
"v.n.L.U.U.+X/.%Xv.v.;.-.-.h.u.u t t 1 $ e ! *.Y.qXhXvXvXvXpX( & q V ! T.r.%.q.0.4X4XsXaX/ v.2.2.5.1.",
"v.J.n.U.U.@X+X/.n.n.x.:.h.u.d d y.y.g f.*.c %.d.3.8.H.XX].@.% a h.S.Q , 0.4X6X7X4X0.0.4X/ 2.>.l.2.3.",
"n.n.G.L.n.J.J.I.L.x.k.).u.g d y.{.y.u.(.MXqXXXo ,.<.8.#.@.a i i.n.!.C.R oX7XoX=.%.D 4X0.3.G.l.v.5.4.",
"!.!.L.L.G.H.H.L.L.L.z.L.X.+ y.{.y.y.u.}.BXtX4X- W h.1.L.o.u B L.n.I.L.m 9.=.~ %.~ %.qXZ G.k.1.v.5.1.",
"!.U.!.P.H.G.J.G.v.L.L.>.} |.t.y.d V.] E.tXtXhXo N n.c.l.7 p B.m.M.m.~.w b *.s.O.) 8X8.w.m.n.v.v.4.v.",
"/./././.U.m.b.b.v.I.v.<.qXjX< u u. .( kXlXzXkX5 ^ J.m.X.1 X.n.;.M.^.i.2 o.@.' ' '.T.W v.1.;.M.v.v.v.",
"/.-X:X*X%X%XI.I.v.n.2.Z XX0Xa < i ] 0..X.XF.oXx _.*X^.8 a h.;.M.m.(.p b o.O.*.}.p.E n.;.m.1.;.4.v.v.",
"P.U./.:X^.I.I.B.!.z.G.@.XXwX` + . . O   s.Q.a.` ).).i.1 | l.,.v.L.W x f.d.].D.} Q 2.;.6.;.;.1.5.5.v.",
"U.U._.&X^.!.!.L.L.~.Z.( XX0X .4 g f ] C f f i s.x.o.6 e G.2.2.L.} 6 O.Q o.' } <.<.3.6.7.;.c.1.4.4.v.",
"H.L.L.J.L.v.l.v.J.!.T.~ Y.%.P.7 w ` s.] ] f 3 j.8Xx @.o._.G.5.J.>.>.#.>.<.l.G.G.G.G.b.b.b.4.4.4.5.v.",
"G.G.n.n.l.v.v.e.L.!.P.Y.kXpXd.7 9 E [ 3 4 y 3 o.O.].! 8.-X&XJ.G.K.L.G.J.G.G.v.v.I.I.m.+Xb.v.4.4.4.v.",
"G.l.l.v.v.G.J.J.^.!.].9.tXvX@.7 ..X.V f 4 + Q.gXe W W :X=X^.+X+XI.G.G.G.J.G.v.v.I.+X&X&XI.b.4.5.v.b.",
"Z.l.L.J.G.J.K.J.^./.Z.0.jXvXE C N.a.N.u.f Q.}.n $ 6 ~.*X=X=XU.U.J.G.J.P.I.v.2.v.I.+X&X@X+Xv.5.4.J.U.",
"Z.G.L.I.U.U.@X@X/.:XP._ _ %./ 7 j.a.V + C f < < % T.(./.:X%X;Xm.I.J.b.I.I.v.v.5.J.I.U.I.b.v.5.5.I.U.",
"2.l.G.J.@X&X#X+XI.U._.H.%.3.S.2 0 X O C C X 2 x D.A.'./.:X&X%X@XU.n.I.I.I.J.G.b.G.b.G.G.G.I.+X+X+X&X",
"2.w.G.L.U.U.#XU.&XU.P.R.H.R.~.v a D.j.z.).W R wXXX@.'./.!.U.+Xb.U.U.U.U.I.I.J.I.I.v.G.G.G.J.U.-X-X-X",
"w.G.G.K.@X@XK.U.U.L.P.G.9.P.o.E OXiXZ.k.U.W R D.! <.P.J.J.J.5.J.n.I.m.J.G.I.I.v.+XI.G.J.G.v.e.J.J.J.",
"G.G.G.K.K.K.K.I.L.L.G.G.H.Z.+.}.T.Q | I.l.) `.yXC.l.v.v.b.v.5.b.J.J.v.I.I.I.G.I.&XU.U.J.G.G.5.G.G.G.",
"w.J.G.P.#X#XJ.J.J.v.w.J.P.>. .9XhXQ J.1.!.^ Q ! T z.c.k.4.J.5.I.n.n.b.b.J.v.J.G.-X&XU.U.J.G.w.2.2.2.",
"2.w.G.G.J.K.J.G.L.I.G.J.&XW 1 Q Q C.S.v.U.N & # p ~.L.n.c.l.<.v.G.v.v.J.v.J.J.I.-X&X&XU.P.G.G.w.5.5.",
"2.2.w.e.e.e.J.G.l.H.e.5.=XW 2 r a C.S.z.l.j.$ @ p o.| z.L.v.L.n.v.v.v.v.G.I.I.I.-X-X-X&XU.H.J.G.v.G.",
"2.2.w.w.w.e.J.G.P.@X#X#X&Xm 9 V ' E <.L.v.k.$ + w w 6 } L.z.J.k.v.v.2.v.J.I.+X&X,X,X-X&X@XU.P.J.J.G.",
"2.2.2.w.e.e.J.H.U.@X#X#Xm.8 $ 0 2 6 > <.J.-.9 1 4 2 % m v.1.l.k.k.1.5.v.m.U.-X-X1X,X;X&XU.I.K.J.I.P.",
"2.G.Z.J.e.K.P.U.-XR.;X#X*Xz.A.C.h.:.#.w.v.k.k.x.z.z.x.,.b.1.1.1.1.1.1.v.G.U.&X-X1X,X-XU.J.G.G.G.J.I.",
"v.G.G.H.K.#XU.U.R.K.;X#X^.:X>X~.^.B.G.G.v.1.v.x.!.x.l.v.;.1.v.,.1.,.1.5.G.I.&X-X1X,X-XU.G.v.e.5.G.G.",
"w.H.P.@X@X$XP.J.H.K.K.+XU.+X!.U.^.I.J.G.v.v.v.v.n.n.1.1.v.v.v.1.1.1.1.k.v.v.L.U.-X-XU.J.v.l.2.2.5.G.",
"w.I.P.$X@X$XK.K.G.J.G.P.U.U.&X+X+XI.J.J.v.v.v.v.L.J.v.l.c.v.v.l.l.2.1.1.1.v.G.J.U.!.I.G.v.2.2.2.5.5."
};
