/* XPM */
static char *af957dace37a4850858de6892a95a55d9IG7rAFp46WHuGdI[] = {
/* columns rows colors chars-per-pixel */
"50 50 202 2 ",
"   c #030301",
".  c #0A0603",
"X  c #020904",
"o  c #0A0A06",
"O  c #070709",
"+  c #040C0B",
"@  c #0C0C0A",
"#  c #130D0B",
"$  c #06120B",
"%  c #0B120D",
"&  c #13120E",
"*  c #19130E",
"=  c #0F0F11",
"-  c #0C1312",
";  c #0E1914",
":  c #0C1319",
">  c #141613",
",  c #1A1512",
"<  c #141B15",
"1  c #1B1A16",
"2  c #141C19",
"3  c #1B1D1A",
"4  c #12171A",
"5  c #211816",
"6  c #221E1B",
"7  c #1C231D",
"8  c #15201A",
"9  c #22231D",
"0  c #2B251C",
"q  c #25281F",
"w  c #1C1E22",
"e  c #172325",
"r  c #1D2423",
"t  c #1F2922",
"y  c #1D2929",
"u  c #1C2628",
"i  c #1E2B31",
"p  c #242523",
"a  c #2A2523",
"s  c #242A25",
"d  c #2B2A26",
"f  c #25262A",
"g  c #252C2B",
"h  c #2C2D2B",
"j  c #302521",
"k  c #322B26",
"l  c #322E2B",
"z  c #26322D",
"x  c #2C312D",
"c  c #32322D",
"v  c #3B342D",
"b  c #3B392C",
"n  c #242F31",
"m  c #2A2D31",
"M  c #322F30",
"N  c #263033",
"B  c #2C3433",
"V  c #2E3833",
"C  c #2B3338",
"Z  c #2E3B3A",
"A  c #27343A",
"S  c #333532",
"D  c #3B3533",
"F  c #353935",
"G  c #3A3A35",
"H  c #323639",
"J  c #393738",
"K  c #353B3B",
"L  c #3C3D3B",
"P  c #42352F",
"I  c #413734",
"U  c #443B36",
"Y  c #423D3B",
"T  c #493E39",
"R  c #36413D",
"E  c #3C413D",
"W  c #3E4A3F",
"Q  c #424136",
"!  c #43423D",
"~  c #4A453E",
"^  c #49493F",
"/  c #424A3F",
"(  c #51443E",
")  c #363F41",
"_  c #3A3E41",
"`  c #354344",
"'  c #3C4342",
"]  c #3E4945",
"[  c #3C464A",
"{  c #3D4A4B",
"}  c #374548",
"|  c #3F5143",
" . c #444543",
".. c #4B4644",
"X. c #444A45",
"o. c #4B4A45",
"O. c #414549",
"+. c #454B4A",
"@. c #4C4C4A",
"#. c #514642",
"$. c #524B44",
"%. c #524D4B",
"&. c #584B43",
"*. c #475347",
"=. c #4B5146",
"-. c #46514C",
";. c #4C524C",
":. c #4A584C",
">. c #545246",
",. c #595047",
"<. c #52524D",
"1. c #5A544C",
"2. c #54594E",
"3. c #5E5C4F",
"4. c #424D51",
"5. c #4A4D50",
"6. c #465252",
"7. c #4C5453",
"8. c #4E5954",
"9. c #4E5759",
"0. c #4F5C5B",
"q. c #545452",
"w. c #5A5553",
"e. c #545B55",
"r. c #595A55",
"t. c #5B5B55",
"y. c #525659",
"u. c #565E59",
"i. c #545C5B",
"p. c #5B5C5B",
"a. c #60554F",
"s. c #635C55",
"d. c #625D5C",
"f. c #685F5A",
"g. c #625753",
"h. c #546255",
"j. c #56605B",
"k. c #56625C",
"l. c #5C635C",
"z. c #5E685F",
"x. c #5C6256",
"c. c #626157",
"v. c #63635D",
"b. c #6B645C",
"n. c #6B695D",
"m. c #71655E",
"M. c #485661",
"N. c #4F5D66",
"B. c #555E60",
"V. c #5B5E61",
"C. c #566263",
"Z. c #5B6463",
"A. c #5E6A66",
"S. c #57666B",
"D. c #5B6569",
"F. c #5E6A6A",
"G. c #5D6B72",
"H. c #646562",
"J. c #696563",
"K. c #646A65",
"L. c #696A65",
"P. c #6C6C63",
"I. c #616669",
"U. c #636B6B",
"Y. c #6C6D69",
"T. c #726A63",
"R. c #736D69",
"E. c #766A64",
"W. c #6E7065",
"Q. c #66716E",
"!. c #6B726C",
"~. c #73736B",
"^. c #79776A",
"/. c #626E74",
"(. c #6B6E71",
"). c #647173",
"_. c #6A7471",
"`. c #6F7B77",
"'. c #6A767C",
"]. c #687579",
"[. c #757372",
"{. c #747974",
"}. c #7A7A74",
"|. c #737A7A",
" X c #7A7D7A",
".X c #797574",
"XX c #847570",
"oX c #7E837D",
"OX c #808076",
"+X c #80857F",
"@X c #6D7780",
"#X c #6A7980",
"$X c #717F83",
"%X c #7C8382",
"&X c #7C8A8D",
"*X c #828785",
"=X c #868B87",
"-X c #8E908B",
";X c #90928D",
":X c #909795",
">X c #9DA29C",
",X c #A3A5A0",
/* pixels */
"l k d 9 , & 9 h d d s d d p q   q 0 b b 3.^.>.>.c.1.~ P.>.* d t.H.e.F S -.8.R z :.] E <    .t.H Y d ",
"a S G c c G  .! p.r.X.@.;.<.o.9 Q >.n.>.>.3.>.t.n.^ %.P.@.1 o.P.K.H.7.:.A.!.8.] !.l.l.L d q.J.%.q.L ",
"o 9 h 9 d ..<.X.<.o.S G E E G & ^ 3.n.^ Q ^ ^ v.t.d %.n.o., 1.L.y.q.X.] 8.k.-.] k.X.7.E l q.t.q.G p ",
"< p 9 9 h o.t.2.;.o.G Y ~ ! ! 1 Q ^ ^ E G ! ^ q.! 9 <.r.<.1  .p.l.u.X.' ;.e.8.e.7.X.7.L H w.d.p.@.H ",
"q 7 q q x E o.<.l S d D D D D * ^ 2.=.! ! ! !  .L J w.+.H.p l p.K.Z.@.X.e.j.h.k.e.j.l.F S r.H.r. .g ",
"7 8 7 z x x c S D G D ! Y I Y 6 / v.t.;.! F  .X.! O.q.Y V.m f V.q.7.X.X.8.7.-.8.;.e.7.s d q.q.%.' d ",
"8 t t t s c F c D J l I D D I * F e. .F S g K L L K 5.O.y._ g p.X.;.+.-.8.:.:.k.i.8.*.s h @.%.@.m : ",
"$ 8 7 ; < x E S Y Y l M D D P # D X.s 7 s 7 x f L m 5.B.y.5._ y. .X.X.X.-.+.8.Q.A.e. .s h J M Y p = ",
"$ $ ; 8 7 q s x 0 c 0 a T I * . p K h F h J f g f f O.5.5.5.C H K ;.X.R R V z *.R -. .s f Y Y f 1 4 ",
"7 t t t 7 7 s x c d 6 6 6 5 5 M > g p H B K g H C n O._ O.5.m H 3 K E Z W -.] ] R ' S r 3 d a 9 4 4 ",
"$ $ 8 t s s F ! c  .Y 6 & v o.D 1 p p J J B 9 M H d J J _ _ m f 7 x B V  .-.R V E x p r f 6 d J p p ",
"7 < < 8 7 > , 3 , p p # @ U ! . 1 3 > p p 1 = p f f g m M f w w s > > s z 7 % 7 7 % @ > 1 1 6 l 1 1 ",
"& X   @ , o     3     , 7 7 3 . o X   o * O # f , 4 = = O O O O >     + $ $ ; t $ ; % ; > # # @ * * ",
"b 7 7 ! t.2.o.<.X.c d d 9 9 9 q 9 * &   , O 1 h %.q. .J f 5 M H % & @ X X g -.] -.e.l.r.q.q.@.Y c k ",
"^ d p ^ q.o.E o.@.r. .d p S S x ~ G c * a , j M Y %.Y Y M w M M s z s % $ R k.-.E X.;.+.X. .! U Y Q ",
"1.c d ! o.S c G ! ! c F <.@.E o.>.@.~ 3 j 6 l M M _ Y ....M M 6 c 7 7 > $ z X.R X.O.X.X.E J G E o.$.",
"! c ,  .@. .H d J K m g K [ +.@.@.r.2.7 h ..r.J l L %.q...M I ..c & & $ 7 9 X.;.E E ] X.[ E L H ! X.",
" .L 7 Q  .%. .L S J J g m m C _ ' o. .3 S E q.Y w.J.d.Y M Y ..Y Y 7 % . d d c x F L E ' X.' K B L X.",
"U E h @.@.@.L h H X.O.O._ H H O.K S h 6 J l G  .w.J.d.....d.w.Y d 9 & . R Q E S L B h z B H H g E X.",
"a d 1 ! J S f 3 K +.q.y.i.+.' O. .d 3 p ! f l ..@.%.@.@.w.V.g...v G c * b c h F  .J s f J L m 9 3 9 ",
"c 6   d d f p B F L [ y.V.7._ H @.h 3 d q.l S q.g.w.%.....%.w.%.Y ..I 1 D l c ! L c h L q.p.O.h G c ",
"t. .a ;.@. .J L h h m +.V.B.[ _ y.J 3 f d.O.Y V.%.d.I.%...w.w.Y w.! l 6 %.o.%.w.L l a H q.V.V.q.}.^.",
"v.v.! v.I.J.@.J S B B L 7.5.5.V.q.F < 1 p. .G q._ w.d.g.w.w.%.I E.T v D w.%.%.o.Y J l M J 5.V.J.W.W.",
"o.;.d F X.L.q.h X.[ J H ) H _ p.@.S @ . @.L d Y %..._ %.%.I J %.%.a a D w.$.w.w.S Y +.%.5.....5.t.c.",
"l ,   & , > p 1 4 + 4 2 + 4 f : H . = 1 , h H d M M w O a # # # k 5 * # # * 6 5 a , M H 3 @ O 3 3 0 ",
"L S d d > X p f J S J K B _ y.q.S > M ' J %.w.@.w.d.%.I a # # M d.#.~ ..J U ..$.J , M  .J M f 3 d F ",
" .L h F d 9 J J m B H K _ y.|.$XS p o.r.q.r.d.w.w..X.X.X%.M 5 Y [.f.d.b.w.$.w.p.%.w L p.+...O.h E ^ ",
"0 1 & 9 9 3 H B 2 3 f h _ B.|.*XL S %.q.O.@.+.....(.J.d.%.Y 6 M d.%.t.b.%. .@.r.q.6 ..V.L _  .B > < ",
"9 d q x > o p m J K L ' y.I.(.(.X.J E L Y  . .%.V.XXJ.I ..Y I j o. .1.H.r.o.<.r.+.> J q.H F K r s 7 ",
"L G c D p > g S 7.q.5.7.I.(.D.Z.L h S h J ..+.w.d..X(._ ..Y I M ! ! 2.t.o.G E E @.> h 7.@.+.H ; N s ",
"D d 9 p 6 1 J J 7.i.5.5.I.(.V.Z.J l S l Y O.Y w.%.w.%.Y %...f 5 !  .=.o.F F F x @.2 m +.q.8.R g F N ",
"x c S H 1 2 X.I.V.I.i.5.D.U.Z.(._ '  . .O...J #.@XR.Y %.w.g.m j U ! ;.X.! <.t.;.E 7 x E ' [ K X.Z z ",
"Q 7 d s r X ] `.S.S.S.C.S.G.G.S.H H y.Y @.p.c =.W.n.3.^ s.o.5 a !  .t.P.P.v.v.2.c p d x  .@.E o.X.H ",
"S s V V t ; Z 6.oX).S.G.).N.M.G.C _ (.t.L <.^ =.^ P.W.~ ~ $.0 6 ..L D X.~.:X=Xr.G 9 d F @.t.;.r.i.+.",
"R b S V < r V ` ` N.G.S.#X$X/.G._ f y.@.x ;.=.F ^ x.3.G o.1.a , H.p.t.Y.-X,X-X!.}.X.X.r.u.v.r.2.7.L ",
"E V 7 q $ z ` i.G.:X&XG.#X%X#X#X[ f 5.i.q.K.x.X.x.^ ~ ^ 1. .1 3 2.;.z.=X>X*X{.oXoXX.@.x.e.v.v.Z.J x ",
"x 7 % q $ q R A.A.D.C.D.M.) i } : : n [ +.R x E L 7 p c d %   p h 7 s h.*X{.U.oXz.z F ] S ' +.;.H x ",
"< $ $ <   X X 7 3 u C C u e ) } m e + + < X   7 q < 7 < & 4 - r < 8 + X 2 t 7 V z $ r 7 % ; 8 t < X ",
"x.h.n./ z 7 c L i.(.I.B - 4.&X#X'.B.K g r r x H E S F x x O.' ) +.Q.k.N 2 + ; ` -.-.C.k.Z.Q.U.`.7.g ",
"z.z.K.V 7 8 X.@.v.U.*XU.K y.$XS.[ 6.F.i.g d @.S F c +.R y V ) +.] F.A.-.V $ ; 8.8.Z.oXQ._.`.k.l.l.g ",
":.W *./ L & F Q L @.}.H.L  XU._.` [ +.6.h r  .X.S  .[ z 8 y ` 9.:.Z.] ] R ; z 8.k.A.oXF.A.h.{ A.7.R ",
"*.e.h.o.R d  .D @.<.H.<.x U.!._.9.] K ] B J @. .L  .X.J N A { N.{ 8.-.0.{ 2 V U.A.Q._.C.0.8.:.A.R z ",
":.h.l.:.E d ! k d.J.P.t.E W.oX!.-.] E X.h d %.o.o.@.@.+.` Z } 6.6.0.8.F.C.y B ).U.U.Q.k.k.0.6.F.Z R ",
"h.:.*.2.Q 9 D U g.R.E.R.;.P.`.r.X.] o.;.c 9 Y U o.Y L ' K V Z { 8.6.{ k.F.] ` Z.k.C.).A.A.C.6.Z.R -.",
"h.:./ *.b 0 ~ $.,.m.b.n.Q 2.v.*.e.X.E o.G v T j I k d h N z A ` Z ` ` ` 9.9.O.Z.9.V.(.D.D.i.{ i.R 8.",
":.h.*./ x ~ d.g.m.m.s.,.d >.c.x.x.2.o.;.b k #.T U v d p r r y z u K ' C H ) Z 9.B.B.D.V.k.9.` 9.] i.",
"| h.*.*.F ,.E.m.XXm.n.,.b n.W.~.x.l.v.c.P 0 #.&.$.$.Y c s r u e g H _ g g f w O.7.7.V.V.U.Z.' +.+.8.",
"| *.E x.Q $.f.m.E.a.m.s.Q oXP.W.W.n.c.b.~ P ( P &.,.^ D x V V z H f g f H H 3 _ 5.4.r.I.$X[.+.' K R ",
"R R W / ^ ^.W.n.1.( ^ ^ b 1.W.~.}.c.t.$.v P ~ T ( #.( $.t.w.^ !  .J k S ' l d ..@.q.L  .@.L c p 3 z ",
"< 7 7 7 q 2.Q Q b k 0 k & c X.o.2.G k a # * j j I U v U $.! l d 6 6 * 1 a # . p l l > & 7 1 7 1 X 1 "
};
